%TF.GenerationSoftware,KiCad,Pcbnew,10.0.1*%
%TF.CreationDate,2026-09-30T09:00:59-04:00*%
%TF.ProjectId,PB450-riser,50423435-302d-4726-9973-65722e6b6963,rev?*%
%TF.SameCoordinates,Original*%
%TF.FileFunction,Legend,Top*%
%TF.FilePolarity,Positive*%
%FSLAX46Y46*%
G04 Gerber Fmt 4.6, Leading zero omitted, Abs format (unit mm)*
G04 Created by KiCad (PCBNEW 10.0.1) date 2026-09-30 09:00:59*
%MOMM*%
%LPD*%
G01*
G04 APERTURE LIST*
%ADD10C,0.100000*%
%ADD11C,0.200000*%
%ADD12C,0.150000*%
%ADD13C,0.120000*%
G04 APERTURE END LIST*
D10*
X95500000Y-156500000D02*
X95500000Y-164760000D01*
X95500000Y-164760000D02*
X158400000Y-164760000D01*
X158400000Y-156560000D02*
X160050000Y-156560000D01*
X158400000Y-164760000D02*
X158400000Y-156560000D01*
X160050000Y-156560000D02*
X160100000Y-164760000D01*
X160100000Y-164760000D02*
X174800000Y-164760000D01*
D11*
X174750000Y-156500000D02*
X250000000Y-156510000D01*
D10*
X174800000Y-164760000D02*
X174800000Y-156510000D01*
D12*
X96828221Y-99329580D02*
X96780602Y-99377200D01*
X96780602Y-99377200D02*
X96637745Y-99424819D01*
X96637745Y-99424819D02*
X96542507Y-99424819D01*
X96542507Y-99424819D02*
X96399650Y-99377200D01*
X96399650Y-99377200D02*
X96304412Y-99281961D01*
X96304412Y-99281961D02*
X96256793Y-99186723D01*
X96256793Y-99186723D02*
X96209174Y-98996247D01*
X96209174Y-98996247D02*
X96209174Y-98853390D01*
X96209174Y-98853390D02*
X96256793Y-98662914D01*
X96256793Y-98662914D02*
X96304412Y-98567676D01*
X96304412Y-98567676D02*
X96399650Y-98472438D01*
X96399650Y-98472438D02*
X96542507Y-98424819D01*
X96542507Y-98424819D02*
X96637745Y-98424819D01*
X96637745Y-98424819D02*
X96780602Y-98472438D01*
X96780602Y-98472438D02*
X96828221Y-98520057D01*
X97209174Y-98520057D02*
X97256793Y-98472438D01*
X97256793Y-98472438D02*
X97352031Y-98424819D01*
X97352031Y-98424819D02*
X97590126Y-98424819D01*
X97590126Y-98424819D02*
X97685364Y-98472438D01*
X97685364Y-98472438D02*
X97732983Y-98520057D01*
X97732983Y-98520057D02*
X97780602Y-98615295D01*
X97780602Y-98615295D02*
X97780602Y-98710533D01*
X97780602Y-98710533D02*
X97732983Y-98853390D01*
X97732983Y-98853390D02*
X97161555Y-99424819D01*
X97161555Y-99424819D02*
X97780602Y-99424819D01*
X240397142Y-126779580D02*
X240349523Y-126827200D01*
X240349523Y-126827200D02*
X240206666Y-126874819D01*
X240206666Y-126874819D02*
X240111428Y-126874819D01*
X240111428Y-126874819D02*
X239968571Y-126827200D01*
X239968571Y-126827200D02*
X239873333Y-126731961D01*
X239873333Y-126731961D02*
X239825714Y-126636723D01*
X239825714Y-126636723D02*
X239778095Y-126446247D01*
X239778095Y-126446247D02*
X239778095Y-126303390D01*
X239778095Y-126303390D02*
X239825714Y-126112914D01*
X239825714Y-126112914D02*
X239873333Y-126017676D01*
X239873333Y-126017676D02*
X239968571Y-125922438D01*
X239968571Y-125922438D02*
X240111428Y-125874819D01*
X240111428Y-125874819D02*
X240206666Y-125874819D01*
X240206666Y-125874819D02*
X240349523Y-125922438D01*
X240349523Y-125922438D02*
X240397142Y-125970057D01*
X240778095Y-125970057D02*
X240825714Y-125922438D01*
X240825714Y-125922438D02*
X240920952Y-125874819D01*
X240920952Y-125874819D02*
X241159047Y-125874819D01*
X241159047Y-125874819D02*
X241254285Y-125922438D01*
X241254285Y-125922438D02*
X241301904Y-125970057D01*
X241301904Y-125970057D02*
X241349523Y-126065295D01*
X241349523Y-126065295D02*
X241349523Y-126160533D01*
X241349523Y-126160533D02*
X241301904Y-126303390D01*
X241301904Y-126303390D02*
X240730476Y-126874819D01*
X240730476Y-126874819D02*
X241349523Y-126874819D01*
X241730476Y-125970057D02*
X241778095Y-125922438D01*
X241778095Y-125922438D02*
X241873333Y-125874819D01*
X241873333Y-125874819D02*
X242111428Y-125874819D01*
X242111428Y-125874819D02*
X242206666Y-125922438D01*
X242206666Y-125922438D02*
X242254285Y-125970057D01*
X242254285Y-125970057D02*
X242301904Y-126065295D01*
X242301904Y-126065295D02*
X242301904Y-126160533D01*
X242301904Y-126160533D02*
X242254285Y-126303390D01*
X242254285Y-126303390D02*
X241682857Y-126874819D01*
X241682857Y-126874819D02*
X242301904Y-126874819D01*
X98103333Y-131989580D02*
X98055714Y-132037200D01*
X98055714Y-132037200D02*
X97912857Y-132084819D01*
X97912857Y-132084819D02*
X97817619Y-132084819D01*
X97817619Y-132084819D02*
X97674762Y-132037200D01*
X97674762Y-132037200D02*
X97579524Y-131941961D01*
X97579524Y-131941961D02*
X97531905Y-131846723D01*
X97531905Y-131846723D02*
X97484286Y-131656247D01*
X97484286Y-131656247D02*
X97484286Y-131513390D01*
X97484286Y-131513390D02*
X97531905Y-131322914D01*
X97531905Y-131322914D02*
X97579524Y-131227676D01*
X97579524Y-131227676D02*
X97674762Y-131132438D01*
X97674762Y-131132438D02*
X97817619Y-131084819D01*
X97817619Y-131084819D02*
X97912857Y-131084819D01*
X97912857Y-131084819D02*
X98055714Y-131132438D01*
X98055714Y-131132438D02*
X98103333Y-131180057D01*
X98960476Y-131418152D02*
X98960476Y-132084819D01*
X98722381Y-131037200D02*
X98484286Y-131751485D01*
X98484286Y-131751485D02*
X99103333Y-131751485D01*
X104683333Y-113799580D02*
X104635714Y-113847200D01*
X104635714Y-113847200D02*
X104492857Y-113894819D01*
X104492857Y-113894819D02*
X104397619Y-113894819D01*
X104397619Y-113894819D02*
X104254762Y-113847200D01*
X104254762Y-113847200D02*
X104159524Y-113751961D01*
X104159524Y-113751961D02*
X104111905Y-113656723D01*
X104111905Y-113656723D02*
X104064286Y-113466247D01*
X104064286Y-113466247D02*
X104064286Y-113323390D01*
X104064286Y-113323390D02*
X104111905Y-113132914D01*
X104111905Y-113132914D02*
X104159524Y-113037676D01*
X104159524Y-113037676D02*
X104254762Y-112942438D01*
X104254762Y-112942438D02*
X104397619Y-112894819D01*
X104397619Y-112894819D02*
X104492857Y-112894819D01*
X104492857Y-112894819D02*
X104635714Y-112942438D01*
X104635714Y-112942438D02*
X104683333Y-112990057D01*
X105540476Y-112894819D02*
X105350000Y-112894819D01*
X105350000Y-112894819D02*
X105254762Y-112942438D01*
X105254762Y-112942438D02*
X105207143Y-112990057D01*
X105207143Y-112990057D02*
X105111905Y-113132914D01*
X105111905Y-113132914D02*
X105064286Y-113323390D01*
X105064286Y-113323390D02*
X105064286Y-113704342D01*
X105064286Y-113704342D02*
X105111905Y-113799580D01*
X105111905Y-113799580D02*
X105159524Y-113847200D01*
X105159524Y-113847200D02*
X105254762Y-113894819D01*
X105254762Y-113894819D02*
X105445238Y-113894819D01*
X105445238Y-113894819D02*
X105540476Y-113847200D01*
X105540476Y-113847200D02*
X105588095Y-113799580D01*
X105588095Y-113799580D02*
X105635714Y-113704342D01*
X105635714Y-113704342D02*
X105635714Y-113466247D01*
X105635714Y-113466247D02*
X105588095Y-113371009D01*
X105588095Y-113371009D02*
X105540476Y-113323390D01*
X105540476Y-113323390D02*
X105445238Y-113275771D01*
X105445238Y-113275771D02*
X105254762Y-113275771D01*
X105254762Y-113275771D02*
X105159524Y-113323390D01*
X105159524Y-113323390D02*
X105111905Y-113371009D01*
X105111905Y-113371009D02*
X105064286Y-113466247D01*
X130297142Y-87359580D02*
X130249523Y-87407200D01*
X130249523Y-87407200D02*
X130106666Y-87454819D01*
X130106666Y-87454819D02*
X130011428Y-87454819D01*
X130011428Y-87454819D02*
X129868571Y-87407200D01*
X129868571Y-87407200D02*
X129773333Y-87311961D01*
X129773333Y-87311961D02*
X129725714Y-87216723D01*
X129725714Y-87216723D02*
X129678095Y-87026247D01*
X129678095Y-87026247D02*
X129678095Y-86883390D01*
X129678095Y-86883390D02*
X129725714Y-86692914D01*
X129725714Y-86692914D02*
X129773333Y-86597676D01*
X129773333Y-86597676D02*
X129868571Y-86502438D01*
X129868571Y-86502438D02*
X130011428Y-86454819D01*
X130011428Y-86454819D02*
X130106666Y-86454819D01*
X130106666Y-86454819D02*
X130249523Y-86502438D01*
X130249523Y-86502438D02*
X130297142Y-86550057D01*
X131249523Y-87454819D02*
X130678095Y-87454819D01*
X130963809Y-87454819D02*
X130963809Y-86454819D01*
X130963809Y-86454819D02*
X130868571Y-86597676D01*
X130868571Y-86597676D02*
X130773333Y-86692914D01*
X130773333Y-86692914D02*
X130678095Y-86740533D01*
X131630476Y-86550057D02*
X131678095Y-86502438D01*
X131678095Y-86502438D02*
X131773333Y-86454819D01*
X131773333Y-86454819D02*
X132011428Y-86454819D01*
X132011428Y-86454819D02*
X132106666Y-86502438D01*
X132106666Y-86502438D02*
X132154285Y-86550057D01*
X132154285Y-86550057D02*
X132201904Y-86645295D01*
X132201904Y-86645295D02*
X132201904Y-86740533D01*
X132201904Y-86740533D02*
X132154285Y-86883390D01*
X132154285Y-86883390D02*
X131582857Y-87454819D01*
X131582857Y-87454819D02*
X132201904Y-87454819D01*
X130666666Y-149554819D02*
X130666666Y-148792914D01*
X130476190Y-148983390D02*
X130666666Y-148792914D01*
X130666666Y-148792914D02*
X130857142Y-148983390D01*
X130857142Y-149364342D02*
X130666666Y-149554819D01*
X130666666Y-149554819D02*
X130476190Y-149364342D01*
X132809523Y-149554819D02*
X132238095Y-149554819D01*
X132523809Y-149554819D02*
X132523809Y-148554819D01*
X132523809Y-148554819D02*
X132428571Y-148697676D01*
X132428571Y-148697676D02*
X132333333Y-148792914D01*
X132333333Y-148792914D02*
X132238095Y-148840533D01*
X133428571Y-148554819D02*
X133523809Y-148554819D01*
X133523809Y-148554819D02*
X133619047Y-148602438D01*
X133619047Y-148602438D02*
X133666666Y-148650057D01*
X133666666Y-148650057D02*
X133714285Y-148745295D01*
X133714285Y-148745295D02*
X133761904Y-148935771D01*
X133761904Y-148935771D02*
X133761904Y-149173866D01*
X133761904Y-149173866D02*
X133714285Y-149364342D01*
X133714285Y-149364342D02*
X133666666Y-149459580D01*
X133666666Y-149459580D02*
X133619047Y-149507200D01*
X133619047Y-149507200D02*
X133523809Y-149554819D01*
X133523809Y-149554819D02*
X133428571Y-149554819D01*
X133428571Y-149554819D02*
X133333333Y-149507200D01*
X133333333Y-149507200D02*
X133285714Y-149459580D01*
X133285714Y-149459580D02*
X133238095Y-149364342D01*
X133238095Y-149364342D02*
X133190476Y-149173866D01*
X133190476Y-149173866D02*
X133190476Y-148935771D01*
X133190476Y-148935771D02*
X133238095Y-148745295D01*
X133238095Y-148745295D02*
X133285714Y-148650057D01*
X133285714Y-148650057D02*
X133333333Y-148602438D01*
X133333333Y-148602438D02*
X133428571Y-148554819D01*
X156166666Y-149554819D02*
X156166666Y-148792914D01*
X155976190Y-148983390D02*
X156166666Y-148792914D01*
X156166666Y-148792914D02*
X156357142Y-148983390D01*
X156357142Y-149364342D02*
X156166666Y-149554819D01*
X156166666Y-149554819D02*
X155976190Y-149364342D01*
X157738095Y-148650057D02*
X157785714Y-148602438D01*
X157785714Y-148602438D02*
X157880952Y-148554819D01*
X157880952Y-148554819D02*
X158119047Y-148554819D01*
X158119047Y-148554819D02*
X158214285Y-148602438D01*
X158214285Y-148602438D02*
X158261904Y-148650057D01*
X158261904Y-148650057D02*
X158309523Y-148745295D01*
X158309523Y-148745295D02*
X158309523Y-148840533D01*
X158309523Y-148840533D02*
X158261904Y-148983390D01*
X158261904Y-148983390D02*
X157690476Y-149554819D01*
X157690476Y-149554819D02*
X158309523Y-149554819D01*
X158928571Y-148554819D02*
X159023809Y-148554819D01*
X159023809Y-148554819D02*
X159119047Y-148602438D01*
X159119047Y-148602438D02*
X159166666Y-148650057D01*
X159166666Y-148650057D02*
X159214285Y-148745295D01*
X159214285Y-148745295D02*
X159261904Y-148935771D01*
X159261904Y-148935771D02*
X159261904Y-149173866D01*
X159261904Y-149173866D02*
X159214285Y-149364342D01*
X159214285Y-149364342D02*
X159166666Y-149459580D01*
X159166666Y-149459580D02*
X159119047Y-149507200D01*
X159119047Y-149507200D02*
X159023809Y-149554819D01*
X159023809Y-149554819D02*
X158928571Y-149554819D01*
X158928571Y-149554819D02*
X158833333Y-149507200D01*
X158833333Y-149507200D02*
X158785714Y-149459580D01*
X158785714Y-149459580D02*
X158738095Y-149364342D01*
X158738095Y-149364342D02*
X158690476Y-149173866D01*
X158690476Y-149173866D02*
X158690476Y-148935771D01*
X158690476Y-148935771D02*
X158738095Y-148745295D01*
X158738095Y-148745295D02*
X158785714Y-148650057D01*
X158785714Y-148650057D02*
X158833333Y-148602438D01*
X158833333Y-148602438D02*
X158928571Y-148554819D01*
X217166666Y-149554819D02*
X217166666Y-148792914D01*
X216976190Y-148983390D02*
X217166666Y-148792914D01*
X217166666Y-148792914D02*
X217357142Y-148983390D01*
X217357142Y-149364342D02*
X217166666Y-149554819D01*
X217166666Y-149554819D02*
X216976190Y-149364342D01*
X219309523Y-149554819D02*
X218738095Y-149554819D01*
X219023809Y-149554819D02*
X219023809Y-148554819D01*
X219023809Y-148554819D02*
X218928571Y-148697676D01*
X218928571Y-148697676D02*
X218833333Y-148792914D01*
X218833333Y-148792914D02*
X218738095Y-148840533D01*
X219928571Y-148554819D02*
X220023809Y-148554819D01*
X220023809Y-148554819D02*
X220119047Y-148602438D01*
X220119047Y-148602438D02*
X220166666Y-148650057D01*
X220166666Y-148650057D02*
X220214285Y-148745295D01*
X220214285Y-148745295D02*
X220261904Y-148935771D01*
X220261904Y-148935771D02*
X220261904Y-149173866D01*
X220261904Y-149173866D02*
X220214285Y-149364342D01*
X220214285Y-149364342D02*
X220166666Y-149459580D01*
X220166666Y-149459580D02*
X220119047Y-149507200D01*
X220119047Y-149507200D02*
X220023809Y-149554819D01*
X220023809Y-149554819D02*
X219928571Y-149554819D01*
X219928571Y-149554819D02*
X219833333Y-149507200D01*
X219833333Y-149507200D02*
X219785714Y-149459580D01*
X219785714Y-149459580D02*
X219738095Y-149364342D01*
X219738095Y-149364342D02*
X219690476Y-149173866D01*
X219690476Y-149173866D02*
X219690476Y-148935771D01*
X219690476Y-148935771D02*
X219738095Y-148745295D01*
X219738095Y-148745295D02*
X219785714Y-148650057D01*
X219785714Y-148650057D02*
X219833333Y-148602438D01*
X219833333Y-148602438D02*
X219928571Y-148554819D01*
X122471905Y-156064819D02*
X122471905Y-155064819D01*
X122471905Y-155064819D02*
X122852857Y-155064819D01*
X122852857Y-155064819D02*
X122948095Y-155112438D01*
X122948095Y-155112438D02*
X122995714Y-155160057D01*
X122995714Y-155160057D02*
X123043333Y-155255295D01*
X123043333Y-155255295D02*
X123043333Y-155398152D01*
X123043333Y-155398152D02*
X122995714Y-155493390D01*
X122995714Y-155493390D02*
X122948095Y-155541009D01*
X122948095Y-155541009D02*
X122852857Y-155588628D01*
X122852857Y-155588628D02*
X122471905Y-155588628D01*
X123995714Y-156064819D02*
X123424286Y-156064819D01*
X123710000Y-156064819D02*
X123710000Y-155064819D01*
X123710000Y-155064819D02*
X123614762Y-155207676D01*
X123614762Y-155207676D02*
X123519524Y-155302914D01*
X123519524Y-155302914D02*
X123424286Y-155350533D01*
X114253333Y-141539580D02*
X114205714Y-141587200D01*
X114205714Y-141587200D02*
X114062857Y-141634819D01*
X114062857Y-141634819D02*
X113967619Y-141634819D01*
X113967619Y-141634819D02*
X113824762Y-141587200D01*
X113824762Y-141587200D02*
X113729524Y-141491961D01*
X113729524Y-141491961D02*
X113681905Y-141396723D01*
X113681905Y-141396723D02*
X113634286Y-141206247D01*
X113634286Y-141206247D02*
X113634286Y-141063390D01*
X113634286Y-141063390D02*
X113681905Y-140872914D01*
X113681905Y-140872914D02*
X113729524Y-140777676D01*
X113729524Y-140777676D02*
X113824762Y-140682438D01*
X113824762Y-140682438D02*
X113967619Y-140634819D01*
X113967619Y-140634819D02*
X114062857Y-140634819D01*
X114062857Y-140634819D02*
X114205714Y-140682438D01*
X114205714Y-140682438D02*
X114253333Y-140730057D01*
X115158095Y-140634819D02*
X114681905Y-140634819D01*
X114681905Y-140634819D02*
X114634286Y-141111009D01*
X114634286Y-141111009D02*
X114681905Y-141063390D01*
X114681905Y-141063390D02*
X114777143Y-141015771D01*
X114777143Y-141015771D02*
X115015238Y-141015771D01*
X115015238Y-141015771D02*
X115110476Y-141063390D01*
X115110476Y-141063390D02*
X115158095Y-141111009D01*
X115158095Y-141111009D02*
X115205714Y-141206247D01*
X115205714Y-141206247D02*
X115205714Y-141444342D01*
X115205714Y-141444342D02*
X115158095Y-141539580D01*
X115158095Y-141539580D02*
X115110476Y-141587200D01*
X115110476Y-141587200D02*
X115015238Y-141634819D01*
X115015238Y-141634819D02*
X114777143Y-141634819D01*
X114777143Y-141634819D02*
X114681905Y-141587200D01*
X114681905Y-141587200D02*
X114634286Y-141539580D01*
X113253333Y-87359580D02*
X113205714Y-87407200D01*
X113205714Y-87407200D02*
X113062857Y-87454819D01*
X113062857Y-87454819D02*
X112967619Y-87454819D01*
X112967619Y-87454819D02*
X112824762Y-87407200D01*
X112824762Y-87407200D02*
X112729524Y-87311961D01*
X112729524Y-87311961D02*
X112681905Y-87216723D01*
X112681905Y-87216723D02*
X112634286Y-87026247D01*
X112634286Y-87026247D02*
X112634286Y-86883390D01*
X112634286Y-86883390D02*
X112681905Y-86692914D01*
X112681905Y-86692914D02*
X112729524Y-86597676D01*
X112729524Y-86597676D02*
X112824762Y-86502438D01*
X112824762Y-86502438D02*
X112967619Y-86454819D01*
X112967619Y-86454819D02*
X113062857Y-86454819D01*
X113062857Y-86454819D02*
X113205714Y-86502438D01*
X113205714Y-86502438D02*
X113253333Y-86550057D01*
X113824762Y-86883390D02*
X113729524Y-86835771D01*
X113729524Y-86835771D02*
X113681905Y-86788152D01*
X113681905Y-86788152D02*
X113634286Y-86692914D01*
X113634286Y-86692914D02*
X113634286Y-86645295D01*
X113634286Y-86645295D02*
X113681905Y-86550057D01*
X113681905Y-86550057D02*
X113729524Y-86502438D01*
X113729524Y-86502438D02*
X113824762Y-86454819D01*
X113824762Y-86454819D02*
X114015238Y-86454819D01*
X114015238Y-86454819D02*
X114110476Y-86502438D01*
X114110476Y-86502438D02*
X114158095Y-86550057D01*
X114158095Y-86550057D02*
X114205714Y-86645295D01*
X114205714Y-86645295D02*
X114205714Y-86692914D01*
X114205714Y-86692914D02*
X114158095Y-86788152D01*
X114158095Y-86788152D02*
X114110476Y-86835771D01*
X114110476Y-86835771D02*
X114015238Y-86883390D01*
X114015238Y-86883390D02*
X113824762Y-86883390D01*
X113824762Y-86883390D02*
X113729524Y-86931009D01*
X113729524Y-86931009D02*
X113681905Y-86978628D01*
X113681905Y-86978628D02*
X113634286Y-87073866D01*
X113634286Y-87073866D02*
X113634286Y-87264342D01*
X113634286Y-87264342D02*
X113681905Y-87359580D01*
X113681905Y-87359580D02*
X113729524Y-87407200D01*
X113729524Y-87407200D02*
X113824762Y-87454819D01*
X113824762Y-87454819D02*
X114015238Y-87454819D01*
X114015238Y-87454819D02*
X114110476Y-87407200D01*
X114110476Y-87407200D02*
X114158095Y-87359580D01*
X114158095Y-87359580D02*
X114205714Y-87264342D01*
X114205714Y-87264342D02*
X114205714Y-87073866D01*
X114205714Y-87073866D02*
X114158095Y-86978628D01*
X114158095Y-86978628D02*
X114110476Y-86931009D01*
X114110476Y-86931009D02*
X114015238Y-86883390D01*
X203551917Y-96284580D02*
X203504298Y-96332200D01*
X203504298Y-96332200D02*
X203361441Y-96379819D01*
X203361441Y-96379819D02*
X203266203Y-96379819D01*
X203266203Y-96379819D02*
X203123346Y-96332200D01*
X203123346Y-96332200D02*
X203028108Y-96236961D01*
X203028108Y-96236961D02*
X202980489Y-96141723D01*
X202980489Y-96141723D02*
X202932870Y-95951247D01*
X202932870Y-95951247D02*
X202932870Y-95808390D01*
X202932870Y-95808390D02*
X202980489Y-95617914D01*
X202980489Y-95617914D02*
X203028108Y-95522676D01*
X203028108Y-95522676D02*
X203123346Y-95427438D01*
X203123346Y-95427438D02*
X203266203Y-95379819D01*
X203266203Y-95379819D02*
X203361441Y-95379819D01*
X203361441Y-95379819D02*
X203504298Y-95427438D01*
X203504298Y-95427438D02*
X203551917Y-95475057D01*
X204504298Y-96379819D02*
X203932870Y-96379819D01*
X204218584Y-96379819D02*
X204218584Y-95379819D01*
X204218584Y-95379819D02*
X204123346Y-95522676D01*
X204123346Y-95522676D02*
X204028108Y-95617914D01*
X204028108Y-95617914D02*
X203932870Y-95665533D01*
X205075727Y-95808390D02*
X204980489Y-95760771D01*
X204980489Y-95760771D02*
X204932870Y-95713152D01*
X204932870Y-95713152D02*
X204885251Y-95617914D01*
X204885251Y-95617914D02*
X204885251Y-95570295D01*
X204885251Y-95570295D02*
X204932870Y-95475057D01*
X204932870Y-95475057D02*
X204980489Y-95427438D01*
X204980489Y-95427438D02*
X205075727Y-95379819D01*
X205075727Y-95379819D02*
X205266203Y-95379819D01*
X205266203Y-95379819D02*
X205361441Y-95427438D01*
X205361441Y-95427438D02*
X205409060Y-95475057D01*
X205409060Y-95475057D02*
X205456679Y-95570295D01*
X205456679Y-95570295D02*
X205456679Y-95617914D01*
X205456679Y-95617914D02*
X205409060Y-95713152D01*
X205409060Y-95713152D02*
X205361441Y-95760771D01*
X205361441Y-95760771D02*
X205266203Y-95808390D01*
X205266203Y-95808390D02*
X205075727Y-95808390D01*
X205075727Y-95808390D02*
X204980489Y-95856009D01*
X204980489Y-95856009D02*
X204932870Y-95903628D01*
X204932870Y-95903628D02*
X204885251Y-95998866D01*
X204885251Y-95998866D02*
X204885251Y-96189342D01*
X204885251Y-96189342D02*
X204932870Y-96284580D01*
X204932870Y-96284580D02*
X204980489Y-96332200D01*
X204980489Y-96332200D02*
X205075727Y-96379819D01*
X205075727Y-96379819D02*
X205266203Y-96379819D01*
X205266203Y-96379819D02*
X205361441Y-96332200D01*
X205361441Y-96332200D02*
X205409060Y-96284580D01*
X205409060Y-96284580D02*
X205456679Y-96189342D01*
X205456679Y-96189342D02*
X205456679Y-95998866D01*
X205456679Y-95998866D02*
X205409060Y-95903628D01*
X205409060Y-95903628D02*
X205361441Y-95856009D01*
X205361441Y-95856009D02*
X205266203Y-95808390D01*
X113298221Y-94989580D02*
X113250602Y-95037200D01*
X113250602Y-95037200D02*
X113107745Y-95084819D01*
X113107745Y-95084819D02*
X113012507Y-95084819D01*
X113012507Y-95084819D02*
X112869650Y-95037200D01*
X112869650Y-95037200D02*
X112774412Y-94941961D01*
X112774412Y-94941961D02*
X112726793Y-94846723D01*
X112726793Y-94846723D02*
X112679174Y-94656247D01*
X112679174Y-94656247D02*
X112679174Y-94513390D01*
X112679174Y-94513390D02*
X112726793Y-94322914D01*
X112726793Y-94322914D02*
X112774412Y-94227676D01*
X112774412Y-94227676D02*
X112869650Y-94132438D01*
X112869650Y-94132438D02*
X113012507Y-94084819D01*
X113012507Y-94084819D02*
X113107745Y-94084819D01*
X113107745Y-94084819D02*
X113250602Y-94132438D01*
X113250602Y-94132438D02*
X113298221Y-94180057D01*
X113631555Y-94084819D02*
X114298221Y-94084819D01*
X114298221Y-94084819D02*
X113869650Y-95084819D01*
X186647142Y-149969580D02*
X186599523Y-150017200D01*
X186599523Y-150017200D02*
X186456666Y-150064819D01*
X186456666Y-150064819D02*
X186361428Y-150064819D01*
X186361428Y-150064819D02*
X186218571Y-150017200D01*
X186218571Y-150017200D02*
X186123333Y-149921961D01*
X186123333Y-149921961D02*
X186075714Y-149826723D01*
X186075714Y-149826723D02*
X186028095Y-149636247D01*
X186028095Y-149636247D02*
X186028095Y-149493390D01*
X186028095Y-149493390D02*
X186075714Y-149302914D01*
X186075714Y-149302914D02*
X186123333Y-149207676D01*
X186123333Y-149207676D02*
X186218571Y-149112438D01*
X186218571Y-149112438D02*
X186361428Y-149064819D01*
X186361428Y-149064819D02*
X186456666Y-149064819D01*
X186456666Y-149064819D02*
X186599523Y-149112438D01*
X186599523Y-149112438D02*
X186647142Y-149160057D01*
X187599523Y-150064819D02*
X187028095Y-150064819D01*
X187313809Y-150064819D02*
X187313809Y-149064819D01*
X187313809Y-149064819D02*
X187218571Y-149207676D01*
X187218571Y-149207676D02*
X187123333Y-149302914D01*
X187123333Y-149302914D02*
X187028095Y-149350533D01*
X187932857Y-149064819D02*
X188551904Y-149064819D01*
X188551904Y-149064819D02*
X188218571Y-149445771D01*
X188218571Y-149445771D02*
X188361428Y-149445771D01*
X188361428Y-149445771D02*
X188456666Y-149493390D01*
X188456666Y-149493390D02*
X188504285Y-149541009D01*
X188504285Y-149541009D02*
X188551904Y-149636247D01*
X188551904Y-149636247D02*
X188551904Y-149874342D01*
X188551904Y-149874342D02*
X188504285Y-149969580D01*
X188504285Y-149969580D02*
X188456666Y-150017200D01*
X188456666Y-150017200D02*
X188361428Y-150064819D01*
X188361428Y-150064819D02*
X188075714Y-150064819D01*
X188075714Y-150064819D02*
X187980476Y-150017200D01*
X187980476Y-150017200D02*
X187932857Y-149969580D01*
X238607142Y-136279580D02*
X238559523Y-136327200D01*
X238559523Y-136327200D02*
X238416666Y-136374819D01*
X238416666Y-136374819D02*
X238321428Y-136374819D01*
X238321428Y-136374819D02*
X238178571Y-136327200D01*
X238178571Y-136327200D02*
X238083333Y-136231961D01*
X238083333Y-136231961D02*
X238035714Y-136136723D01*
X238035714Y-136136723D02*
X237988095Y-135946247D01*
X237988095Y-135946247D02*
X237988095Y-135803390D01*
X237988095Y-135803390D02*
X238035714Y-135612914D01*
X238035714Y-135612914D02*
X238083333Y-135517676D01*
X238083333Y-135517676D02*
X238178571Y-135422438D01*
X238178571Y-135422438D02*
X238321428Y-135374819D01*
X238321428Y-135374819D02*
X238416666Y-135374819D01*
X238416666Y-135374819D02*
X238559523Y-135422438D01*
X238559523Y-135422438D02*
X238607142Y-135470057D01*
X238988095Y-135470057D02*
X239035714Y-135422438D01*
X239035714Y-135422438D02*
X239130952Y-135374819D01*
X239130952Y-135374819D02*
X239369047Y-135374819D01*
X239369047Y-135374819D02*
X239464285Y-135422438D01*
X239464285Y-135422438D02*
X239511904Y-135470057D01*
X239511904Y-135470057D02*
X239559523Y-135565295D01*
X239559523Y-135565295D02*
X239559523Y-135660533D01*
X239559523Y-135660533D02*
X239511904Y-135803390D01*
X239511904Y-135803390D02*
X238940476Y-136374819D01*
X238940476Y-136374819D02*
X239559523Y-136374819D01*
X240511904Y-136374819D02*
X239940476Y-136374819D01*
X240226190Y-136374819D02*
X240226190Y-135374819D01*
X240226190Y-135374819D02*
X240130952Y-135517676D01*
X240130952Y-135517676D02*
X240035714Y-135612914D01*
X240035714Y-135612914D02*
X239940476Y-135660533D01*
X130342030Y-94989580D02*
X130294411Y-95037200D01*
X130294411Y-95037200D02*
X130151554Y-95084819D01*
X130151554Y-95084819D02*
X130056316Y-95084819D01*
X130056316Y-95084819D02*
X129913459Y-95037200D01*
X129913459Y-95037200D02*
X129818221Y-94941961D01*
X129818221Y-94941961D02*
X129770602Y-94846723D01*
X129770602Y-94846723D02*
X129722983Y-94656247D01*
X129722983Y-94656247D02*
X129722983Y-94513390D01*
X129722983Y-94513390D02*
X129770602Y-94322914D01*
X129770602Y-94322914D02*
X129818221Y-94227676D01*
X129818221Y-94227676D02*
X129913459Y-94132438D01*
X129913459Y-94132438D02*
X130056316Y-94084819D01*
X130056316Y-94084819D02*
X130151554Y-94084819D01*
X130151554Y-94084819D02*
X130294411Y-94132438D01*
X130294411Y-94132438D02*
X130342030Y-94180057D01*
X131294411Y-95084819D02*
X130722983Y-95084819D01*
X131008697Y-95084819D02*
X131008697Y-94084819D01*
X131008697Y-94084819D02*
X130913459Y-94227676D01*
X130913459Y-94227676D02*
X130818221Y-94322914D01*
X130818221Y-94322914D02*
X130722983Y-94370533D01*
X132246792Y-95084819D02*
X131675364Y-95084819D01*
X131961078Y-95084819D02*
X131961078Y-94084819D01*
X131961078Y-94084819D02*
X131865840Y-94227676D01*
X131865840Y-94227676D02*
X131770602Y-94322914D01*
X131770602Y-94322914D02*
X131675364Y-94370533D01*
X122488221Y-94989580D02*
X122440602Y-95037200D01*
X122440602Y-95037200D02*
X122297745Y-95084819D01*
X122297745Y-95084819D02*
X122202507Y-95084819D01*
X122202507Y-95084819D02*
X122059650Y-95037200D01*
X122059650Y-95037200D02*
X121964412Y-94941961D01*
X121964412Y-94941961D02*
X121916793Y-94846723D01*
X121916793Y-94846723D02*
X121869174Y-94656247D01*
X121869174Y-94656247D02*
X121869174Y-94513390D01*
X121869174Y-94513390D02*
X121916793Y-94322914D01*
X121916793Y-94322914D02*
X121964412Y-94227676D01*
X121964412Y-94227676D02*
X122059650Y-94132438D01*
X122059650Y-94132438D02*
X122202507Y-94084819D01*
X122202507Y-94084819D02*
X122297745Y-94084819D01*
X122297745Y-94084819D02*
X122440602Y-94132438D01*
X122440602Y-94132438D02*
X122488221Y-94180057D01*
X122964412Y-95084819D02*
X123154888Y-95084819D01*
X123154888Y-95084819D02*
X123250126Y-95037200D01*
X123250126Y-95037200D02*
X123297745Y-94989580D01*
X123297745Y-94989580D02*
X123392983Y-94846723D01*
X123392983Y-94846723D02*
X123440602Y-94656247D01*
X123440602Y-94656247D02*
X123440602Y-94275295D01*
X123440602Y-94275295D02*
X123392983Y-94180057D01*
X123392983Y-94180057D02*
X123345364Y-94132438D01*
X123345364Y-94132438D02*
X123250126Y-94084819D01*
X123250126Y-94084819D02*
X123059650Y-94084819D01*
X123059650Y-94084819D02*
X122964412Y-94132438D01*
X122964412Y-94132438D02*
X122916793Y-94180057D01*
X122916793Y-94180057D02*
X122869174Y-94275295D01*
X122869174Y-94275295D02*
X122869174Y-94513390D01*
X122869174Y-94513390D02*
X122916793Y-94608628D01*
X122916793Y-94608628D02*
X122964412Y-94656247D01*
X122964412Y-94656247D02*
X123059650Y-94703866D01*
X123059650Y-94703866D02*
X123250126Y-94703866D01*
X123250126Y-94703866D02*
X123345364Y-94656247D01*
X123345364Y-94656247D02*
X123392983Y-94608628D01*
X123392983Y-94608628D02*
X123440602Y-94513390D01*
G36*
X179858028Y-129740928D02*
G01*
X178107736Y-129740928D01*
X178107736Y-129540185D01*
X178218847Y-129540185D01*
X178218847Y-129569449D01*
X178230046Y-129596485D01*
X178250738Y-129617177D01*
X178277774Y-129628376D01*
X178292406Y-129629817D01*
X178387644Y-129629817D01*
X178395049Y-129629087D01*
X178397024Y-129629228D01*
X178399621Y-129628637D01*
X178402276Y-129628376D01*
X178404107Y-129627617D01*
X178411361Y-129625968D01*
X178554218Y-129578349D01*
X178567643Y-129572355D01*
X178569678Y-129570589D01*
X178572169Y-129569558D01*
X178583534Y-129560231D01*
X178678773Y-129464991D01*
X178688100Y-129453626D01*
X178689130Y-129451137D01*
X178690896Y-129449102D01*
X178696890Y-129435676D01*
X178744509Y-129292820D01*
X178746158Y-129285564D01*
X178746917Y-129283734D01*
X178747178Y-129281080D01*
X178747769Y-129278483D01*
X178747628Y-129276508D01*
X178748358Y-129269102D01*
X178748358Y-128831150D01*
X179027519Y-128831150D01*
X179029593Y-128860340D01*
X179042680Y-128886515D01*
X179064788Y-128905688D01*
X179092549Y-128914942D01*
X179121739Y-128912868D01*
X179135471Y-128907613D01*
X179230709Y-128859994D01*
X179237008Y-128856029D01*
X179238836Y-128855272D01*
X179240892Y-128853583D01*
X179243152Y-128852162D01*
X179244451Y-128850663D01*
X179250201Y-128845945D01*
X179312644Y-128783502D01*
X179312644Y-129479817D01*
X179101930Y-129479817D01*
X179087298Y-129481258D01*
X179060262Y-129492457D01*
X179039570Y-129513149D01*
X179028371Y-129540185D01*
X179028371Y-129569449D01*
X179039570Y-129596485D01*
X179060262Y-129617177D01*
X179087298Y-129628376D01*
X179101930Y-129629817D01*
X179673358Y-129629817D01*
X179687990Y-129628376D01*
X179715026Y-129617177D01*
X179735718Y-129596485D01*
X179746917Y-129569449D01*
X179746917Y-129540185D01*
X179735718Y-129513149D01*
X179715026Y-129492457D01*
X179687990Y-129481258D01*
X179673358Y-129479817D01*
X179462644Y-129479817D01*
X179462644Y-128554817D01*
X179462638Y-128554764D01*
X179462644Y-128554738D01*
X179462628Y-128554661D01*
X179461203Y-128540185D01*
X179458361Y-128533324D01*
X179456905Y-128526043D01*
X179452815Y-128519936D01*
X179450004Y-128513149D01*
X179444755Y-128507900D01*
X179440622Y-128501728D01*
X179434505Y-128497650D01*
X179429312Y-128492457D01*
X179422452Y-128489615D01*
X179416273Y-128485496D01*
X179409064Y-128484070D01*
X179402276Y-128481258D01*
X179394849Y-128481258D01*
X179387565Y-128479817D01*
X179380360Y-128481258D01*
X179373012Y-128481258D01*
X179366151Y-128484099D01*
X179358871Y-128485556D01*
X179352765Y-128489644D01*
X179345976Y-128492457D01*
X179340725Y-128497707D01*
X179334556Y-128501839D01*
X179325335Y-128513097D01*
X179325284Y-128513149D01*
X179325274Y-128513171D01*
X179325240Y-128513214D01*
X179234120Y-128649894D01*
X179152741Y-128731273D01*
X179068389Y-128773449D01*
X179055946Y-128781281D01*
X179036773Y-128803389D01*
X179027519Y-128831150D01*
X178748358Y-128831150D01*
X178748358Y-128554817D01*
X178746917Y-128540185D01*
X178735718Y-128513149D01*
X178715026Y-128492457D01*
X178687990Y-128481258D01*
X178658726Y-128481258D01*
X178631690Y-128492457D01*
X178610998Y-128513149D01*
X178599799Y-128540185D01*
X178598358Y-128554817D01*
X178598358Y-129256932D01*
X178560186Y-129371445D01*
X178489987Y-129441645D01*
X178375474Y-129479817D01*
X178292406Y-129479817D01*
X178277774Y-129481258D01*
X178250738Y-129492457D01*
X178230046Y-129513149D01*
X178218847Y-129540185D01*
X178107736Y-129540185D01*
X178107736Y-128368706D01*
X179858028Y-128368706D01*
X179858028Y-129740928D01*
G37*
X108429047Y-129584819D02*
X108429047Y-128822914D01*
X108238571Y-129013390D02*
X108429047Y-128822914D01*
X108429047Y-128822914D02*
X108619523Y-129013390D01*
X109857618Y-129584819D02*
X109524285Y-129108628D01*
X109286190Y-129584819D02*
X109286190Y-128584819D01*
X109286190Y-128584819D02*
X109667142Y-128584819D01*
X109667142Y-128584819D02*
X109762380Y-128632438D01*
X109762380Y-128632438D02*
X109809999Y-128680057D01*
X109809999Y-128680057D02*
X109857618Y-128775295D01*
X109857618Y-128775295D02*
X109857618Y-128918152D01*
X109857618Y-128918152D02*
X109809999Y-129013390D01*
X109809999Y-129013390D02*
X109762380Y-129061009D01*
X109762380Y-129061009D02*
X109667142Y-129108628D01*
X109667142Y-129108628D02*
X109286190Y-129108628D01*
X110429047Y-129584819D02*
X110333809Y-129537200D01*
X110333809Y-129537200D02*
X110286190Y-129489580D01*
X110286190Y-129489580D02*
X110238571Y-129394342D01*
X110238571Y-129394342D02*
X110238571Y-129108628D01*
X110238571Y-129108628D02*
X110286190Y-129013390D01*
X110286190Y-129013390D02*
X110333809Y-128965771D01*
X110333809Y-128965771D02*
X110429047Y-128918152D01*
X110429047Y-128918152D02*
X110571904Y-128918152D01*
X110571904Y-128918152D02*
X110667142Y-128965771D01*
X110667142Y-128965771D02*
X110714761Y-129013390D01*
X110714761Y-129013390D02*
X110762380Y-129108628D01*
X110762380Y-129108628D02*
X110762380Y-129394342D01*
X110762380Y-129394342D02*
X110714761Y-129489580D01*
X110714761Y-129489580D02*
X110667142Y-129537200D01*
X110667142Y-129537200D02*
X110571904Y-129584819D01*
X110571904Y-129584819D02*
X110429047Y-129584819D01*
X111095714Y-128918152D02*
X111286190Y-129584819D01*
X111286190Y-129584819D02*
X111476666Y-129108628D01*
X111476666Y-129108628D02*
X111667142Y-129584819D01*
X111667142Y-129584819D02*
X111857618Y-128918152D01*
X112952857Y-129299104D02*
X113429047Y-129299104D01*
X112857619Y-129584819D02*
X113190952Y-128584819D01*
X113190952Y-128584819D02*
X113524285Y-129584819D01*
X114857619Y-129918152D02*
X114857619Y-128489580D01*
X116905238Y-129584819D02*
X116571905Y-129108628D01*
X116333810Y-129584819D02*
X116333810Y-128584819D01*
X116333810Y-128584819D02*
X116714762Y-128584819D01*
X116714762Y-128584819D02*
X116810000Y-128632438D01*
X116810000Y-128632438D02*
X116857619Y-128680057D01*
X116857619Y-128680057D02*
X116905238Y-128775295D01*
X116905238Y-128775295D02*
X116905238Y-128918152D01*
X116905238Y-128918152D02*
X116857619Y-129013390D01*
X116857619Y-129013390D02*
X116810000Y-129061009D01*
X116810000Y-129061009D02*
X116714762Y-129108628D01*
X116714762Y-129108628D02*
X116333810Y-129108628D01*
X117476667Y-129584819D02*
X117381429Y-129537200D01*
X117381429Y-129537200D02*
X117333810Y-129489580D01*
X117333810Y-129489580D02*
X117286191Y-129394342D01*
X117286191Y-129394342D02*
X117286191Y-129108628D01*
X117286191Y-129108628D02*
X117333810Y-129013390D01*
X117333810Y-129013390D02*
X117381429Y-128965771D01*
X117381429Y-128965771D02*
X117476667Y-128918152D01*
X117476667Y-128918152D02*
X117619524Y-128918152D01*
X117619524Y-128918152D02*
X117714762Y-128965771D01*
X117714762Y-128965771D02*
X117762381Y-129013390D01*
X117762381Y-129013390D02*
X117810000Y-129108628D01*
X117810000Y-129108628D02*
X117810000Y-129394342D01*
X117810000Y-129394342D02*
X117762381Y-129489580D01*
X117762381Y-129489580D02*
X117714762Y-129537200D01*
X117714762Y-129537200D02*
X117619524Y-129584819D01*
X117619524Y-129584819D02*
X117476667Y-129584819D01*
X118143334Y-128918152D02*
X118333810Y-129584819D01*
X118333810Y-129584819D02*
X118524286Y-129108628D01*
X118524286Y-129108628D02*
X118714762Y-129584819D01*
X118714762Y-129584819D02*
X118905238Y-128918152D01*
X120381429Y-129061009D02*
X120524286Y-129108628D01*
X120524286Y-129108628D02*
X120571905Y-129156247D01*
X120571905Y-129156247D02*
X120619524Y-129251485D01*
X120619524Y-129251485D02*
X120619524Y-129394342D01*
X120619524Y-129394342D02*
X120571905Y-129489580D01*
X120571905Y-129489580D02*
X120524286Y-129537200D01*
X120524286Y-129537200D02*
X120429048Y-129584819D01*
X120429048Y-129584819D02*
X120048096Y-129584819D01*
X120048096Y-129584819D02*
X120048096Y-128584819D01*
X120048096Y-128584819D02*
X120381429Y-128584819D01*
X120381429Y-128584819D02*
X120476667Y-128632438D01*
X120476667Y-128632438D02*
X120524286Y-128680057D01*
X120524286Y-128680057D02*
X120571905Y-128775295D01*
X120571905Y-128775295D02*
X120571905Y-128870533D01*
X120571905Y-128870533D02*
X120524286Y-128965771D01*
X120524286Y-128965771D02*
X120476667Y-129013390D01*
X120476667Y-129013390D02*
X120381429Y-129061009D01*
X120381429Y-129061009D02*
X120048096Y-129061009D01*
X122190953Y-128822914D02*
X122190953Y-129584819D01*
X122381429Y-129394342D02*
X122190953Y-129584819D01*
X122190953Y-129584819D02*
X122000477Y-129394342D01*
X130673358Y-129554817D02*
X130673358Y-128792912D01*
X130482882Y-128983388D02*
X130673358Y-128792912D01*
X130673358Y-128792912D02*
X130863834Y-128983388D01*
X130863834Y-129364340D02*
X130673358Y-129554817D01*
X130673358Y-129554817D02*
X130482882Y-129364340D01*
X132816215Y-129554817D02*
X132244787Y-129554817D01*
X132530501Y-129554817D02*
X132530501Y-128554817D01*
X132530501Y-128554817D02*
X132435263Y-128697674D01*
X132435263Y-128697674D02*
X132340025Y-128792912D01*
X132340025Y-128792912D02*
X132244787Y-128840531D01*
X133435263Y-128554817D02*
X133530501Y-128554817D01*
X133530501Y-128554817D02*
X133625739Y-128602436D01*
X133625739Y-128602436D02*
X133673358Y-128650055D01*
X133673358Y-128650055D02*
X133720977Y-128745293D01*
X133720977Y-128745293D02*
X133768596Y-128935769D01*
X133768596Y-128935769D02*
X133768596Y-129173864D01*
X133768596Y-129173864D02*
X133720977Y-129364340D01*
X133720977Y-129364340D02*
X133673358Y-129459578D01*
X133673358Y-129459578D02*
X133625739Y-129507198D01*
X133625739Y-129507198D02*
X133530501Y-129554817D01*
X133530501Y-129554817D02*
X133435263Y-129554817D01*
X133435263Y-129554817D02*
X133340025Y-129507198D01*
X133340025Y-129507198D02*
X133292406Y-129459578D01*
X133292406Y-129459578D02*
X133244787Y-129364340D01*
X133244787Y-129364340D02*
X133197168Y-129173864D01*
X133197168Y-129173864D02*
X133197168Y-128935769D01*
X133197168Y-128935769D02*
X133244787Y-128745293D01*
X133244787Y-128745293D02*
X133292406Y-128650055D01*
X133292406Y-128650055D02*
X133340025Y-128602436D01*
X133340025Y-128602436D02*
X133435263Y-128554817D01*
X156173358Y-129554817D02*
X156173358Y-128792912D01*
X155982882Y-128983388D02*
X156173358Y-128792912D01*
X156173358Y-128792912D02*
X156363834Y-128983388D01*
X156363834Y-129364340D02*
X156173358Y-129554817D01*
X156173358Y-129554817D02*
X155982882Y-129364340D01*
X157744787Y-128650055D02*
X157792406Y-128602436D01*
X157792406Y-128602436D02*
X157887644Y-128554817D01*
X157887644Y-128554817D02*
X158125739Y-128554817D01*
X158125739Y-128554817D02*
X158220977Y-128602436D01*
X158220977Y-128602436D02*
X158268596Y-128650055D01*
X158268596Y-128650055D02*
X158316215Y-128745293D01*
X158316215Y-128745293D02*
X158316215Y-128840531D01*
X158316215Y-128840531D02*
X158268596Y-128983388D01*
X158268596Y-128983388D02*
X157697168Y-129554817D01*
X157697168Y-129554817D02*
X158316215Y-129554817D01*
X158935263Y-128554817D02*
X159030501Y-128554817D01*
X159030501Y-128554817D02*
X159125739Y-128602436D01*
X159125739Y-128602436D02*
X159173358Y-128650055D01*
X159173358Y-128650055D02*
X159220977Y-128745293D01*
X159220977Y-128745293D02*
X159268596Y-128935769D01*
X159268596Y-128935769D02*
X159268596Y-129173864D01*
X159268596Y-129173864D02*
X159220977Y-129364340D01*
X159220977Y-129364340D02*
X159173358Y-129459578D01*
X159173358Y-129459578D02*
X159125739Y-129507198D01*
X159125739Y-129507198D02*
X159030501Y-129554817D01*
X159030501Y-129554817D02*
X158935263Y-129554817D01*
X158935263Y-129554817D02*
X158840025Y-129507198D01*
X158840025Y-129507198D02*
X158792406Y-129459578D01*
X158792406Y-129459578D02*
X158744787Y-129364340D01*
X158744787Y-129364340D02*
X158697168Y-129173864D01*
X158697168Y-129173864D02*
X158697168Y-128935769D01*
X158697168Y-128935769D02*
X158744787Y-128745293D01*
X158744787Y-128745293D02*
X158792406Y-128650055D01*
X158792406Y-128650055D02*
X158840025Y-128602436D01*
X158840025Y-128602436D02*
X158935263Y-128554817D01*
X194554310Y-129554817D02*
X194554310Y-128792912D01*
X194363834Y-128983388D02*
X194554310Y-128792912D01*
X194554310Y-128792912D02*
X194744786Y-128983388D01*
X195982881Y-129554817D02*
X195649548Y-129078626D01*
X195411453Y-129554817D02*
X195411453Y-128554817D01*
X195411453Y-128554817D02*
X195792405Y-128554817D01*
X195792405Y-128554817D02*
X195887643Y-128602436D01*
X195887643Y-128602436D02*
X195935262Y-128650055D01*
X195935262Y-128650055D02*
X195982881Y-128745293D01*
X195982881Y-128745293D02*
X195982881Y-128888150D01*
X195982881Y-128888150D02*
X195935262Y-128983388D01*
X195935262Y-128983388D02*
X195887643Y-129031007D01*
X195887643Y-129031007D02*
X195792405Y-129078626D01*
X195792405Y-129078626D02*
X195411453Y-129078626D01*
X196554310Y-129554817D02*
X196459072Y-129507198D01*
X196459072Y-129507198D02*
X196411453Y-129459578D01*
X196411453Y-129459578D02*
X196363834Y-129364340D01*
X196363834Y-129364340D02*
X196363834Y-129078626D01*
X196363834Y-129078626D02*
X196411453Y-128983388D01*
X196411453Y-128983388D02*
X196459072Y-128935769D01*
X196459072Y-128935769D02*
X196554310Y-128888150D01*
X196554310Y-128888150D02*
X196697167Y-128888150D01*
X196697167Y-128888150D02*
X196792405Y-128935769D01*
X196792405Y-128935769D02*
X196840024Y-128983388D01*
X196840024Y-128983388D02*
X196887643Y-129078626D01*
X196887643Y-129078626D02*
X196887643Y-129364340D01*
X196887643Y-129364340D02*
X196840024Y-129459578D01*
X196840024Y-129459578D02*
X196792405Y-129507198D01*
X196792405Y-129507198D02*
X196697167Y-129554817D01*
X196697167Y-129554817D02*
X196554310Y-129554817D01*
X197220977Y-128888150D02*
X197411453Y-129554817D01*
X197411453Y-129554817D02*
X197601929Y-129078626D01*
X197601929Y-129078626D02*
X197792405Y-129554817D01*
X197792405Y-129554817D02*
X197982881Y-128888150D01*
X199697167Y-129459578D02*
X199649548Y-129507198D01*
X199649548Y-129507198D02*
X199506691Y-129554817D01*
X199506691Y-129554817D02*
X199411453Y-129554817D01*
X199411453Y-129554817D02*
X199268596Y-129507198D01*
X199268596Y-129507198D02*
X199173358Y-129411959D01*
X199173358Y-129411959D02*
X199125739Y-129316721D01*
X199125739Y-129316721D02*
X199078120Y-129126245D01*
X199078120Y-129126245D02*
X199078120Y-128983388D01*
X199078120Y-128983388D02*
X199125739Y-128792912D01*
X199125739Y-128792912D02*
X199173358Y-128697674D01*
X199173358Y-128697674D02*
X199268596Y-128602436D01*
X199268596Y-128602436D02*
X199411453Y-128554817D01*
X199411453Y-128554817D02*
X199506691Y-128554817D01*
X199506691Y-128554817D02*
X199649548Y-128602436D01*
X199649548Y-128602436D02*
X199697167Y-128650055D01*
X201125739Y-129888150D02*
X201125739Y-128459578D01*
X203173358Y-129554817D02*
X202840025Y-129078626D01*
X202601930Y-129554817D02*
X202601930Y-128554817D01*
X202601930Y-128554817D02*
X202982882Y-128554817D01*
X202982882Y-128554817D02*
X203078120Y-128602436D01*
X203078120Y-128602436D02*
X203125739Y-128650055D01*
X203125739Y-128650055D02*
X203173358Y-128745293D01*
X203173358Y-128745293D02*
X203173358Y-128888150D01*
X203173358Y-128888150D02*
X203125739Y-128983388D01*
X203125739Y-128983388D02*
X203078120Y-129031007D01*
X203078120Y-129031007D02*
X202982882Y-129078626D01*
X202982882Y-129078626D02*
X202601930Y-129078626D01*
X203744787Y-129554817D02*
X203649549Y-129507198D01*
X203649549Y-129507198D02*
X203601930Y-129459578D01*
X203601930Y-129459578D02*
X203554311Y-129364340D01*
X203554311Y-129364340D02*
X203554311Y-129078626D01*
X203554311Y-129078626D02*
X203601930Y-128983388D01*
X203601930Y-128983388D02*
X203649549Y-128935769D01*
X203649549Y-128935769D02*
X203744787Y-128888150D01*
X203744787Y-128888150D02*
X203887644Y-128888150D01*
X203887644Y-128888150D02*
X203982882Y-128935769D01*
X203982882Y-128935769D02*
X204030501Y-128983388D01*
X204030501Y-128983388D02*
X204078120Y-129078626D01*
X204078120Y-129078626D02*
X204078120Y-129364340D01*
X204078120Y-129364340D02*
X204030501Y-129459578D01*
X204030501Y-129459578D02*
X203982882Y-129507198D01*
X203982882Y-129507198D02*
X203887644Y-129554817D01*
X203887644Y-129554817D02*
X203744787Y-129554817D01*
X204411454Y-128888150D02*
X204601930Y-129554817D01*
X204601930Y-129554817D02*
X204792406Y-129078626D01*
X204792406Y-129078626D02*
X204982882Y-129554817D01*
X204982882Y-129554817D02*
X205173358Y-128888150D01*
X206316216Y-129554817D02*
X206316216Y-128554817D01*
X206316216Y-128554817D02*
X206554311Y-128554817D01*
X206554311Y-128554817D02*
X206697168Y-128602436D01*
X206697168Y-128602436D02*
X206792406Y-128697674D01*
X206792406Y-128697674D02*
X206840025Y-128792912D01*
X206840025Y-128792912D02*
X206887644Y-128983388D01*
X206887644Y-128983388D02*
X206887644Y-129126245D01*
X206887644Y-129126245D02*
X206840025Y-129316721D01*
X206840025Y-129316721D02*
X206792406Y-129411959D01*
X206792406Y-129411959D02*
X206697168Y-129507198D01*
X206697168Y-129507198D02*
X206554311Y-129554817D01*
X206554311Y-129554817D02*
X206316216Y-129554817D01*
X208459073Y-128792912D02*
X208459073Y-129554817D01*
X208649549Y-129364340D02*
X208459073Y-129554817D01*
X208459073Y-129554817D02*
X208268597Y-129364340D01*
X217173358Y-129554817D02*
X217173358Y-128792912D01*
X216982882Y-128983388D02*
X217173358Y-128792912D01*
X217173358Y-128792912D02*
X217363834Y-128983388D01*
X217363834Y-129364340D02*
X217173358Y-129554817D01*
X217173358Y-129554817D02*
X216982882Y-129364340D01*
X219316215Y-129554817D02*
X218744787Y-129554817D01*
X219030501Y-129554817D02*
X219030501Y-128554817D01*
X219030501Y-128554817D02*
X218935263Y-128697674D01*
X218935263Y-128697674D02*
X218840025Y-128792912D01*
X218840025Y-128792912D02*
X218744787Y-128840531D01*
X219935263Y-128554817D02*
X220030501Y-128554817D01*
X220030501Y-128554817D02*
X220125739Y-128602436D01*
X220125739Y-128602436D02*
X220173358Y-128650055D01*
X220173358Y-128650055D02*
X220220977Y-128745293D01*
X220220977Y-128745293D02*
X220268596Y-128935769D01*
X220268596Y-128935769D02*
X220268596Y-129173864D01*
X220268596Y-129173864D02*
X220220977Y-129364340D01*
X220220977Y-129364340D02*
X220173358Y-129459578D01*
X220173358Y-129459578D02*
X220125739Y-129507198D01*
X220125739Y-129507198D02*
X220030501Y-129554817D01*
X220030501Y-129554817D02*
X219935263Y-129554817D01*
X219935263Y-129554817D02*
X219840025Y-129507198D01*
X219840025Y-129507198D02*
X219792406Y-129459578D01*
X219792406Y-129459578D02*
X219744787Y-129364340D01*
X219744787Y-129364340D02*
X219697168Y-129173864D01*
X219697168Y-129173864D02*
X219697168Y-128935769D01*
X219697168Y-128935769D02*
X219744787Y-128745293D01*
X219744787Y-128745293D02*
X219792406Y-128650055D01*
X219792406Y-128650055D02*
X219840025Y-128602436D01*
X219840025Y-128602436D02*
X219935263Y-128554817D01*
X239197142Y-143939580D02*
X239149523Y-143987200D01*
X239149523Y-143987200D02*
X239006666Y-144034819D01*
X239006666Y-144034819D02*
X238911428Y-144034819D01*
X238911428Y-144034819D02*
X238768571Y-143987200D01*
X238768571Y-143987200D02*
X238673333Y-143891961D01*
X238673333Y-143891961D02*
X238625714Y-143796723D01*
X238625714Y-143796723D02*
X238578095Y-143606247D01*
X238578095Y-143606247D02*
X238578095Y-143463390D01*
X238578095Y-143463390D02*
X238625714Y-143272914D01*
X238625714Y-143272914D02*
X238673333Y-143177676D01*
X238673333Y-143177676D02*
X238768571Y-143082438D01*
X238768571Y-143082438D02*
X238911428Y-143034819D01*
X238911428Y-143034819D02*
X239006666Y-143034819D01*
X239006666Y-143034819D02*
X239149523Y-143082438D01*
X239149523Y-143082438D02*
X239197142Y-143130057D01*
X239578095Y-143130057D02*
X239625714Y-143082438D01*
X239625714Y-143082438D02*
X239720952Y-143034819D01*
X239720952Y-143034819D02*
X239959047Y-143034819D01*
X239959047Y-143034819D02*
X240054285Y-143082438D01*
X240054285Y-143082438D02*
X240101904Y-143130057D01*
X240101904Y-143130057D02*
X240149523Y-143225295D01*
X240149523Y-143225295D02*
X240149523Y-143320533D01*
X240149523Y-143320533D02*
X240101904Y-143463390D01*
X240101904Y-143463390D02*
X239530476Y-144034819D01*
X239530476Y-144034819D02*
X240149523Y-144034819D01*
X240482857Y-143034819D02*
X241101904Y-143034819D01*
X241101904Y-143034819D02*
X240768571Y-143415771D01*
X240768571Y-143415771D02*
X240911428Y-143415771D01*
X240911428Y-143415771D02*
X241006666Y-143463390D01*
X241006666Y-143463390D02*
X241054285Y-143511009D01*
X241054285Y-143511009D02*
X241101904Y-143606247D01*
X241101904Y-143606247D02*
X241101904Y-143844342D01*
X241101904Y-143844342D02*
X241054285Y-143939580D01*
X241054285Y-143939580D02*
X241006666Y-143987200D01*
X241006666Y-143987200D02*
X240911428Y-144034819D01*
X240911428Y-144034819D02*
X240625714Y-144034819D01*
X240625714Y-144034819D02*
X240530476Y-143987200D01*
X240530476Y-143987200D02*
X240482857Y-143939580D01*
X234432030Y-94679580D02*
X234384411Y-94727200D01*
X234384411Y-94727200D02*
X234241554Y-94774819D01*
X234241554Y-94774819D02*
X234146316Y-94774819D01*
X234146316Y-94774819D02*
X234003459Y-94727200D01*
X234003459Y-94727200D02*
X233908221Y-94631961D01*
X233908221Y-94631961D02*
X233860602Y-94536723D01*
X233860602Y-94536723D02*
X233812983Y-94346247D01*
X233812983Y-94346247D02*
X233812983Y-94203390D01*
X233812983Y-94203390D02*
X233860602Y-94012914D01*
X233860602Y-94012914D02*
X233908221Y-93917676D01*
X233908221Y-93917676D02*
X234003459Y-93822438D01*
X234003459Y-93822438D02*
X234146316Y-93774819D01*
X234146316Y-93774819D02*
X234241554Y-93774819D01*
X234241554Y-93774819D02*
X234384411Y-93822438D01*
X234384411Y-93822438D02*
X234432030Y-93870057D01*
X234812983Y-93870057D02*
X234860602Y-93822438D01*
X234860602Y-93822438D02*
X234955840Y-93774819D01*
X234955840Y-93774819D02*
X235193935Y-93774819D01*
X235193935Y-93774819D02*
X235289173Y-93822438D01*
X235289173Y-93822438D02*
X235336792Y-93870057D01*
X235336792Y-93870057D02*
X235384411Y-93965295D01*
X235384411Y-93965295D02*
X235384411Y-94060533D01*
X235384411Y-94060533D02*
X235336792Y-94203390D01*
X235336792Y-94203390D02*
X234765364Y-94774819D01*
X234765364Y-94774819D02*
X235384411Y-94774819D01*
X236003459Y-93774819D02*
X236098697Y-93774819D01*
X236098697Y-93774819D02*
X236193935Y-93822438D01*
X236193935Y-93822438D02*
X236241554Y-93870057D01*
X236241554Y-93870057D02*
X236289173Y-93965295D01*
X236289173Y-93965295D02*
X236336792Y-94155771D01*
X236336792Y-94155771D02*
X236336792Y-94393866D01*
X236336792Y-94393866D02*
X236289173Y-94584342D01*
X236289173Y-94584342D02*
X236241554Y-94679580D01*
X236241554Y-94679580D02*
X236193935Y-94727200D01*
X236193935Y-94727200D02*
X236098697Y-94774819D01*
X236098697Y-94774819D02*
X236003459Y-94774819D01*
X236003459Y-94774819D02*
X235908221Y-94727200D01*
X235908221Y-94727200D02*
X235860602Y-94679580D01*
X235860602Y-94679580D02*
X235812983Y-94584342D01*
X235812983Y-94584342D02*
X235765364Y-94393866D01*
X235765364Y-94393866D02*
X235765364Y-94155771D01*
X235765364Y-94155771D02*
X235812983Y-93965295D01*
X235812983Y-93965295D02*
X235860602Y-93870057D01*
X235860602Y-93870057D02*
X235908221Y-93822438D01*
X235908221Y-93822438D02*
X236003459Y-93774819D01*
G36*
X179854684Y-109730928D02*
G01*
X178104392Y-109730928D01*
X178104392Y-109530185D01*
X178215503Y-109530185D01*
X178215503Y-109559449D01*
X178226702Y-109586485D01*
X178247394Y-109607177D01*
X178274430Y-109618376D01*
X178289062Y-109619817D01*
X178384300Y-109619817D01*
X178391705Y-109619087D01*
X178393680Y-109619228D01*
X178396277Y-109618637D01*
X178398932Y-109618376D01*
X178400763Y-109617617D01*
X178408017Y-109615968D01*
X178550874Y-109568349D01*
X178564299Y-109562355D01*
X178566334Y-109560589D01*
X178568825Y-109559558D01*
X178580190Y-109550231D01*
X178675429Y-109454991D01*
X178684756Y-109443626D01*
X178685786Y-109441137D01*
X178687552Y-109439102D01*
X178693546Y-109425676D01*
X178741165Y-109282820D01*
X178742814Y-109275564D01*
X178743573Y-109273734D01*
X178743834Y-109271080D01*
X178744425Y-109268483D01*
X178744284Y-109266508D01*
X178745014Y-109259102D01*
X178745014Y-108821150D01*
X179024175Y-108821150D01*
X179026249Y-108850340D01*
X179039336Y-108876515D01*
X179061444Y-108895688D01*
X179089205Y-108904942D01*
X179118395Y-108902868D01*
X179132127Y-108897613D01*
X179227365Y-108849994D01*
X179233664Y-108846029D01*
X179235492Y-108845272D01*
X179237548Y-108843583D01*
X179239808Y-108842162D01*
X179241107Y-108840663D01*
X179246857Y-108835945D01*
X179309300Y-108773502D01*
X179309300Y-109469817D01*
X179098586Y-109469817D01*
X179083954Y-109471258D01*
X179056918Y-109482457D01*
X179036226Y-109503149D01*
X179025027Y-109530185D01*
X179025027Y-109559449D01*
X179036226Y-109586485D01*
X179056918Y-109607177D01*
X179083954Y-109618376D01*
X179098586Y-109619817D01*
X179670014Y-109619817D01*
X179684646Y-109618376D01*
X179711682Y-109607177D01*
X179732374Y-109586485D01*
X179743573Y-109559449D01*
X179743573Y-109530185D01*
X179732374Y-109503149D01*
X179711682Y-109482457D01*
X179684646Y-109471258D01*
X179670014Y-109469817D01*
X179459300Y-109469817D01*
X179459300Y-108544817D01*
X179459294Y-108544764D01*
X179459300Y-108544738D01*
X179459284Y-108544661D01*
X179457859Y-108530185D01*
X179455017Y-108523324D01*
X179453561Y-108516043D01*
X179449471Y-108509936D01*
X179446660Y-108503149D01*
X179441411Y-108497900D01*
X179437278Y-108491728D01*
X179431161Y-108487650D01*
X179425968Y-108482457D01*
X179419108Y-108479615D01*
X179412929Y-108475496D01*
X179405720Y-108474070D01*
X179398932Y-108471258D01*
X179391505Y-108471258D01*
X179384221Y-108469817D01*
X179377016Y-108471258D01*
X179369668Y-108471258D01*
X179362807Y-108474099D01*
X179355527Y-108475556D01*
X179349421Y-108479644D01*
X179342632Y-108482457D01*
X179337381Y-108487707D01*
X179331212Y-108491839D01*
X179321991Y-108503097D01*
X179321940Y-108503149D01*
X179321930Y-108503171D01*
X179321896Y-108503214D01*
X179230776Y-108639894D01*
X179149397Y-108721273D01*
X179065045Y-108763449D01*
X179052602Y-108771281D01*
X179033429Y-108793389D01*
X179024175Y-108821150D01*
X178745014Y-108821150D01*
X178745014Y-108544817D01*
X178743573Y-108530185D01*
X178732374Y-108503149D01*
X178711682Y-108482457D01*
X178684646Y-108471258D01*
X178655382Y-108471258D01*
X178628346Y-108482457D01*
X178607654Y-108503149D01*
X178596455Y-108530185D01*
X178595014Y-108544817D01*
X178595014Y-109246932D01*
X178556842Y-109361445D01*
X178486643Y-109431645D01*
X178372130Y-109469817D01*
X178289062Y-109469817D01*
X178274430Y-109471258D01*
X178247394Y-109482457D01*
X178226702Y-109503149D01*
X178215503Y-109530185D01*
X178104392Y-109530185D01*
X178104392Y-108358706D01*
X179854684Y-108358706D01*
X179854684Y-109730928D01*
G37*
X108039047Y-109804819D02*
X108039047Y-109042914D01*
X107848571Y-109233390D02*
X108039047Y-109042914D01*
X108039047Y-109042914D02*
X108229523Y-109233390D01*
X109467618Y-109804819D02*
X109134285Y-109328628D01*
X108896190Y-109804819D02*
X108896190Y-108804819D01*
X108896190Y-108804819D02*
X109277142Y-108804819D01*
X109277142Y-108804819D02*
X109372380Y-108852438D01*
X109372380Y-108852438D02*
X109419999Y-108900057D01*
X109419999Y-108900057D02*
X109467618Y-108995295D01*
X109467618Y-108995295D02*
X109467618Y-109138152D01*
X109467618Y-109138152D02*
X109419999Y-109233390D01*
X109419999Y-109233390D02*
X109372380Y-109281009D01*
X109372380Y-109281009D02*
X109277142Y-109328628D01*
X109277142Y-109328628D02*
X108896190Y-109328628D01*
X110039047Y-109804819D02*
X109943809Y-109757200D01*
X109943809Y-109757200D02*
X109896190Y-109709580D01*
X109896190Y-109709580D02*
X109848571Y-109614342D01*
X109848571Y-109614342D02*
X109848571Y-109328628D01*
X109848571Y-109328628D02*
X109896190Y-109233390D01*
X109896190Y-109233390D02*
X109943809Y-109185771D01*
X109943809Y-109185771D02*
X110039047Y-109138152D01*
X110039047Y-109138152D02*
X110181904Y-109138152D01*
X110181904Y-109138152D02*
X110277142Y-109185771D01*
X110277142Y-109185771D02*
X110324761Y-109233390D01*
X110324761Y-109233390D02*
X110372380Y-109328628D01*
X110372380Y-109328628D02*
X110372380Y-109614342D01*
X110372380Y-109614342D02*
X110324761Y-109709580D01*
X110324761Y-109709580D02*
X110277142Y-109757200D01*
X110277142Y-109757200D02*
X110181904Y-109804819D01*
X110181904Y-109804819D02*
X110039047Y-109804819D01*
X110705714Y-109138152D02*
X110896190Y-109804819D01*
X110896190Y-109804819D02*
X111086666Y-109328628D01*
X111086666Y-109328628D02*
X111277142Y-109804819D01*
X111277142Y-109804819D02*
X111467618Y-109138152D01*
X112562857Y-109519104D02*
X113039047Y-109519104D01*
X112467619Y-109804819D02*
X112800952Y-108804819D01*
X112800952Y-108804819D02*
X113134285Y-109804819D01*
X114467619Y-110138152D02*
X114467619Y-108709580D01*
X116515238Y-109804819D02*
X116181905Y-109328628D01*
X115943810Y-109804819D02*
X115943810Y-108804819D01*
X115943810Y-108804819D02*
X116324762Y-108804819D01*
X116324762Y-108804819D02*
X116420000Y-108852438D01*
X116420000Y-108852438D02*
X116467619Y-108900057D01*
X116467619Y-108900057D02*
X116515238Y-108995295D01*
X116515238Y-108995295D02*
X116515238Y-109138152D01*
X116515238Y-109138152D02*
X116467619Y-109233390D01*
X116467619Y-109233390D02*
X116420000Y-109281009D01*
X116420000Y-109281009D02*
X116324762Y-109328628D01*
X116324762Y-109328628D02*
X115943810Y-109328628D01*
X117086667Y-109804819D02*
X116991429Y-109757200D01*
X116991429Y-109757200D02*
X116943810Y-109709580D01*
X116943810Y-109709580D02*
X116896191Y-109614342D01*
X116896191Y-109614342D02*
X116896191Y-109328628D01*
X116896191Y-109328628D02*
X116943810Y-109233390D01*
X116943810Y-109233390D02*
X116991429Y-109185771D01*
X116991429Y-109185771D02*
X117086667Y-109138152D01*
X117086667Y-109138152D02*
X117229524Y-109138152D01*
X117229524Y-109138152D02*
X117324762Y-109185771D01*
X117324762Y-109185771D02*
X117372381Y-109233390D01*
X117372381Y-109233390D02*
X117420000Y-109328628D01*
X117420000Y-109328628D02*
X117420000Y-109614342D01*
X117420000Y-109614342D02*
X117372381Y-109709580D01*
X117372381Y-109709580D02*
X117324762Y-109757200D01*
X117324762Y-109757200D02*
X117229524Y-109804819D01*
X117229524Y-109804819D02*
X117086667Y-109804819D01*
X117753334Y-109138152D02*
X117943810Y-109804819D01*
X117943810Y-109804819D02*
X118134286Y-109328628D01*
X118134286Y-109328628D02*
X118324762Y-109804819D01*
X118324762Y-109804819D02*
X118515238Y-109138152D01*
X119991429Y-109281009D02*
X120134286Y-109328628D01*
X120134286Y-109328628D02*
X120181905Y-109376247D01*
X120181905Y-109376247D02*
X120229524Y-109471485D01*
X120229524Y-109471485D02*
X120229524Y-109614342D01*
X120229524Y-109614342D02*
X120181905Y-109709580D01*
X120181905Y-109709580D02*
X120134286Y-109757200D01*
X120134286Y-109757200D02*
X120039048Y-109804819D01*
X120039048Y-109804819D02*
X119658096Y-109804819D01*
X119658096Y-109804819D02*
X119658096Y-108804819D01*
X119658096Y-108804819D02*
X119991429Y-108804819D01*
X119991429Y-108804819D02*
X120086667Y-108852438D01*
X120086667Y-108852438D02*
X120134286Y-108900057D01*
X120134286Y-108900057D02*
X120181905Y-108995295D01*
X120181905Y-108995295D02*
X120181905Y-109090533D01*
X120181905Y-109090533D02*
X120134286Y-109185771D01*
X120134286Y-109185771D02*
X120086667Y-109233390D01*
X120086667Y-109233390D02*
X119991429Y-109281009D01*
X119991429Y-109281009D02*
X119658096Y-109281009D01*
X121800953Y-109042914D02*
X121800953Y-109804819D01*
X121991429Y-109614342D02*
X121800953Y-109804819D01*
X121800953Y-109804819D02*
X121610477Y-109614342D01*
X130670014Y-109544817D02*
X130670014Y-108782912D01*
X130479538Y-108973388D02*
X130670014Y-108782912D01*
X130670014Y-108782912D02*
X130860490Y-108973388D01*
X130860490Y-109354340D02*
X130670014Y-109544817D01*
X130670014Y-109544817D02*
X130479538Y-109354340D01*
X132812871Y-109544817D02*
X132241443Y-109544817D01*
X132527157Y-109544817D02*
X132527157Y-108544817D01*
X132527157Y-108544817D02*
X132431919Y-108687674D01*
X132431919Y-108687674D02*
X132336681Y-108782912D01*
X132336681Y-108782912D02*
X132241443Y-108830531D01*
X133431919Y-108544817D02*
X133527157Y-108544817D01*
X133527157Y-108544817D02*
X133622395Y-108592436D01*
X133622395Y-108592436D02*
X133670014Y-108640055D01*
X133670014Y-108640055D02*
X133717633Y-108735293D01*
X133717633Y-108735293D02*
X133765252Y-108925769D01*
X133765252Y-108925769D02*
X133765252Y-109163864D01*
X133765252Y-109163864D02*
X133717633Y-109354340D01*
X133717633Y-109354340D02*
X133670014Y-109449578D01*
X133670014Y-109449578D02*
X133622395Y-109497198D01*
X133622395Y-109497198D02*
X133527157Y-109544817D01*
X133527157Y-109544817D02*
X133431919Y-109544817D01*
X133431919Y-109544817D02*
X133336681Y-109497198D01*
X133336681Y-109497198D02*
X133289062Y-109449578D01*
X133289062Y-109449578D02*
X133241443Y-109354340D01*
X133241443Y-109354340D02*
X133193824Y-109163864D01*
X133193824Y-109163864D02*
X133193824Y-108925769D01*
X133193824Y-108925769D02*
X133241443Y-108735293D01*
X133241443Y-108735293D02*
X133289062Y-108640055D01*
X133289062Y-108640055D02*
X133336681Y-108592436D01*
X133336681Y-108592436D02*
X133431919Y-108544817D01*
X156170014Y-109544817D02*
X156170014Y-108782912D01*
X155979538Y-108973388D02*
X156170014Y-108782912D01*
X156170014Y-108782912D02*
X156360490Y-108973388D01*
X156360490Y-109354340D02*
X156170014Y-109544817D01*
X156170014Y-109544817D02*
X155979538Y-109354340D01*
X157741443Y-108640055D02*
X157789062Y-108592436D01*
X157789062Y-108592436D02*
X157884300Y-108544817D01*
X157884300Y-108544817D02*
X158122395Y-108544817D01*
X158122395Y-108544817D02*
X158217633Y-108592436D01*
X158217633Y-108592436D02*
X158265252Y-108640055D01*
X158265252Y-108640055D02*
X158312871Y-108735293D01*
X158312871Y-108735293D02*
X158312871Y-108830531D01*
X158312871Y-108830531D02*
X158265252Y-108973388D01*
X158265252Y-108973388D02*
X157693824Y-109544817D01*
X157693824Y-109544817D02*
X158312871Y-109544817D01*
X158931919Y-108544817D02*
X159027157Y-108544817D01*
X159027157Y-108544817D02*
X159122395Y-108592436D01*
X159122395Y-108592436D02*
X159170014Y-108640055D01*
X159170014Y-108640055D02*
X159217633Y-108735293D01*
X159217633Y-108735293D02*
X159265252Y-108925769D01*
X159265252Y-108925769D02*
X159265252Y-109163864D01*
X159265252Y-109163864D02*
X159217633Y-109354340D01*
X159217633Y-109354340D02*
X159170014Y-109449578D01*
X159170014Y-109449578D02*
X159122395Y-109497198D01*
X159122395Y-109497198D02*
X159027157Y-109544817D01*
X159027157Y-109544817D02*
X158931919Y-109544817D01*
X158931919Y-109544817D02*
X158836681Y-109497198D01*
X158836681Y-109497198D02*
X158789062Y-109449578D01*
X158789062Y-109449578D02*
X158741443Y-109354340D01*
X158741443Y-109354340D02*
X158693824Y-109163864D01*
X158693824Y-109163864D02*
X158693824Y-108925769D01*
X158693824Y-108925769D02*
X158741443Y-108735293D01*
X158741443Y-108735293D02*
X158789062Y-108640055D01*
X158789062Y-108640055D02*
X158836681Y-108592436D01*
X158836681Y-108592436D02*
X158931919Y-108544817D01*
X194550966Y-109544817D02*
X194550966Y-108782912D01*
X194360490Y-108973388D02*
X194550966Y-108782912D01*
X194550966Y-108782912D02*
X194741442Y-108973388D01*
X195979537Y-109544817D02*
X195646204Y-109068626D01*
X195408109Y-109544817D02*
X195408109Y-108544817D01*
X195408109Y-108544817D02*
X195789061Y-108544817D01*
X195789061Y-108544817D02*
X195884299Y-108592436D01*
X195884299Y-108592436D02*
X195931918Y-108640055D01*
X195931918Y-108640055D02*
X195979537Y-108735293D01*
X195979537Y-108735293D02*
X195979537Y-108878150D01*
X195979537Y-108878150D02*
X195931918Y-108973388D01*
X195931918Y-108973388D02*
X195884299Y-109021007D01*
X195884299Y-109021007D02*
X195789061Y-109068626D01*
X195789061Y-109068626D02*
X195408109Y-109068626D01*
X196550966Y-109544817D02*
X196455728Y-109497198D01*
X196455728Y-109497198D02*
X196408109Y-109449578D01*
X196408109Y-109449578D02*
X196360490Y-109354340D01*
X196360490Y-109354340D02*
X196360490Y-109068626D01*
X196360490Y-109068626D02*
X196408109Y-108973388D01*
X196408109Y-108973388D02*
X196455728Y-108925769D01*
X196455728Y-108925769D02*
X196550966Y-108878150D01*
X196550966Y-108878150D02*
X196693823Y-108878150D01*
X196693823Y-108878150D02*
X196789061Y-108925769D01*
X196789061Y-108925769D02*
X196836680Y-108973388D01*
X196836680Y-108973388D02*
X196884299Y-109068626D01*
X196884299Y-109068626D02*
X196884299Y-109354340D01*
X196884299Y-109354340D02*
X196836680Y-109449578D01*
X196836680Y-109449578D02*
X196789061Y-109497198D01*
X196789061Y-109497198D02*
X196693823Y-109544817D01*
X196693823Y-109544817D02*
X196550966Y-109544817D01*
X197217633Y-108878150D02*
X197408109Y-109544817D01*
X197408109Y-109544817D02*
X197598585Y-109068626D01*
X197598585Y-109068626D02*
X197789061Y-109544817D01*
X197789061Y-109544817D02*
X197979537Y-108878150D01*
X199693823Y-109449578D02*
X199646204Y-109497198D01*
X199646204Y-109497198D02*
X199503347Y-109544817D01*
X199503347Y-109544817D02*
X199408109Y-109544817D01*
X199408109Y-109544817D02*
X199265252Y-109497198D01*
X199265252Y-109497198D02*
X199170014Y-109401959D01*
X199170014Y-109401959D02*
X199122395Y-109306721D01*
X199122395Y-109306721D02*
X199074776Y-109116245D01*
X199074776Y-109116245D02*
X199074776Y-108973388D01*
X199074776Y-108973388D02*
X199122395Y-108782912D01*
X199122395Y-108782912D02*
X199170014Y-108687674D01*
X199170014Y-108687674D02*
X199265252Y-108592436D01*
X199265252Y-108592436D02*
X199408109Y-108544817D01*
X199408109Y-108544817D02*
X199503347Y-108544817D01*
X199503347Y-108544817D02*
X199646204Y-108592436D01*
X199646204Y-108592436D02*
X199693823Y-108640055D01*
X201122395Y-109878150D02*
X201122395Y-108449578D01*
X203170014Y-109544817D02*
X202836681Y-109068626D01*
X202598586Y-109544817D02*
X202598586Y-108544817D01*
X202598586Y-108544817D02*
X202979538Y-108544817D01*
X202979538Y-108544817D02*
X203074776Y-108592436D01*
X203074776Y-108592436D02*
X203122395Y-108640055D01*
X203122395Y-108640055D02*
X203170014Y-108735293D01*
X203170014Y-108735293D02*
X203170014Y-108878150D01*
X203170014Y-108878150D02*
X203122395Y-108973388D01*
X203122395Y-108973388D02*
X203074776Y-109021007D01*
X203074776Y-109021007D02*
X202979538Y-109068626D01*
X202979538Y-109068626D02*
X202598586Y-109068626D01*
X203741443Y-109544817D02*
X203646205Y-109497198D01*
X203646205Y-109497198D02*
X203598586Y-109449578D01*
X203598586Y-109449578D02*
X203550967Y-109354340D01*
X203550967Y-109354340D02*
X203550967Y-109068626D01*
X203550967Y-109068626D02*
X203598586Y-108973388D01*
X203598586Y-108973388D02*
X203646205Y-108925769D01*
X203646205Y-108925769D02*
X203741443Y-108878150D01*
X203741443Y-108878150D02*
X203884300Y-108878150D01*
X203884300Y-108878150D02*
X203979538Y-108925769D01*
X203979538Y-108925769D02*
X204027157Y-108973388D01*
X204027157Y-108973388D02*
X204074776Y-109068626D01*
X204074776Y-109068626D02*
X204074776Y-109354340D01*
X204074776Y-109354340D02*
X204027157Y-109449578D01*
X204027157Y-109449578D02*
X203979538Y-109497198D01*
X203979538Y-109497198D02*
X203884300Y-109544817D01*
X203884300Y-109544817D02*
X203741443Y-109544817D01*
X204408110Y-108878150D02*
X204598586Y-109544817D01*
X204598586Y-109544817D02*
X204789062Y-109068626D01*
X204789062Y-109068626D02*
X204979538Y-109544817D01*
X204979538Y-109544817D02*
X205170014Y-108878150D01*
X206312872Y-109544817D02*
X206312872Y-108544817D01*
X206312872Y-108544817D02*
X206550967Y-108544817D01*
X206550967Y-108544817D02*
X206693824Y-108592436D01*
X206693824Y-108592436D02*
X206789062Y-108687674D01*
X206789062Y-108687674D02*
X206836681Y-108782912D01*
X206836681Y-108782912D02*
X206884300Y-108973388D01*
X206884300Y-108973388D02*
X206884300Y-109116245D01*
X206884300Y-109116245D02*
X206836681Y-109306721D01*
X206836681Y-109306721D02*
X206789062Y-109401959D01*
X206789062Y-109401959D02*
X206693824Y-109497198D01*
X206693824Y-109497198D02*
X206550967Y-109544817D01*
X206550967Y-109544817D02*
X206312872Y-109544817D01*
X208455729Y-108782912D02*
X208455729Y-109544817D01*
X208646205Y-109354340D02*
X208455729Y-109544817D01*
X208455729Y-109544817D02*
X208265253Y-109354340D01*
X217170014Y-109544817D02*
X217170014Y-108782912D01*
X216979538Y-108973388D02*
X217170014Y-108782912D01*
X217170014Y-108782912D02*
X217360490Y-108973388D01*
X217360490Y-109354340D02*
X217170014Y-109544817D01*
X217170014Y-109544817D02*
X216979538Y-109354340D01*
X219312871Y-109544817D02*
X218741443Y-109544817D01*
X219027157Y-109544817D02*
X219027157Y-108544817D01*
X219027157Y-108544817D02*
X218931919Y-108687674D01*
X218931919Y-108687674D02*
X218836681Y-108782912D01*
X218836681Y-108782912D02*
X218741443Y-108830531D01*
X219931919Y-108544817D02*
X220027157Y-108544817D01*
X220027157Y-108544817D02*
X220122395Y-108592436D01*
X220122395Y-108592436D02*
X220170014Y-108640055D01*
X220170014Y-108640055D02*
X220217633Y-108735293D01*
X220217633Y-108735293D02*
X220265252Y-108925769D01*
X220265252Y-108925769D02*
X220265252Y-109163864D01*
X220265252Y-109163864D02*
X220217633Y-109354340D01*
X220217633Y-109354340D02*
X220170014Y-109449578D01*
X220170014Y-109449578D02*
X220122395Y-109497198D01*
X220122395Y-109497198D02*
X220027157Y-109544817D01*
X220027157Y-109544817D02*
X219931919Y-109544817D01*
X219931919Y-109544817D02*
X219836681Y-109497198D01*
X219836681Y-109497198D02*
X219789062Y-109449578D01*
X219789062Y-109449578D02*
X219741443Y-109354340D01*
X219741443Y-109354340D02*
X219693824Y-109163864D01*
X219693824Y-109163864D02*
X219693824Y-108925769D01*
X219693824Y-108925769D02*
X219741443Y-108735293D01*
X219741443Y-108735293D02*
X219789062Y-108640055D01*
X219789062Y-108640055D02*
X219836681Y-108592436D01*
X219836681Y-108592436D02*
X219931919Y-108544817D01*
X103553333Y-93139580D02*
X103505714Y-93187200D01*
X103505714Y-93187200D02*
X103362857Y-93234819D01*
X103362857Y-93234819D02*
X103267619Y-93234819D01*
X103267619Y-93234819D02*
X103124762Y-93187200D01*
X103124762Y-93187200D02*
X103029524Y-93091961D01*
X103029524Y-93091961D02*
X102981905Y-92996723D01*
X102981905Y-92996723D02*
X102934286Y-92806247D01*
X102934286Y-92806247D02*
X102934286Y-92663390D01*
X102934286Y-92663390D02*
X102981905Y-92472914D01*
X102981905Y-92472914D02*
X103029524Y-92377676D01*
X103029524Y-92377676D02*
X103124762Y-92282438D01*
X103124762Y-92282438D02*
X103267619Y-92234819D01*
X103267619Y-92234819D02*
X103362857Y-92234819D01*
X103362857Y-92234819D02*
X103505714Y-92282438D01*
X103505714Y-92282438D02*
X103553333Y-92330057D01*
X103886667Y-92234819D02*
X104505714Y-92234819D01*
X104505714Y-92234819D02*
X104172381Y-92615771D01*
X104172381Y-92615771D02*
X104315238Y-92615771D01*
X104315238Y-92615771D02*
X104410476Y-92663390D01*
X104410476Y-92663390D02*
X104458095Y-92711009D01*
X104458095Y-92711009D02*
X104505714Y-92806247D01*
X104505714Y-92806247D02*
X104505714Y-93044342D01*
X104505714Y-93044342D02*
X104458095Y-93139580D01*
X104458095Y-93139580D02*
X104410476Y-93187200D01*
X104410476Y-93187200D02*
X104315238Y-93234819D01*
X104315238Y-93234819D02*
X104029524Y-93234819D01*
X104029524Y-93234819D02*
X103934286Y-93187200D01*
X103934286Y-93187200D02*
X103886667Y-93139580D01*
X183807142Y-128669580D02*
X183759523Y-128717200D01*
X183759523Y-128717200D02*
X183616666Y-128764819D01*
X183616666Y-128764819D02*
X183521428Y-128764819D01*
X183521428Y-128764819D02*
X183378571Y-128717200D01*
X183378571Y-128717200D02*
X183283333Y-128621961D01*
X183283333Y-128621961D02*
X183235714Y-128526723D01*
X183235714Y-128526723D02*
X183188095Y-128336247D01*
X183188095Y-128336247D02*
X183188095Y-128193390D01*
X183188095Y-128193390D02*
X183235714Y-128002914D01*
X183235714Y-128002914D02*
X183283333Y-127907676D01*
X183283333Y-127907676D02*
X183378571Y-127812438D01*
X183378571Y-127812438D02*
X183521428Y-127764819D01*
X183521428Y-127764819D02*
X183616666Y-127764819D01*
X183616666Y-127764819D02*
X183759523Y-127812438D01*
X183759523Y-127812438D02*
X183807142Y-127860057D01*
X184759523Y-128764819D02*
X184188095Y-128764819D01*
X184473809Y-128764819D02*
X184473809Y-127764819D01*
X184473809Y-127764819D02*
X184378571Y-127907676D01*
X184378571Y-127907676D02*
X184283333Y-128002914D01*
X184283333Y-128002914D02*
X184188095Y-128050533D01*
X185616666Y-128098152D02*
X185616666Y-128764819D01*
X185378571Y-127717200D02*
X185140476Y-128431485D01*
X185140476Y-128431485D02*
X185759523Y-128431485D01*
X189397142Y-114359580D02*
X189349523Y-114407200D01*
X189349523Y-114407200D02*
X189206666Y-114454819D01*
X189206666Y-114454819D02*
X189111428Y-114454819D01*
X189111428Y-114454819D02*
X188968571Y-114407200D01*
X188968571Y-114407200D02*
X188873333Y-114311961D01*
X188873333Y-114311961D02*
X188825714Y-114216723D01*
X188825714Y-114216723D02*
X188778095Y-114026247D01*
X188778095Y-114026247D02*
X188778095Y-113883390D01*
X188778095Y-113883390D02*
X188825714Y-113692914D01*
X188825714Y-113692914D02*
X188873333Y-113597676D01*
X188873333Y-113597676D02*
X188968571Y-113502438D01*
X188968571Y-113502438D02*
X189111428Y-113454819D01*
X189111428Y-113454819D02*
X189206666Y-113454819D01*
X189206666Y-113454819D02*
X189349523Y-113502438D01*
X189349523Y-113502438D02*
X189397142Y-113550057D01*
X190349523Y-114454819D02*
X189778095Y-114454819D01*
X190063809Y-114454819D02*
X190063809Y-113454819D01*
X190063809Y-113454819D02*
X189968571Y-113597676D01*
X189968571Y-113597676D02*
X189873333Y-113692914D01*
X189873333Y-113692914D02*
X189778095Y-113740533D01*
X191254285Y-113454819D02*
X190778095Y-113454819D01*
X190778095Y-113454819D02*
X190730476Y-113931009D01*
X190730476Y-113931009D02*
X190778095Y-113883390D01*
X190778095Y-113883390D02*
X190873333Y-113835771D01*
X190873333Y-113835771D02*
X191111428Y-113835771D01*
X191111428Y-113835771D02*
X191206666Y-113883390D01*
X191206666Y-113883390D02*
X191254285Y-113931009D01*
X191254285Y-113931009D02*
X191301904Y-114026247D01*
X191301904Y-114026247D02*
X191301904Y-114264342D01*
X191301904Y-114264342D02*
X191254285Y-114359580D01*
X191254285Y-114359580D02*
X191206666Y-114407200D01*
X191206666Y-114407200D02*
X191111428Y-114454819D01*
X191111428Y-114454819D02*
X190873333Y-114454819D01*
X190873333Y-114454819D02*
X190778095Y-114407200D01*
X190778095Y-114407200D02*
X190730476Y-114359580D01*
X121967142Y-87359580D02*
X121919523Y-87407200D01*
X121919523Y-87407200D02*
X121776666Y-87454819D01*
X121776666Y-87454819D02*
X121681428Y-87454819D01*
X121681428Y-87454819D02*
X121538571Y-87407200D01*
X121538571Y-87407200D02*
X121443333Y-87311961D01*
X121443333Y-87311961D02*
X121395714Y-87216723D01*
X121395714Y-87216723D02*
X121348095Y-87026247D01*
X121348095Y-87026247D02*
X121348095Y-86883390D01*
X121348095Y-86883390D02*
X121395714Y-86692914D01*
X121395714Y-86692914D02*
X121443333Y-86597676D01*
X121443333Y-86597676D02*
X121538571Y-86502438D01*
X121538571Y-86502438D02*
X121681428Y-86454819D01*
X121681428Y-86454819D02*
X121776666Y-86454819D01*
X121776666Y-86454819D02*
X121919523Y-86502438D01*
X121919523Y-86502438D02*
X121967142Y-86550057D01*
X122919523Y-87454819D02*
X122348095Y-87454819D01*
X122633809Y-87454819D02*
X122633809Y-86454819D01*
X122633809Y-86454819D02*
X122538571Y-86597676D01*
X122538571Y-86597676D02*
X122443333Y-86692914D01*
X122443333Y-86692914D02*
X122348095Y-86740533D01*
X123538571Y-86454819D02*
X123633809Y-86454819D01*
X123633809Y-86454819D02*
X123729047Y-86502438D01*
X123729047Y-86502438D02*
X123776666Y-86550057D01*
X123776666Y-86550057D02*
X123824285Y-86645295D01*
X123824285Y-86645295D02*
X123871904Y-86835771D01*
X123871904Y-86835771D02*
X123871904Y-87073866D01*
X123871904Y-87073866D02*
X123824285Y-87264342D01*
X123824285Y-87264342D02*
X123776666Y-87359580D01*
X123776666Y-87359580D02*
X123729047Y-87407200D01*
X123729047Y-87407200D02*
X123633809Y-87454819D01*
X123633809Y-87454819D02*
X123538571Y-87454819D01*
X123538571Y-87454819D02*
X123443333Y-87407200D01*
X123443333Y-87407200D02*
X123395714Y-87359580D01*
X123395714Y-87359580D02*
X123348095Y-87264342D01*
X123348095Y-87264342D02*
X123300476Y-87073866D01*
X123300476Y-87073866D02*
X123300476Y-86835771D01*
X123300476Y-86835771D02*
X123348095Y-86645295D01*
X123348095Y-86645295D02*
X123395714Y-86550057D01*
X123395714Y-86550057D02*
X123443333Y-86502438D01*
X123443333Y-86502438D02*
X123538571Y-86454819D01*
X185257142Y-96199580D02*
X185209523Y-96247200D01*
X185209523Y-96247200D02*
X185066666Y-96294819D01*
X185066666Y-96294819D02*
X184971428Y-96294819D01*
X184971428Y-96294819D02*
X184828571Y-96247200D01*
X184828571Y-96247200D02*
X184733333Y-96151961D01*
X184733333Y-96151961D02*
X184685714Y-96056723D01*
X184685714Y-96056723D02*
X184638095Y-95866247D01*
X184638095Y-95866247D02*
X184638095Y-95723390D01*
X184638095Y-95723390D02*
X184685714Y-95532914D01*
X184685714Y-95532914D02*
X184733333Y-95437676D01*
X184733333Y-95437676D02*
X184828571Y-95342438D01*
X184828571Y-95342438D02*
X184971428Y-95294819D01*
X184971428Y-95294819D02*
X185066666Y-95294819D01*
X185066666Y-95294819D02*
X185209523Y-95342438D01*
X185209523Y-95342438D02*
X185257142Y-95390057D01*
X186209523Y-96294819D02*
X185638095Y-96294819D01*
X185923809Y-96294819D02*
X185923809Y-95294819D01*
X185923809Y-95294819D02*
X185828571Y-95437676D01*
X185828571Y-95437676D02*
X185733333Y-95532914D01*
X185733333Y-95532914D02*
X185638095Y-95580533D01*
X186542857Y-95294819D02*
X187209523Y-95294819D01*
X187209523Y-95294819D02*
X186780952Y-96294819D01*
X98573333Y-142069580D02*
X98525714Y-142117200D01*
X98525714Y-142117200D02*
X98382857Y-142164819D01*
X98382857Y-142164819D02*
X98287619Y-142164819D01*
X98287619Y-142164819D02*
X98144762Y-142117200D01*
X98144762Y-142117200D02*
X98049524Y-142021961D01*
X98049524Y-142021961D02*
X98001905Y-141926723D01*
X98001905Y-141926723D02*
X97954286Y-141736247D01*
X97954286Y-141736247D02*
X97954286Y-141593390D01*
X97954286Y-141593390D02*
X98001905Y-141402914D01*
X98001905Y-141402914D02*
X98049524Y-141307676D01*
X98049524Y-141307676D02*
X98144762Y-141212438D01*
X98144762Y-141212438D02*
X98287619Y-141164819D01*
X98287619Y-141164819D02*
X98382857Y-141164819D01*
X98382857Y-141164819D02*
X98525714Y-141212438D01*
X98525714Y-141212438D02*
X98573333Y-141260057D01*
X99525714Y-142164819D02*
X98954286Y-142164819D01*
X99240000Y-142164819D02*
X99240000Y-141164819D01*
X99240000Y-141164819D02*
X99144762Y-141307676D01*
X99144762Y-141307676D02*
X99049524Y-141402914D01*
X99049524Y-141402914D02*
X98954286Y-141450533D01*
X176587142Y-97449580D02*
X176539523Y-97497200D01*
X176539523Y-97497200D02*
X176396666Y-97544819D01*
X176396666Y-97544819D02*
X176301428Y-97544819D01*
X176301428Y-97544819D02*
X176158571Y-97497200D01*
X176158571Y-97497200D02*
X176063333Y-97401961D01*
X176063333Y-97401961D02*
X176015714Y-97306723D01*
X176015714Y-97306723D02*
X175968095Y-97116247D01*
X175968095Y-97116247D02*
X175968095Y-96973390D01*
X175968095Y-96973390D02*
X176015714Y-96782914D01*
X176015714Y-96782914D02*
X176063333Y-96687676D01*
X176063333Y-96687676D02*
X176158571Y-96592438D01*
X176158571Y-96592438D02*
X176301428Y-96544819D01*
X176301428Y-96544819D02*
X176396666Y-96544819D01*
X176396666Y-96544819D02*
X176539523Y-96592438D01*
X176539523Y-96592438D02*
X176587142Y-96640057D01*
X177539523Y-97544819D02*
X176968095Y-97544819D01*
X177253809Y-97544819D02*
X177253809Y-96544819D01*
X177253809Y-96544819D02*
X177158571Y-96687676D01*
X177158571Y-96687676D02*
X177063333Y-96782914D01*
X177063333Y-96782914D02*
X176968095Y-96830533D01*
X178396666Y-96544819D02*
X178206190Y-96544819D01*
X178206190Y-96544819D02*
X178110952Y-96592438D01*
X178110952Y-96592438D02*
X178063333Y-96640057D01*
X178063333Y-96640057D02*
X177968095Y-96782914D01*
X177968095Y-96782914D02*
X177920476Y-96973390D01*
X177920476Y-96973390D02*
X177920476Y-97354342D01*
X177920476Y-97354342D02*
X177968095Y-97449580D01*
X177968095Y-97449580D02*
X178015714Y-97497200D01*
X178015714Y-97497200D02*
X178110952Y-97544819D01*
X178110952Y-97544819D02*
X178301428Y-97544819D01*
X178301428Y-97544819D02*
X178396666Y-97497200D01*
X178396666Y-97497200D02*
X178444285Y-97449580D01*
X178444285Y-97449580D02*
X178491904Y-97354342D01*
X178491904Y-97354342D02*
X178491904Y-97116247D01*
X178491904Y-97116247D02*
X178444285Y-97021009D01*
X178444285Y-97021009D02*
X178396666Y-96973390D01*
X178396666Y-96973390D02*
X178301428Y-96925771D01*
X178301428Y-96925771D02*
X178110952Y-96925771D01*
X178110952Y-96925771D02*
X178015714Y-96973390D01*
X178015714Y-96973390D02*
X177968095Y-97021009D01*
X177968095Y-97021009D02*
X177920476Y-97116247D01*
X241457142Y-117169580D02*
X241409523Y-117217200D01*
X241409523Y-117217200D02*
X241266666Y-117264819D01*
X241266666Y-117264819D02*
X241171428Y-117264819D01*
X241171428Y-117264819D02*
X241028571Y-117217200D01*
X241028571Y-117217200D02*
X240933333Y-117121961D01*
X240933333Y-117121961D02*
X240885714Y-117026723D01*
X240885714Y-117026723D02*
X240838095Y-116836247D01*
X240838095Y-116836247D02*
X240838095Y-116693390D01*
X240838095Y-116693390D02*
X240885714Y-116502914D01*
X240885714Y-116502914D02*
X240933333Y-116407676D01*
X240933333Y-116407676D02*
X241028571Y-116312438D01*
X241028571Y-116312438D02*
X241171428Y-116264819D01*
X241171428Y-116264819D02*
X241266666Y-116264819D01*
X241266666Y-116264819D02*
X241409523Y-116312438D01*
X241409523Y-116312438D02*
X241457142Y-116360057D01*
X242409523Y-117264819D02*
X241838095Y-117264819D01*
X242123809Y-117264819D02*
X242123809Y-116264819D01*
X242123809Y-116264819D02*
X242028571Y-116407676D01*
X242028571Y-116407676D02*
X241933333Y-116502914D01*
X241933333Y-116502914D02*
X241838095Y-116550533D01*
X242885714Y-117264819D02*
X243076190Y-117264819D01*
X243076190Y-117264819D02*
X243171428Y-117217200D01*
X243171428Y-117217200D02*
X243219047Y-117169580D01*
X243219047Y-117169580D02*
X243314285Y-117026723D01*
X243314285Y-117026723D02*
X243361904Y-116836247D01*
X243361904Y-116836247D02*
X243361904Y-116455295D01*
X243361904Y-116455295D02*
X243314285Y-116360057D01*
X243314285Y-116360057D02*
X243266666Y-116312438D01*
X243266666Y-116312438D02*
X243171428Y-116264819D01*
X243171428Y-116264819D02*
X242980952Y-116264819D01*
X242980952Y-116264819D02*
X242885714Y-116312438D01*
X242885714Y-116312438D02*
X242838095Y-116360057D01*
X242838095Y-116360057D02*
X242790476Y-116455295D01*
X242790476Y-116455295D02*
X242790476Y-116693390D01*
X242790476Y-116693390D02*
X242838095Y-116788628D01*
X242838095Y-116788628D02*
X242885714Y-116836247D01*
X242885714Y-116836247D02*
X242980952Y-116883866D01*
X242980952Y-116883866D02*
X243171428Y-116883866D01*
X243171428Y-116883866D02*
X243266666Y-116836247D01*
X243266666Y-116836247D02*
X243314285Y-116788628D01*
X243314285Y-116788628D02*
X243361904Y-116693390D01*
%TO.C,C2*%
D13*
X94190113Y-101245000D02*
X94690113Y-101245000D01*
X94440113Y-100995000D02*
X94440113Y-101495000D01*
X96994888Y-100140000D02*
X96994888Y-101680000D01*
X96994888Y-103760000D02*
X96994888Y-105300000D01*
X97034888Y-100140000D02*
X97034888Y-101680000D01*
X97034888Y-103760000D02*
X97034888Y-105300000D01*
X97074888Y-100141000D02*
X97074888Y-101680000D01*
X97074888Y-103760000D02*
X97074888Y-105299000D01*
X97114888Y-100143000D02*
X97114888Y-101680000D01*
X97114888Y-103760000D02*
X97114888Y-105297000D01*
X97154888Y-100145000D02*
X97154888Y-101680000D01*
X97154888Y-103760000D02*
X97154888Y-105295000D01*
X97194888Y-100148000D02*
X97194888Y-101680000D01*
X97194888Y-103760000D02*
X97194888Y-105292000D01*
X97234888Y-100151000D02*
X97234888Y-101680000D01*
X97234888Y-103760000D02*
X97234888Y-105289000D01*
X97274888Y-100155000D02*
X97274888Y-101680000D01*
X97274888Y-103760000D02*
X97274888Y-105285000D01*
X97314888Y-100160000D02*
X97314888Y-101680000D01*
X97314888Y-103760000D02*
X97314888Y-105280000D01*
X97354888Y-100165000D02*
X97354888Y-101680000D01*
X97354888Y-103760000D02*
X97354888Y-105275000D01*
X97394888Y-100171000D02*
X97394888Y-101680000D01*
X97394888Y-103760000D02*
X97394888Y-105269000D01*
X97434888Y-100177000D02*
X97434888Y-101680000D01*
X97434888Y-103760000D02*
X97434888Y-105263000D01*
X97474888Y-100184000D02*
X97474888Y-101680000D01*
X97474888Y-103760000D02*
X97474888Y-105256000D01*
X97514888Y-100192000D02*
X97514888Y-101680000D01*
X97514888Y-103760000D02*
X97514888Y-105248000D01*
X97554888Y-100201000D02*
X97554888Y-101680000D01*
X97554888Y-103760000D02*
X97554888Y-105239000D01*
X97594888Y-100210000D02*
X97594888Y-101680000D01*
X97594888Y-103760000D02*
X97594888Y-105230000D01*
X97634888Y-100219000D02*
X97634888Y-101680000D01*
X97634888Y-103760000D02*
X97634888Y-105221000D01*
X97674888Y-100230000D02*
X97674888Y-101680000D01*
X97674888Y-103760000D02*
X97674888Y-105210000D01*
X97714888Y-100241000D02*
X97714888Y-101680000D01*
X97714888Y-103760000D02*
X97714888Y-105199000D01*
X97754888Y-100253000D02*
X97754888Y-101680000D01*
X97754888Y-103760000D02*
X97754888Y-105187000D01*
X97794888Y-100265000D02*
X97794888Y-101680000D01*
X97794888Y-103760000D02*
X97794888Y-105175000D01*
X97834888Y-100278000D02*
X97834888Y-101680000D01*
X97834888Y-103760000D02*
X97834888Y-105162000D01*
X97874888Y-100292000D02*
X97874888Y-101680000D01*
X97874888Y-103760000D02*
X97874888Y-105148000D01*
X97914888Y-100307000D02*
X97914888Y-101680000D01*
X97914888Y-103760000D02*
X97914888Y-105133000D01*
X97954888Y-100322000D02*
X97954888Y-101680000D01*
X97954888Y-103760000D02*
X97954888Y-105118000D01*
X97994888Y-100338000D02*
X97994888Y-101680000D01*
X97994888Y-103760000D02*
X97994888Y-105102000D01*
X98034888Y-100355000D02*
X98034888Y-101680000D01*
X98034888Y-103760000D02*
X98034888Y-105085000D01*
X98074888Y-100373000D02*
X98074888Y-101680000D01*
X98074888Y-103760000D02*
X98074888Y-105067000D01*
X98114888Y-100391000D02*
X98114888Y-101680000D01*
X98114888Y-103760000D02*
X98114888Y-105049000D01*
X98154888Y-100411000D02*
X98154888Y-101680000D01*
X98154888Y-103760000D02*
X98154888Y-105029000D01*
X98194888Y-100431000D02*
X98194888Y-101680000D01*
X98194888Y-103760000D02*
X98194888Y-105009000D01*
X98234888Y-100452000D02*
X98234888Y-101680000D01*
X98234888Y-103760000D02*
X98234888Y-104988000D01*
X98274888Y-100474000D02*
X98274888Y-101680000D01*
X98274888Y-103760000D02*
X98274888Y-104966000D01*
X98314888Y-100497000D02*
X98314888Y-101680000D01*
X98314888Y-103760000D02*
X98314888Y-104943000D01*
X98354888Y-100521000D02*
X98354888Y-101680000D01*
X98354888Y-103760000D02*
X98354888Y-104919000D01*
X98394888Y-100545000D02*
X98394888Y-101680000D01*
X98394888Y-103760000D02*
X98394888Y-104895000D01*
X98434888Y-100571000D02*
X98434888Y-101680000D01*
X98434888Y-103760000D02*
X98434888Y-104869000D01*
X98474888Y-100598000D02*
X98474888Y-101680000D01*
X98474888Y-103760000D02*
X98474888Y-104842000D01*
X98514888Y-100626000D02*
X98514888Y-101680000D01*
X98514888Y-103760000D02*
X98514888Y-104814000D01*
X98554888Y-100655000D02*
X98554888Y-101680000D01*
X98554888Y-103760000D02*
X98554888Y-104785000D01*
X98594888Y-100685000D02*
X98594888Y-101680000D01*
X98594888Y-103760000D02*
X98594888Y-104755000D01*
X98634888Y-100717000D02*
X98634888Y-101680000D01*
X98634888Y-103760000D02*
X98634888Y-104723000D01*
X98674888Y-100750000D02*
X98674888Y-101680000D01*
X98674888Y-103760000D02*
X98674888Y-104690000D01*
X98714888Y-100784000D02*
X98714888Y-101680000D01*
X98714888Y-103760000D02*
X98714888Y-104656000D01*
X98754888Y-100819000D02*
X98754888Y-101680000D01*
X98754888Y-103760000D02*
X98754888Y-104621000D01*
X98794888Y-100856000D02*
X98794888Y-101680000D01*
X98794888Y-103760000D02*
X98794888Y-104584000D01*
X98834888Y-100895000D02*
X98834888Y-101680000D01*
X98834888Y-103760000D02*
X98834888Y-104545000D01*
X98874888Y-100935000D02*
X98874888Y-101680000D01*
X98874888Y-103760000D02*
X98874888Y-104505000D01*
X98914888Y-100977000D02*
X98914888Y-101680000D01*
X98914888Y-103760000D02*
X98914888Y-104463000D01*
X98954888Y-101021000D02*
X98954888Y-101680000D01*
X98954888Y-103760000D02*
X98954888Y-104419000D01*
X98994888Y-101068000D02*
X98994888Y-101680000D01*
X98994888Y-103760000D02*
X98994888Y-104372000D01*
X99034888Y-101116000D02*
X99034888Y-104324000D01*
X99074888Y-101167000D02*
X99074888Y-104273000D01*
X99114888Y-101221000D02*
X99114888Y-104219000D01*
X99154888Y-101277000D02*
X99154888Y-104163000D01*
X99194888Y-101337000D02*
X99194888Y-104103000D01*
X99234888Y-101401000D02*
X99234888Y-104039000D01*
X99274888Y-101469000D02*
X99274888Y-103971000D01*
X99314888Y-101543000D02*
X99314888Y-103897000D01*
X99354888Y-101622000D02*
X99354888Y-103818000D01*
X99394888Y-101709000D02*
X99394888Y-103731000D01*
X99434888Y-101806000D02*
X99434888Y-103634000D01*
X99474888Y-101915000D02*
X99474888Y-103525000D01*
X99514888Y-102043000D02*
X99514888Y-103397000D01*
X99554888Y-102203000D02*
X99554888Y-103237000D01*
X99594888Y-102437000D02*
X99594888Y-103003000D01*
X99614888Y-102720000D02*
G75*
G02*
X94374888Y-102720000I-2620000J0D01*
G01*
X94374888Y-102720000D02*
G75*
G02*
X99614888Y-102720000I2620000J0D01*
G01*
%TO.C,C22*%
X240010000Y-122770000D02*
X245250000Y-122770000D01*
X240010000Y-125510000D02*
X240010000Y-122770000D01*
X245250000Y-122770000D02*
X245250000Y-125510000D01*
X245250000Y-125510000D02*
X240010000Y-125510000D01*
%TO.C,C4*%
X99460000Y-129630000D02*
X104700000Y-129630000D01*
X99460000Y-132370000D02*
X99460000Y-129630000D01*
X104700000Y-129630000D02*
X104700000Y-132370000D01*
X104700000Y-132370000D02*
X99460000Y-132370000D01*
%TO.C,C6*%
X102230000Y-114570000D02*
X107470000Y-114570000D01*
X102230000Y-117310000D02*
X102230000Y-114570000D01*
X107470000Y-114570000D02*
X107470000Y-117310000D01*
X107470000Y-117310000D02*
X102230000Y-117310000D01*
%TO.C,C12*%
X128320000Y-88130000D02*
X133560000Y-88130000D01*
X128320000Y-90870000D02*
X128320000Y-88130000D01*
X133560000Y-88130000D02*
X133560000Y-90870000D01*
X133560000Y-90870000D02*
X128320000Y-90870000D01*
%TO.C,J1*%
D10*
X106500000Y-145100000D02*
X239500000Y-145100000D01*
X239500000Y-153600000D01*
X106500000Y-153600000D01*
X106500000Y-145100000D01*
%TO.C,P1*%
D13*
X94750000Y-156510000D02*
X95350000Y-156510000D01*
X95350000Y-156510000D02*
X95300000Y-164760000D01*
X158300000Y-156560000D02*
X159950000Y-156560000D01*
X158300000Y-164760000D02*
X158300000Y-156560000D01*
X159950000Y-156560000D02*
X160000000Y-164760000D01*
X174700000Y-156510000D02*
X175000000Y-156510000D01*
X174700000Y-164760000D02*
X174700000Y-156510000D01*
%TO.C,C5*%
X115800000Y-141040000D02*
X121040000Y-141040000D01*
X115800000Y-143780000D02*
X115800000Y-141040000D01*
X121040000Y-141040000D02*
X121040000Y-143780000D01*
X121040000Y-143780000D02*
X115800000Y-143780000D01*
%TO.C,C8*%
X110800000Y-88130000D02*
X116040000Y-88130000D01*
X110800000Y-90870000D02*
X110800000Y-88130000D01*
X116040000Y-88130000D02*
X116040000Y-90870000D01*
X116040000Y-90870000D02*
X110800000Y-90870000D01*
%TO.C,C18*%
X201390000Y-98200000D02*
X201890000Y-98200000D01*
X201640000Y-97950000D02*
X201640000Y-98450000D01*
X204194775Y-97095000D02*
X204194775Y-98635000D01*
X204194775Y-100715000D02*
X204194775Y-102255000D01*
X204234775Y-97095000D02*
X204234775Y-98635000D01*
X204234775Y-100715000D02*
X204234775Y-102255000D01*
X204274775Y-97096000D02*
X204274775Y-98635000D01*
X204274775Y-100715000D02*
X204274775Y-102254000D01*
X204314775Y-97098000D02*
X204314775Y-98635000D01*
X204314775Y-100715000D02*
X204314775Y-102252000D01*
X204354775Y-97100000D02*
X204354775Y-98635000D01*
X204354775Y-100715000D02*
X204354775Y-102250000D01*
X204394775Y-97103000D02*
X204394775Y-98635000D01*
X204394775Y-100715000D02*
X204394775Y-102247000D01*
X204434775Y-97106000D02*
X204434775Y-98635000D01*
X204434775Y-100715000D02*
X204434775Y-102244000D01*
X204474775Y-97110000D02*
X204474775Y-98635000D01*
X204474775Y-100715000D02*
X204474775Y-102240000D01*
X204514775Y-97115000D02*
X204514775Y-98635000D01*
X204514775Y-100715000D02*
X204514775Y-102235000D01*
X204554775Y-97120000D02*
X204554775Y-98635000D01*
X204554775Y-100715000D02*
X204554775Y-102230000D01*
X204594775Y-97126000D02*
X204594775Y-98635000D01*
X204594775Y-100715000D02*
X204594775Y-102224000D01*
X204634775Y-97132000D02*
X204634775Y-98635000D01*
X204634775Y-100715000D02*
X204634775Y-102218000D01*
X204674775Y-97139000D02*
X204674775Y-98635000D01*
X204674775Y-100715000D02*
X204674775Y-102211000D01*
X204714775Y-97147000D02*
X204714775Y-98635000D01*
X204714775Y-100715000D02*
X204714775Y-102203000D01*
X204754775Y-97156000D02*
X204754775Y-98635000D01*
X204754775Y-100715000D02*
X204754775Y-102194000D01*
X204794775Y-97165000D02*
X204794775Y-98635000D01*
X204794775Y-100715000D02*
X204794775Y-102185000D01*
X204834775Y-97174000D02*
X204834775Y-98635000D01*
X204834775Y-100715000D02*
X204834775Y-102176000D01*
X204874775Y-97185000D02*
X204874775Y-98635000D01*
X204874775Y-100715000D02*
X204874775Y-102165000D01*
X204914775Y-97196000D02*
X204914775Y-98635000D01*
X204914775Y-100715000D02*
X204914775Y-102154000D01*
X204954775Y-97208000D02*
X204954775Y-98635000D01*
X204954775Y-100715000D02*
X204954775Y-102142000D01*
X204994775Y-97220000D02*
X204994775Y-98635000D01*
X204994775Y-100715000D02*
X204994775Y-102130000D01*
X205034775Y-97233000D02*
X205034775Y-98635000D01*
X205034775Y-100715000D02*
X205034775Y-102117000D01*
X205074775Y-97247000D02*
X205074775Y-98635000D01*
X205074775Y-100715000D02*
X205074775Y-102103000D01*
X205114775Y-97262000D02*
X205114775Y-98635000D01*
X205114775Y-100715000D02*
X205114775Y-102088000D01*
X205154775Y-97277000D02*
X205154775Y-98635000D01*
X205154775Y-100715000D02*
X205154775Y-102073000D01*
X205194775Y-97293000D02*
X205194775Y-98635000D01*
X205194775Y-100715000D02*
X205194775Y-102057000D01*
X205234775Y-97310000D02*
X205234775Y-98635000D01*
X205234775Y-100715000D02*
X205234775Y-102040000D01*
X205274775Y-97328000D02*
X205274775Y-98635000D01*
X205274775Y-100715000D02*
X205274775Y-102022000D01*
X205314775Y-97346000D02*
X205314775Y-98635000D01*
X205314775Y-100715000D02*
X205314775Y-102004000D01*
X205354775Y-97366000D02*
X205354775Y-98635000D01*
X205354775Y-100715000D02*
X205354775Y-101984000D01*
X205394775Y-97386000D02*
X205394775Y-98635000D01*
X205394775Y-100715000D02*
X205394775Y-101964000D01*
X205434775Y-97407000D02*
X205434775Y-98635000D01*
X205434775Y-100715000D02*
X205434775Y-101943000D01*
X205474775Y-97429000D02*
X205474775Y-98635000D01*
X205474775Y-100715000D02*
X205474775Y-101921000D01*
X205514775Y-97452000D02*
X205514775Y-98635000D01*
X205514775Y-100715000D02*
X205514775Y-101898000D01*
X205554775Y-97476000D02*
X205554775Y-98635000D01*
X205554775Y-100715000D02*
X205554775Y-101874000D01*
X205594775Y-97500000D02*
X205594775Y-98635000D01*
X205594775Y-100715000D02*
X205594775Y-101850000D01*
X205634775Y-97526000D02*
X205634775Y-98635000D01*
X205634775Y-100715000D02*
X205634775Y-101824000D01*
X205674775Y-97553000D02*
X205674775Y-98635000D01*
X205674775Y-100715000D02*
X205674775Y-101797000D01*
X205714775Y-97581000D02*
X205714775Y-98635000D01*
X205714775Y-100715000D02*
X205714775Y-101769000D01*
X205754775Y-97610000D02*
X205754775Y-98635000D01*
X205754775Y-100715000D02*
X205754775Y-101740000D01*
X205794775Y-97640000D02*
X205794775Y-98635000D01*
X205794775Y-100715000D02*
X205794775Y-101710000D01*
X205834775Y-97672000D02*
X205834775Y-98635000D01*
X205834775Y-100715000D02*
X205834775Y-101678000D01*
X205874775Y-97705000D02*
X205874775Y-98635000D01*
X205874775Y-100715000D02*
X205874775Y-101645000D01*
X205914775Y-97739000D02*
X205914775Y-98635000D01*
X205914775Y-100715000D02*
X205914775Y-101611000D01*
X205954775Y-97774000D02*
X205954775Y-98635000D01*
X205954775Y-100715000D02*
X205954775Y-101576000D01*
X205994775Y-97811000D02*
X205994775Y-98635000D01*
X205994775Y-100715000D02*
X205994775Y-101539000D01*
X206034775Y-97850000D02*
X206034775Y-98635000D01*
X206034775Y-100715000D02*
X206034775Y-101500000D01*
X206074775Y-97890000D02*
X206074775Y-98635000D01*
X206074775Y-100715000D02*
X206074775Y-101460000D01*
X206114775Y-97932000D02*
X206114775Y-98635000D01*
X206114775Y-100715000D02*
X206114775Y-101418000D01*
X206154775Y-97976000D02*
X206154775Y-98635000D01*
X206154775Y-100715000D02*
X206154775Y-101374000D01*
X206194775Y-98023000D02*
X206194775Y-98635000D01*
X206194775Y-100715000D02*
X206194775Y-101327000D01*
X206234775Y-98071000D02*
X206234775Y-101279000D01*
X206274775Y-98122000D02*
X206274775Y-101228000D01*
X206314775Y-98176000D02*
X206314775Y-101174000D01*
X206354775Y-98232000D02*
X206354775Y-101118000D01*
X206394775Y-98292000D02*
X206394775Y-101058000D01*
X206434775Y-98356000D02*
X206434775Y-100994000D01*
X206474775Y-98424000D02*
X206474775Y-100926000D01*
X206514775Y-98498000D02*
X206514775Y-100852000D01*
X206554775Y-98577000D02*
X206554775Y-100773000D01*
X206594775Y-98664000D02*
X206594775Y-100686000D01*
X206634775Y-98761000D02*
X206634775Y-100589000D01*
X206674775Y-98870000D02*
X206674775Y-100480000D01*
X206714775Y-98998000D02*
X206714775Y-100352000D01*
X206754775Y-99158000D02*
X206754775Y-100192000D01*
X206794775Y-99392000D02*
X206794775Y-99958000D01*
X206814775Y-99675000D02*
G75*
G02*
X201574775Y-99675000I-2620000J0D01*
G01*
X201574775Y-99675000D02*
G75*
G02*
X206814775Y-99675000I2620000J0D01*
G01*
%TO.C,C7*%
X110660113Y-96905000D02*
X111160113Y-96905000D01*
X110910113Y-96655000D02*
X110910113Y-97155000D01*
X113464888Y-95800000D02*
X113464888Y-97340000D01*
X113464888Y-99420000D02*
X113464888Y-100960000D01*
X113504888Y-95800000D02*
X113504888Y-97340000D01*
X113504888Y-99420000D02*
X113504888Y-100960000D01*
X113544888Y-95801000D02*
X113544888Y-97340000D01*
X113544888Y-99420000D02*
X113544888Y-100959000D01*
X113584888Y-95803000D02*
X113584888Y-97340000D01*
X113584888Y-99420000D02*
X113584888Y-100957000D01*
X113624888Y-95805000D02*
X113624888Y-97340000D01*
X113624888Y-99420000D02*
X113624888Y-100955000D01*
X113664888Y-95808000D02*
X113664888Y-97340000D01*
X113664888Y-99420000D02*
X113664888Y-100952000D01*
X113704888Y-95811000D02*
X113704888Y-97340000D01*
X113704888Y-99420000D02*
X113704888Y-100949000D01*
X113744888Y-95815000D02*
X113744888Y-97340000D01*
X113744888Y-99420000D02*
X113744888Y-100945000D01*
X113784888Y-95820000D02*
X113784888Y-97340000D01*
X113784888Y-99420000D02*
X113784888Y-100940000D01*
X113824888Y-95825000D02*
X113824888Y-97340000D01*
X113824888Y-99420000D02*
X113824888Y-100935000D01*
X113864888Y-95831000D02*
X113864888Y-97340000D01*
X113864888Y-99420000D02*
X113864888Y-100929000D01*
X113904888Y-95837000D02*
X113904888Y-97340000D01*
X113904888Y-99420000D02*
X113904888Y-100923000D01*
X113944888Y-95844000D02*
X113944888Y-97340000D01*
X113944888Y-99420000D02*
X113944888Y-100916000D01*
X113984888Y-95852000D02*
X113984888Y-97340000D01*
X113984888Y-99420000D02*
X113984888Y-100908000D01*
X114024888Y-95861000D02*
X114024888Y-97340000D01*
X114024888Y-99420000D02*
X114024888Y-100899000D01*
X114064888Y-95870000D02*
X114064888Y-97340000D01*
X114064888Y-99420000D02*
X114064888Y-100890000D01*
X114104888Y-95879000D02*
X114104888Y-97340000D01*
X114104888Y-99420000D02*
X114104888Y-100881000D01*
X114144888Y-95890000D02*
X114144888Y-97340000D01*
X114144888Y-99420000D02*
X114144888Y-100870000D01*
X114184888Y-95901000D02*
X114184888Y-97340000D01*
X114184888Y-99420000D02*
X114184888Y-100859000D01*
X114224888Y-95913000D02*
X114224888Y-97340000D01*
X114224888Y-99420000D02*
X114224888Y-100847000D01*
X114264888Y-95925000D02*
X114264888Y-97340000D01*
X114264888Y-99420000D02*
X114264888Y-100835000D01*
X114304888Y-95938000D02*
X114304888Y-97340000D01*
X114304888Y-99420000D02*
X114304888Y-100822000D01*
X114344888Y-95952000D02*
X114344888Y-97340000D01*
X114344888Y-99420000D02*
X114344888Y-100808000D01*
X114384888Y-95967000D02*
X114384888Y-97340000D01*
X114384888Y-99420000D02*
X114384888Y-100793000D01*
X114424888Y-95982000D02*
X114424888Y-97340000D01*
X114424888Y-99420000D02*
X114424888Y-100778000D01*
X114464888Y-95998000D02*
X114464888Y-97340000D01*
X114464888Y-99420000D02*
X114464888Y-100762000D01*
X114504888Y-96015000D02*
X114504888Y-97340000D01*
X114504888Y-99420000D02*
X114504888Y-100745000D01*
X114544888Y-96033000D02*
X114544888Y-97340000D01*
X114544888Y-99420000D02*
X114544888Y-100727000D01*
X114584888Y-96051000D02*
X114584888Y-97340000D01*
X114584888Y-99420000D02*
X114584888Y-100709000D01*
X114624888Y-96071000D02*
X114624888Y-97340000D01*
X114624888Y-99420000D02*
X114624888Y-100689000D01*
X114664888Y-96091000D02*
X114664888Y-97340000D01*
X114664888Y-99420000D02*
X114664888Y-100669000D01*
X114704888Y-96112000D02*
X114704888Y-97340000D01*
X114704888Y-99420000D02*
X114704888Y-100648000D01*
X114744888Y-96134000D02*
X114744888Y-97340000D01*
X114744888Y-99420000D02*
X114744888Y-100626000D01*
X114784888Y-96157000D02*
X114784888Y-97340000D01*
X114784888Y-99420000D02*
X114784888Y-100603000D01*
X114824888Y-96181000D02*
X114824888Y-97340000D01*
X114824888Y-99420000D02*
X114824888Y-100579000D01*
X114864888Y-96205000D02*
X114864888Y-97340000D01*
X114864888Y-99420000D02*
X114864888Y-100555000D01*
X114904888Y-96231000D02*
X114904888Y-97340000D01*
X114904888Y-99420000D02*
X114904888Y-100529000D01*
X114944888Y-96258000D02*
X114944888Y-97340000D01*
X114944888Y-99420000D02*
X114944888Y-100502000D01*
X114984888Y-96286000D02*
X114984888Y-97340000D01*
X114984888Y-99420000D02*
X114984888Y-100474000D01*
X115024888Y-96315000D02*
X115024888Y-97340000D01*
X115024888Y-99420000D02*
X115024888Y-100445000D01*
X115064888Y-96345000D02*
X115064888Y-97340000D01*
X115064888Y-99420000D02*
X115064888Y-100415000D01*
X115104888Y-96377000D02*
X115104888Y-97340000D01*
X115104888Y-99420000D02*
X115104888Y-100383000D01*
X115144888Y-96410000D02*
X115144888Y-97340000D01*
X115144888Y-99420000D02*
X115144888Y-100350000D01*
X115184888Y-96444000D02*
X115184888Y-97340000D01*
X115184888Y-99420000D02*
X115184888Y-100316000D01*
X115224888Y-96479000D02*
X115224888Y-97340000D01*
X115224888Y-99420000D02*
X115224888Y-100281000D01*
X115264888Y-96516000D02*
X115264888Y-97340000D01*
X115264888Y-99420000D02*
X115264888Y-100244000D01*
X115304888Y-96555000D02*
X115304888Y-97340000D01*
X115304888Y-99420000D02*
X115304888Y-100205000D01*
X115344888Y-96595000D02*
X115344888Y-97340000D01*
X115344888Y-99420000D02*
X115344888Y-100165000D01*
X115384888Y-96637000D02*
X115384888Y-97340000D01*
X115384888Y-99420000D02*
X115384888Y-100123000D01*
X115424888Y-96681000D02*
X115424888Y-97340000D01*
X115424888Y-99420000D02*
X115424888Y-100079000D01*
X115464888Y-96728000D02*
X115464888Y-97340000D01*
X115464888Y-99420000D02*
X115464888Y-100032000D01*
X115504888Y-96776000D02*
X115504888Y-99984000D01*
X115544888Y-96827000D02*
X115544888Y-99933000D01*
X115584888Y-96881000D02*
X115584888Y-99879000D01*
X115624888Y-96937000D02*
X115624888Y-99823000D01*
X115664888Y-96997000D02*
X115664888Y-99763000D01*
X115704888Y-97061000D02*
X115704888Y-99699000D01*
X115744888Y-97129000D02*
X115744888Y-99631000D01*
X115784888Y-97203000D02*
X115784888Y-99557000D01*
X115824888Y-97282000D02*
X115824888Y-99478000D01*
X115864888Y-97369000D02*
X115864888Y-99391000D01*
X115904888Y-97466000D02*
X115904888Y-99294000D01*
X115944888Y-97575000D02*
X115944888Y-99185000D01*
X115984888Y-97703000D02*
X115984888Y-99057000D01*
X116024888Y-97863000D02*
X116024888Y-98897000D01*
X116064888Y-98097000D02*
X116064888Y-98663000D01*
X116084888Y-98380000D02*
G75*
G02*
X110844888Y-98380000I-2620000J0D01*
G01*
X110844888Y-98380000D02*
G75*
G02*
X116084888Y-98380000I2620000J0D01*
G01*
%TO.C,C13*%
X186250000Y-150480000D02*
X191490000Y-150480000D01*
X186250000Y-153220000D02*
X186250000Y-150480000D01*
X191490000Y-150480000D02*
X191490000Y-153220000D01*
X191490000Y-153220000D02*
X186250000Y-153220000D01*
%TO.C,C21*%
X241195225Y-134955000D02*
X241695225Y-134955000D01*
X241445225Y-134705000D02*
X241445225Y-135205000D01*
X244000000Y-133850000D02*
X244000000Y-135390000D01*
X244000000Y-137470000D02*
X244000000Y-139010000D01*
X244040000Y-133850000D02*
X244040000Y-135390000D01*
X244040000Y-137470000D02*
X244040000Y-139010000D01*
X244080000Y-133851000D02*
X244080000Y-135390000D01*
X244080000Y-137470000D02*
X244080000Y-139009000D01*
X244120000Y-133853000D02*
X244120000Y-135390000D01*
X244120000Y-137470000D02*
X244120000Y-139007000D01*
X244160000Y-133855000D02*
X244160000Y-135390000D01*
X244160000Y-137470000D02*
X244160000Y-139005000D01*
X244200000Y-133858000D02*
X244200000Y-135390000D01*
X244200000Y-137470000D02*
X244200000Y-139002000D01*
X244240000Y-133861000D02*
X244240000Y-135390000D01*
X244240000Y-137470000D02*
X244240000Y-138999000D01*
X244280000Y-133865000D02*
X244280000Y-135390000D01*
X244280000Y-137470000D02*
X244280000Y-138995000D01*
X244320000Y-133870000D02*
X244320000Y-135390000D01*
X244320000Y-137470000D02*
X244320000Y-138990000D01*
X244360000Y-133875000D02*
X244360000Y-135390000D01*
X244360000Y-137470000D02*
X244360000Y-138985000D01*
X244400000Y-133881000D02*
X244400000Y-135390000D01*
X244400000Y-137470000D02*
X244400000Y-138979000D01*
X244440000Y-133887000D02*
X244440000Y-135390000D01*
X244440000Y-137470000D02*
X244440000Y-138973000D01*
X244480000Y-133894000D02*
X244480000Y-135390000D01*
X244480000Y-137470000D02*
X244480000Y-138966000D01*
X244520000Y-133902000D02*
X244520000Y-135390000D01*
X244520000Y-137470000D02*
X244520000Y-138958000D01*
X244560000Y-133911000D02*
X244560000Y-135390000D01*
X244560000Y-137470000D02*
X244560000Y-138949000D01*
X244600000Y-133920000D02*
X244600000Y-135390000D01*
X244600000Y-137470000D02*
X244600000Y-138940000D01*
X244640000Y-133929000D02*
X244640000Y-135390000D01*
X244640000Y-137470000D02*
X244640000Y-138931000D01*
X244680000Y-133940000D02*
X244680000Y-135390000D01*
X244680000Y-137470000D02*
X244680000Y-138920000D01*
X244720000Y-133951000D02*
X244720000Y-135390000D01*
X244720000Y-137470000D02*
X244720000Y-138909000D01*
X244760000Y-133963000D02*
X244760000Y-135390000D01*
X244760000Y-137470000D02*
X244760000Y-138897000D01*
X244800000Y-133975000D02*
X244800000Y-135390000D01*
X244800000Y-137470000D02*
X244800000Y-138885000D01*
X244840000Y-133988000D02*
X244840000Y-135390000D01*
X244840000Y-137470000D02*
X244840000Y-138872000D01*
X244880000Y-134002000D02*
X244880000Y-135390000D01*
X244880000Y-137470000D02*
X244880000Y-138858000D01*
X244920000Y-134017000D02*
X244920000Y-135390000D01*
X244920000Y-137470000D02*
X244920000Y-138843000D01*
X244960000Y-134032000D02*
X244960000Y-135390000D01*
X244960000Y-137470000D02*
X244960000Y-138828000D01*
X245000000Y-134048000D02*
X245000000Y-135390000D01*
X245000000Y-137470000D02*
X245000000Y-138812000D01*
X245040000Y-134065000D02*
X245040000Y-135390000D01*
X245040000Y-137470000D02*
X245040000Y-138795000D01*
X245080000Y-134083000D02*
X245080000Y-135390000D01*
X245080000Y-137470000D02*
X245080000Y-138777000D01*
X245120000Y-134101000D02*
X245120000Y-135390000D01*
X245120000Y-137470000D02*
X245120000Y-138759000D01*
X245160000Y-134121000D02*
X245160000Y-135390000D01*
X245160000Y-137470000D02*
X245160000Y-138739000D01*
X245200000Y-134141000D02*
X245200000Y-135390000D01*
X245200000Y-137470000D02*
X245200000Y-138719000D01*
X245240000Y-134162000D02*
X245240000Y-135390000D01*
X245240000Y-137470000D02*
X245240000Y-138698000D01*
X245280000Y-134184000D02*
X245280000Y-135390000D01*
X245280000Y-137470000D02*
X245280000Y-138676000D01*
X245320000Y-134207000D02*
X245320000Y-135390000D01*
X245320000Y-137470000D02*
X245320000Y-138653000D01*
X245360000Y-134231000D02*
X245360000Y-135390000D01*
X245360000Y-137470000D02*
X245360000Y-138629000D01*
X245400000Y-134255000D02*
X245400000Y-135390000D01*
X245400000Y-137470000D02*
X245400000Y-138605000D01*
X245440000Y-134281000D02*
X245440000Y-135390000D01*
X245440000Y-137470000D02*
X245440000Y-138579000D01*
X245480000Y-134308000D02*
X245480000Y-135390000D01*
X245480000Y-137470000D02*
X245480000Y-138552000D01*
X245520000Y-134336000D02*
X245520000Y-135390000D01*
X245520000Y-137470000D02*
X245520000Y-138524000D01*
X245560000Y-134365000D02*
X245560000Y-135390000D01*
X245560000Y-137470000D02*
X245560000Y-138495000D01*
X245600000Y-134395000D02*
X245600000Y-135390000D01*
X245600000Y-137470000D02*
X245600000Y-138465000D01*
X245640000Y-134427000D02*
X245640000Y-135390000D01*
X245640000Y-137470000D02*
X245640000Y-138433000D01*
X245680000Y-134460000D02*
X245680000Y-135390000D01*
X245680000Y-137470000D02*
X245680000Y-138400000D01*
X245720000Y-134494000D02*
X245720000Y-135390000D01*
X245720000Y-137470000D02*
X245720000Y-138366000D01*
X245760000Y-134529000D02*
X245760000Y-135390000D01*
X245760000Y-137470000D02*
X245760000Y-138331000D01*
X245800000Y-134566000D02*
X245800000Y-135390000D01*
X245800000Y-137470000D02*
X245800000Y-138294000D01*
X245840000Y-134605000D02*
X245840000Y-135390000D01*
X245840000Y-137470000D02*
X245840000Y-138255000D01*
X245880000Y-134645000D02*
X245880000Y-135390000D01*
X245880000Y-137470000D02*
X245880000Y-138215000D01*
X245920000Y-134687000D02*
X245920000Y-135390000D01*
X245920000Y-137470000D02*
X245920000Y-138173000D01*
X245960000Y-134731000D02*
X245960000Y-135390000D01*
X245960000Y-137470000D02*
X245960000Y-138129000D01*
X246000000Y-134778000D02*
X246000000Y-135390000D01*
X246000000Y-137470000D02*
X246000000Y-138082000D01*
X246040000Y-134826000D02*
X246040000Y-138034000D01*
X246080000Y-134877000D02*
X246080000Y-137983000D01*
X246120000Y-134931000D02*
X246120000Y-137929000D01*
X246160000Y-134987000D02*
X246160000Y-137873000D01*
X246200000Y-135047000D02*
X246200000Y-137813000D01*
X246240000Y-135111000D02*
X246240000Y-137749000D01*
X246280000Y-135179000D02*
X246280000Y-137681000D01*
X246320000Y-135253000D02*
X246320000Y-137607000D01*
X246360000Y-135332000D02*
X246360000Y-137528000D01*
X246400000Y-135419000D02*
X246400000Y-137441000D01*
X246440000Y-135516000D02*
X246440000Y-137344000D01*
X246480000Y-135625000D02*
X246480000Y-137235000D01*
X246520000Y-135753000D02*
X246520000Y-137107000D01*
X246560000Y-135913000D02*
X246560000Y-136947000D01*
X246600000Y-136147000D02*
X246600000Y-136713000D01*
X246620000Y-136430000D02*
G75*
G02*
X241380000Y-136430000I-2620000J0D01*
G01*
X241380000Y-136430000D02*
G75*
G02*
X246620000Y-136430000I2620000J0D01*
G01*
%TO.C,C11*%
X128180113Y-96905000D02*
X128680113Y-96905000D01*
X128430113Y-96655000D02*
X128430113Y-97155000D01*
X130984888Y-95800000D02*
X130984888Y-97340000D01*
X130984888Y-99420000D02*
X130984888Y-100960000D01*
X131024888Y-95800000D02*
X131024888Y-97340000D01*
X131024888Y-99420000D02*
X131024888Y-100960000D01*
X131064888Y-95801000D02*
X131064888Y-97340000D01*
X131064888Y-99420000D02*
X131064888Y-100959000D01*
X131104888Y-95803000D02*
X131104888Y-97340000D01*
X131104888Y-99420000D02*
X131104888Y-100957000D01*
X131144888Y-95805000D02*
X131144888Y-97340000D01*
X131144888Y-99420000D02*
X131144888Y-100955000D01*
X131184888Y-95808000D02*
X131184888Y-97340000D01*
X131184888Y-99420000D02*
X131184888Y-100952000D01*
X131224888Y-95811000D02*
X131224888Y-97340000D01*
X131224888Y-99420000D02*
X131224888Y-100949000D01*
X131264888Y-95815000D02*
X131264888Y-97340000D01*
X131264888Y-99420000D02*
X131264888Y-100945000D01*
X131304888Y-95820000D02*
X131304888Y-97340000D01*
X131304888Y-99420000D02*
X131304888Y-100940000D01*
X131344888Y-95825000D02*
X131344888Y-97340000D01*
X131344888Y-99420000D02*
X131344888Y-100935000D01*
X131384888Y-95831000D02*
X131384888Y-97340000D01*
X131384888Y-99420000D02*
X131384888Y-100929000D01*
X131424888Y-95837000D02*
X131424888Y-97340000D01*
X131424888Y-99420000D02*
X131424888Y-100923000D01*
X131464888Y-95844000D02*
X131464888Y-97340000D01*
X131464888Y-99420000D02*
X131464888Y-100916000D01*
X131504888Y-95852000D02*
X131504888Y-97340000D01*
X131504888Y-99420000D02*
X131504888Y-100908000D01*
X131544888Y-95861000D02*
X131544888Y-97340000D01*
X131544888Y-99420000D02*
X131544888Y-100899000D01*
X131584888Y-95870000D02*
X131584888Y-97340000D01*
X131584888Y-99420000D02*
X131584888Y-100890000D01*
X131624888Y-95879000D02*
X131624888Y-97340000D01*
X131624888Y-99420000D02*
X131624888Y-100881000D01*
X131664888Y-95890000D02*
X131664888Y-97340000D01*
X131664888Y-99420000D02*
X131664888Y-100870000D01*
X131704888Y-95901000D02*
X131704888Y-97340000D01*
X131704888Y-99420000D02*
X131704888Y-100859000D01*
X131744888Y-95913000D02*
X131744888Y-97340000D01*
X131744888Y-99420000D02*
X131744888Y-100847000D01*
X131784888Y-95925000D02*
X131784888Y-97340000D01*
X131784888Y-99420000D02*
X131784888Y-100835000D01*
X131824888Y-95938000D02*
X131824888Y-97340000D01*
X131824888Y-99420000D02*
X131824888Y-100822000D01*
X131864888Y-95952000D02*
X131864888Y-97340000D01*
X131864888Y-99420000D02*
X131864888Y-100808000D01*
X131904888Y-95967000D02*
X131904888Y-97340000D01*
X131904888Y-99420000D02*
X131904888Y-100793000D01*
X131944888Y-95982000D02*
X131944888Y-97340000D01*
X131944888Y-99420000D02*
X131944888Y-100778000D01*
X131984888Y-95998000D02*
X131984888Y-97340000D01*
X131984888Y-99420000D02*
X131984888Y-100762000D01*
X132024888Y-96015000D02*
X132024888Y-97340000D01*
X132024888Y-99420000D02*
X132024888Y-100745000D01*
X132064888Y-96033000D02*
X132064888Y-97340000D01*
X132064888Y-99420000D02*
X132064888Y-100727000D01*
X132104888Y-96051000D02*
X132104888Y-97340000D01*
X132104888Y-99420000D02*
X132104888Y-100709000D01*
X132144888Y-96071000D02*
X132144888Y-97340000D01*
X132144888Y-99420000D02*
X132144888Y-100689000D01*
X132184888Y-96091000D02*
X132184888Y-97340000D01*
X132184888Y-99420000D02*
X132184888Y-100669000D01*
X132224888Y-96112000D02*
X132224888Y-97340000D01*
X132224888Y-99420000D02*
X132224888Y-100648000D01*
X132264888Y-96134000D02*
X132264888Y-97340000D01*
X132264888Y-99420000D02*
X132264888Y-100626000D01*
X132304888Y-96157000D02*
X132304888Y-97340000D01*
X132304888Y-99420000D02*
X132304888Y-100603000D01*
X132344888Y-96181000D02*
X132344888Y-97340000D01*
X132344888Y-99420000D02*
X132344888Y-100579000D01*
X132384888Y-96205000D02*
X132384888Y-97340000D01*
X132384888Y-99420000D02*
X132384888Y-100555000D01*
X132424888Y-96231000D02*
X132424888Y-97340000D01*
X132424888Y-99420000D02*
X132424888Y-100529000D01*
X132464888Y-96258000D02*
X132464888Y-97340000D01*
X132464888Y-99420000D02*
X132464888Y-100502000D01*
X132504888Y-96286000D02*
X132504888Y-97340000D01*
X132504888Y-99420000D02*
X132504888Y-100474000D01*
X132544888Y-96315000D02*
X132544888Y-97340000D01*
X132544888Y-99420000D02*
X132544888Y-100445000D01*
X132584888Y-96345000D02*
X132584888Y-97340000D01*
X132584888Y-99420000D02*
X132584888Y-100415000D01*
X132624888Y-96377000D02*
X132624888Y-97340000D01*
X132624888Y-99420000D02*
X132624888Y-100383000D01*
X132664888Y-96410000D02*
X132664888Y-97340000D01*
X132664888Y-99420000D02*
X132664888Y-100350000D01*
X132704888Y-96444000D02*
X132704888Y-97340000D01*
X132704888Y-99420000D02*
X132704888Y-100316000D01*
X132744888Y-96479000D02*
X132744888Y-97340000D01*
X132744888Y-99420000D02*
X132744888Y-100281000D01*
X132784888Y-96516000D02*
X132784888Y-97340000D01*
X132784888Y-99420000D02*
X132784888Y-100244000D01*
X132824888Y-96555000D02*
X132824888Y-97340000D01*
X132824888Y-99420000D02*
X132824888Y-100205000D01*
X132864888Y-96595000D02*
X132864888Y-97340000D01*
X132864888Y-99420000D02*
X132864888Y-100165000D01*
X132904888Y-96637000D02*
X132904888Y-97340000D01*
X132904888Y-99420000D02*
X132904888Y-100123000D01*
X132944888Y-96681000D02*
X132944888Y-97340000D01*
X132944888Y-99420000D02*
X132944888Y-100079000D01*
X132984888Y-96728000D02*
X132984888Y-97340000D01*
X132984888Y-99420000D02*
X132984888Y-100032000D01*
X133024888Y-96776000D02*
X133024888Y-99984000D01*
X133064888Y-96827000D02*
X133064888Y-99933000D01*
X133104888Y-96881000D02*
X133104888Y-99879000D01*
X133144888Y-96937000D02*
X133144888Y-99823000D01*
X133184888Y-96997000D02*
X133184888Y-99763000D01*
X133224888Y-97061000D02*
X133224888Y-99699000D01*
X133264888Y-97129000D02*
X133264888Y-99631000D01*
X133304888Y-97203000D02*
X133304888Y-99557000D01*
X133344888Y-97282000D02*
X133344888Y-99478000D01*
X133384888Y-97369000D02*
X133384888Y-99391000D01*
X133424888Y-97466000D02*
X133424888Y-99294000D01*
X133464888Y-97575000D02*
X133464888Y-99185000D01*
X133504888Y-97703000D02*
X133504888Y-99057000D01*
X133544888Y-97863000D02*
X133544888Y-98897000D01*
X133584888Y-98097000D02*
X133584888Y-98663000D01*
X133604888Y-98380000D02*
G75*
G02*
X128364888Y-98380000I-2620000J0D01*
G01*
X128364888Y-98380000D02*
G75*
G02*
X133604888Y-98380000I2620000J0D01*
G01*
%TO.C,C9*%
X119850113Y-96905000D02*
X120350113Y-96905000D01*
X120100113Y-96655000D02*
X120100113Y-97155000D01*
X122654888Y-95800000D02*
X122654888Y-97340000D01*
X122654888Y-99420000D02*
X122654888Y-100960000D01*
X122694888Y-95800000D02*
X122694888Y-97340000D01*
X122694888Y-99420000D02*
X122694888Y-100960000D01*
X122734888Y-95801000D02*
X122734888Y-97340000D01*
X122734888Y-99420000D02*
X122734888Y-100959000D01*
X122774888Y-95803000D02*
X122774888Y-97340000D01*
X122774888Y-99420000D02*
X122774888Y-100957000D01*
X122814888Y-95805000D02*
X122814888Y-97340000D01*
X122814888Y-99420000D02*
X122814888Y-100955000D01*
X122854888Y-95808000D02*
X122854888Y-97340000D01*
X122854888Y-99420000D02*
X122854888Y-100952000D01*
X122894888Y-95811000D02*
X122894888Y-97340000D01*
X122894888Y-99420000D02*
X122894888Y-100949000D01*
X122934888Y-95815000D02*
X122934888Y-97340000D01*
X122934888Y-99420000D02*
X122934888Y-100945000D01*
X122974888Y-95820000D02*
X122974888Y-97340000D01*
X122974888Y-99420000D02*
X122974888Y-100940000D01*
X123014888Y-95825000D02*
X123014888Y-97340000D01*
X123014888Y-99420000D02*
X123014888Y-100935000D01*
X123054888Y-95831000D02*
X123054888Y-97340000D01*
X123054888Y-99420000D02*
X123054888Y-100929000D01*
X123094888Y-95837000D02*
X123094888Y-97340000D01*
X123094888Y-99420000D02*
X123094888Y-100923000D01*
X123134888Y-95844000D02*
X123134888Y-97340000D01*
X123134888Y-99420000D02*
X123134888Y-100916000D01*
X123174888Y-95852000D02*
X123174888Y-97340000D01*
X123174888Y-99420000D02*
X123174888Y-100908000D01*
X123214888Y-95861000D02*
X123214888Y-97340000D01*
X123214888Y-99420000D02*
X123214888Y-100899000D01*
X123254888Y-95870000D02*
X123254888Y-97340000D01*
X123254888Y-99420000D02*
X123254888Y-100890000D01*
X123294888Y-95879000D02*
X123294888Y-97340000D01*
X123294888Y-99420000D02*
X123294888Y-100881000D01*
X123334888Y-95890000D02*
X123334888Y-97340000D01*
X123334888Y-99420000D02*
X123334888Y-100870000D01*
X123374888Y-95901000D02*
X123374888Y-97340000D01*
X123374888Y-99420000D02*
X123374888Y-100859000D01*
X123414888Y-95913000D02*
X123414888Y-97340000D01*
X123414888Y-99420000D02*
X123414888Y-100847000D01*
X123454888Y-95925000D02*
X123454888Y-97340000D01*
X123454888Y-99420000D02*
X123454888Y-100835000D01*
X123494888Y-95938000D02*
X123494888Y-97340000D01*
X123494888Y-99420000D02*
X123494888Y-100822000D01*
X123534888Y-95952000D02*
X123534888Y-97340000D01*
X123534888Y-99420000D02*
X123534888Y-100808000D01*
X123574888Y-95967000D02*
X123574888Y-97340000D01*
X123574888Y-99420000D02*
X123574888Y-100793000D01*
X123614888Y-95982000D02*
X123614888Y-97340000D01*
X123614888Y-99420000D02*
X123614888Y-100778000D01*
X123654888Y-95998000D02*
X123654888Y-97340000D01*
X123654888Y-99420000D02*
X123654888Y-100762000D01*
X123694888Y-96015000D02*
X123694888Y-97340000D01*
X123694888Y-99420000D02*
X123694888Y-100745000D01*
X123734888Y-96033000D02*
X123734888Y-97340000D01*
X123734888Y-99420000D02*
X123734888Y-100727000D01*
X123774888Y-96051000D02*
X123774888Y-97340000D01*
X123774888Y-99420000D02*
X123774888Y-100709000D01*
X123814888Y-96071000D02*
X123814888Y-97340000D01*
X123814888Y-99420000D02*
X123814888Y-100689000D01*
X123854888Y-96091000D02*
X123854888Y-97340000D01*
X123854888Y-99420000D02*
X123854888Y-100669000D01*
X123894888Y-96112000D02*
X123894888Y-97340000D01*
X123894888Y-99420000D02*
X123894888Y-100648000D01*
X123934888Y-96134000D02*
X123934888Y-97340000D01*
X123934888Y-99420000D02*
X123934888Y-100626000D01*
X123974888Y-96157000D02*
X123974888Y-97340000D01*
X123974888Y-99420000D02*
X123974888Y-100603000D01*
X124014888Y-96181000D02*
X124014888Y-97340000D01*
X124014888Y-99420000D02*
X124014888Y-100579000D01*
X124054888Y-96205000D02*
X124054888Y-97340000D01*
X124054888Y-99420000D02*
X124054888Y-100555000D01*
X124094888Y-96231000D02*
X124094888Y-97340000D01*
X124094888Y-99420000D02*
X124094888Y-100529000D01*
X124134888Y-96258000D02*
X124134888Y-97340000D01*
X124134888Y-99420000D02*
X124134888Y-100502000D01*
X124174888Y-96286000D02*
X124174888Y-97340000D01*
X124174888Y-99420000D02*
X124174888Y-100474000D01*
X124214888Y-96315000D02*
X124214888Y-97340000D01*
X124214888Y-99420000D02*
X124214888Y-100445000D01*
X124254888Y-96345000D02*
X124254888Y-97340000D01*
X124254888Y-99420000D02*
X124254888Y-100415000D01*
X124294888Y-96377000D02*
X124294888Y-97340000D01*
X124294888Y-99420000D02*
X124294888Y-100383000D01*
X124334888Y-96410000D02*
X124334888Y-97340000D01*
X124334888Y-99420000D02*
X124334888Y-100350000D01*
X124374888Y-96444000D02*
X124374888Y-97340000D01*
X124374888Y-99420000D02*
X124374888Y-100316000D01*
X124414888Y-96479000D02*
X124414888Y-97340000D01*
X124414888Y-99420000D02*
X124414888Y-100281000D01*
X124454888Y-96516000D02*
X124454888Y-97340000D01*
X124454888Y-99420000D02*
X124454888Y-100244000D01*
X124494888Y-96555000D02*
X124494888Y-97340000D01*
X124494888Y-99420000D02*
X124494888Y-100205000D01*
X124534888Y-96595000D02*
X124534888Y-97340000D01*
X124534888Y-99420000D02*
X124534888Y-100165000D01*
X124574888Y-96637000D02*
X124574888Y-97340000D01*
X124574888Y-99420000D02*
X124574888Y-100123000D01*
X124614888Y-96681000D02*
X124614888Y-97340000D01*
X124614888Y-99420000D02*
X124614888Y-100079000D01*
X124654888Y-96728000D02*
X124654888Y-97340000D01*
X124654888Y-99420000D02*
X124654888Y-100032000D01*
X124694888Y-96776000D02*
X124694888Y-99984000D01*
X124734888Y-96827000D02*
X124734888Y-99933000D01*
X124774888Y-96881000D02*
X124774888Y-99879000D01*
X124814888Y-96937000D02*
X124814888Y-99823000D01*
X124854888Y-96997000D02*
X124854888Y-99763000D01*
X124894888Y-97061000D02*
X124894888Y-99699000D01*
X124934888Y-97129000D02*
X124934888Y-99631000D01*
X124974888Y-97203000D02*
X124974888Y-99557000D01*
X125014888Y-97282000D02*
X125014888Y-99478000D01*
X125054888Y-97369000D02*
X125054888Y-99391000D01*
X125094888Y-97466000D02*
X125094888Y-99294000D01*
X125134888Y-97575000D02*
X125134888Y-99185000D01*
X125174888Y-97703000D02*
X125174888Y-99057000D01*
X125214888Y-97863000D02*
X125214888Y-98897000D01*
X125254888Y-98097000D02*
X125254888Y-98663000D01*
X125274888Y-98380000D02*
G75*
G02*
X120034888Y-98380000I-2620000J0D01*
G01*
X120034888Y-98380000D02*
G75*
G02*
X125274888Y-98380000I2620000J0D01*
G01*
%TO.C,J2*%
D10*
X106506692Y-125099998D02*
X239506692Y-125099998D01*
X239506692Y-133599998D01*
X106506692Y-133599998D01*
X106506692Y-125099998D01*
%TO.C,C23*%
D13*
X241420000Y-140870000D02*
X246660000Y-140870000D01*
X241420000Y-143610000D02*
X241420000Y-140870000D01*
X246660000Y-140870000D02*
X246660000Y-143610000D01*
X246660000Y-143610000D02*
X241420000Y-143610000D01*
%TO.C,C20*%
X232270113Y-96595000D02*
X232770113Y-96595000D01*
X232520113Y-96345000D02*
X232520113Y-96845000D01*
X235074888Y-95490000D02*
X235074888Y-97030000D01*
X235074888Y-99110000D02*
X235074888Y-100650000D01*
X235114888Y-95490000D02*
X235114888Y-97030000D01*
X235114888Y-99110000D02*
X235114888Y-100650000D01*
X235154888Y-95491000D02*
X235154888Y-97030000D01*
X235154888Y-99110000D02*
X235154888Y-100649000D01*
X235194888Y-95493000D02*
X235194888Y-97030000D01*
X235194888Y-99110000D02*
X235194888Y-100647000D01*
X235234888Y-95495000D02*
X235234888Y-97030000D01*
X235234888Y-99110000D02*
X235234888Y-100645000D01*
X235274888Y-95498000D02*
X235274888Y-97030000D01*
X235274888Y-99110000D02*
X235274888Y-100642000D01*
X235314888Y-95501000D02*
X235314888Y-97030000D01*
X235314888Y-99110000D02*
X235314888Y-100639000D01*
X235354888Y-95505000D02*
X235354888Y-97030000D01*
X235354888Y-99110000D02*
X235354888Y-100635000D01*
X235394888Y-95510000D02*
X235394888Y-97030000D01*
X235394888Y-99110000D02*
X235394888Y-100630000D01*
X235434888Y-95515000D02*
X235434888Y-97030000D01*
X235434888Y-99110000D02*
X235434888Y-100625000D01*
X235474888Y-95521000D02*
X235474888Y-97030000D01*
X235474888Y-99110000D02*
X235474888Y-100619000D01*
X235514888Y-95527000D02*
X235514888Y-97030000D01*
X235514888Y-99110000D02*
X235514888Y-100613000D01*
X235554888Y-95534000D02*
X235554888Y-97030000D01*
X235554888Y-99110000D02*
X235554888Y-100606000D01*
X235594888Y-95542000D02*
X235594888Y-97030000D01*
X235594888Y-99110000D02*
X235594888Y-100598000D01*
X235634888Y-95551000D02*
X235634888Y-97030000D01*
X235634888Y-99110000D02*
X235634888Y-100589000D01*
X235674888Y-95560000D02*
X235674888Y-97030000D01*
X235674888Y-99110000D02*
X235674888Y-100580000D01*
X235714888Y-95569000D02*
X235714888Y-97030000D01*
X235714888Y-99110000D02*
X235714888Y-100571000D01*
X235754888Y-95580000D02*
X235754888Y-97030000D01*
X235754888Y-99110000D02*
X235754888Y-100560000D01*
X235794888Y-95591000D02*
X235794888Y-97030000D01*
X235794888Y-99110000D02*
X235794888Y-100549000D01*
X235834888Y-95603000D02*
X235834888Y-97030000D01*
X235834888Y-99110000D02*
X235834888Y-100537000D01*
X235874888Y-95615000D02*
X235874888Y-97030000D01*
X235874888Y-99110000D02*
X235874888Y-100525000D01*
X235914888Y-95628000D02*
X235914888Y-97030000D01*
X235914888Y-99110000D02*
X235914888Y-100512000D01*
X235954888Y-95642000D02*
X235954888Y-97030000D01*
X235954888Y-99110000D02*
X235954888Y-100498000D01*
X235994888Y-95657000D02*
X235994888Y-97030000D01*
X235994888Y-99110000D02*
X235994888Y-100483000D01*
X236034888Y-95672000D02*
X236034888Y-97030000D01*
X236034888Y-99110000D02*
X236034888Y-100468000D01*
X236074888Y-95688000D02*
X236074888Y-97030000D01*
X236074888Y-99110000D02*
X236074888Y-100452000D01*
X236114888Y-95705000D02*
X236114888Y-97030000D01*
X236114888Y-99110000D02*
X236114888Y-100435000D01*
X236154888Y-95723000D02*
X236154888Y-97030000D01*
X236154888Y-99110000D02*
X236154888Y-100417000D01*
X236194888Y-95741000D02*
X236194888Y-97030000D01*
X236194888Y-99110000D02*
X236194888Y-100399000D01*
X236234888Y-95761000D02*
X236234888Y-97030000D01*
X236234888Y-99110000D02*
X236234888Y-100379000D01*
X236274888Y-95781000D02*
X236274888Y-97030000D01*
X236274888Y-99110000D02*
X236274888Y-100359000D01*
X236314888Y-95802000D02*
X236314888Y-97030000D01*
X236314888Y-99110000D02*
X236314888Y-100338000D01*
X236354888Y-95824000D02*
X236354888Y-97030000D01*
X236354888Y-99110000D02*
X236354888Y-100316000D01*
X236394888Y-95847000D02*
X236394888Y-97030000D01*
X236394888Y-99110000D02*
X236394888Y-100293000D01*
X236434888Y-95871000D02*
X236434888Y-97030000D01*
X236434888Y-99110000D02*
X236434888Y-100269000D01*
X236474888Y-95895000D02*
X236474888Y-97030000D01*
X236474888Y-99110000D02*
X236474888Y-100245000D01*
X236514888Y-95921000D02*
X236514888Y-97030000D01*
X236514888Y-99110000D02*
X236514888Y-100219000D01*
X236554888Y-95948000D02*
X236554888Y-97030000D01*
X236554888Y-99110000D02*
X236554888Y-100192000D01*
X236594888Y-95976000D02*
X236594888Y-97030000D01*
X236594888Y-99110000D02*
X236594888Y-100164000D01*
X236634888Y-96005000D02*
X236634888Y-97030000D01*
X236634888Y-99110000D02*
X236634888Y-100135000D01*
X236674888Y-96035000D02*
X236674888Y-97030000D01*
X236674888Y-99110000D02*
X236674888Y-100105000D01*
X236714888Y-96067000D02*
X236714888Y-97030000D01*
X236714888Y-99110000D02*
X236714888Y-100073000D01*
X236754888Y-96100000D02*
X236754888Y-97030000D01*
X236754888Y-99110000D02*
X236754888Y-100040000D01*
X236794888Y-96134000D02*
X236794888Y-97030000D01*
X236794888Y-99110000D02*
X236794888Y-100006000D01*
X236834888Y-96169000D02*
X236834888Y-97030000D01*
X236834888Y-99110000D02*
X236834888Y-99971000D01*
X236874888Y-96206000D02*
X236874888Y-97030000D01*
X236874888Y-99110000D02*
X236874888Y-99934000D01*
X236914888Y-96245000D02*
X236914888Y-97030000D01*
X236914888Y-99110000D02*
X236914888Y-99895000D01*
X236954888Y-96285000D02*
X236954888Y-97030000D01*
X236954888Y-99110000D02*
X236954888Y-99855000D01*
X236994888Y-96327000D02*
X236994888Y-97030000D01*
X236994888Y-99110000D02*
X236994888Y-99813000D01*
X237034888Y-96371000D02*
X237034888Y-97030000D01*
X237034888Y-99110000D02*
X237034888Y-99769000D01*
X237074888Y-96418000D02*
X237074888Y-97030000D01*
X237074888Y-99110000D02*
X237074888Y-99722000D01*
X237114888Y-96466000D02*
X237114888Y-99674000D01*
X237154888Y-96517000D02*
X237154888Y-99623000D01*
X237194888Y-96571000D02*
X237194888Y-99569000D01*
X237234888Y-96627000D02*
X237234888Y-99513000D01*
X237274888Y-96687000D02*
X237274888Y-99453000D01*
X237314888Y-96751000D02*
X237314888Y-99389000D01*
X237354888Y-96819000D02*
X237354888Y-99321000D01*
X237394888Y-96893000D02*
X237394888Y-99247000D01*
X237434888Y-96972000D02*
X237434888Y-99168000D01*
X237474888Y-97059000D02*
X237474888Y-99081000D01*
X237514888Y-97156000D02*
X237514888Y-98984000D01*
X237554888Y-97265000D02*
X237554888Y-98875000D01*
X237594888Y-97393000D02*
X237594888Y-98747000D01*
X237634888Y-97553000D02*
X237634888Y-98587000D01*
X237674888Y-97787000D02*
X237674888Y-98353000D01*
X237694888Y-98070000D02*
G75*
G02*
X232454888Y-98070000I-2620000J0D01*
G01*
X232454888Y-98070000D02*
G75*
G02*
X237694888Y-98070000I2620000J0D01*
G01*
%TO.C,J3*%
D10*
X106503348Y-105089998D02*
X239503348Y-105089998D01*
X239503348Y-113589998D01*
X106503348Y-113589998D01*
X106503348Y-105089998D01*
%TO.C,C3*%
D13*
X101100000Y-93910000D02*
X106340000Y-93910000D01*
X101100000Y-96650000D02*
X101100000Y-93910000D01*
X106340000Y-93910000D02*
X106340000Y-96650000D01*
X106340000Y-96650000D02*
X101100000Y-96650000D01*
%TO.C,C14*%
X186310000Y-125520000D02*
X191550000Y-125520000D01*
X186310000Y-128260000D02*
X186310000Y-125520000D01*
X191550000Y-125520000D02*
X191550000Y-128260000D01*
X191550000Y-128260000D02*
X186310000Y-128260000D01*
%TO.C,C15*%
X187420000Y-115130000D02*
X192660000Y-115130000D01*
X187420000Y-117870000D02*
X187420000Y-115130000D01*
X192660000Y-115130000D02*
X192660000Y-117870000D01*
X192660000Y-117870000D02*
X187420000Y-117870000D01*
%TO.C,C10*%
X119990000Y-88130000D02*
X125230000Y-88130000D01*
X119990000Y-90870000D02*
X119990000Y-88130000D01*
X125230000Y-88130000D02*
X125230000Y-90870000D01*
X125230000Y-90870000D02*
X119990000Y-90870000D01*
%TO.C,C17*%
X183095225Y-98115000D02*
X183595225Y-98115000D01*
X183345225Y-97865000D02*
X183345225Y-98365000D01*
X185900000Y-97010000D02*
X185900000Y-98550000D01*
X185900000Y-100630000D02*
X185900000Y-102170000D01*
X185940000Y-97010000D02*
X185940000Y-98550000D01*
X185940000Y-100630000D02*
X185940000Y-102170000D01*
X185980000Y-97011000D02*
X185980000Y-98550000D01*
X185980000Y-100630000D02*
X185980000Y-102169000D01*
X186020000Y-97013000D02*
X186020000Y-98550000D01*
X186020000Y-100630000D02*
X186020000Y-102167000D01*
X186060000Y-97015000D02*
X186060000Y-98550000D01*
X186060000Y-100630000D02*
X186060000Y-102165000D01*
X186100000Y-97018000D02*
X186100000Y-98550000D01*
X186100000Y-100630000D02*
X186100000Y-102162000D01*
X186140000Y-97021000D02*
X186140000Y-98550000D01*
X186140000Y-100630000D02*
X186140000Y-102159000D01*
X186180000Y-97025000D02*
X186180000Y-98550000D01*
X186180000Y-100630000D02*
X186180000Y-102155000D01*
X186220000Y-97030000D02*
X186220000Y-98550000D01*
X186220000Y-100630000D02*
X186220000Y-102150000D01*
X186260000Y-97035000D02*
X186260000Y-98550000D01*
X186260000Y-100630000D02*
X186260000Y-102145000D01*
X186300000Y-97041000D02*
X186300000Y-98550000D01*
X186300000Y-100630000D02*
X186300000Y-102139000D01*
X186340000Y-97047000D02*
X186340000Y-98550000D01*
X186340000Y-100630000D02*
X186340000Y-102133000D01*
X186380000Y-97054000D02*
X186380000Y-98550000D01*
X186380000Y-100630000D02*
X186380000Y-102126000D01*
X186420000Y-97062000D02*
X186420000Y-98550000D01*
X186420000Y-100630000D02*
X186420000Y-102118000D01*
X186460000Y-97071000D02*
X186460000Y-98550000D01*
X186460000Y-100630000D02*
X186460000Y-102109000D01*
X186500000Y-97080000D02*
X186500000Y-98550000D01*
X186500000Y-100630000D02*
X186500000Y-102100000D01*
X186540000Y-97089000D02*
X186540000Y-98550000D01*
X186540000Y-100630000D02*
X186540000Y-102091000D01*
X186580000Y-97100000D02*
X186580000Y-98550000D01*
X186580000Y-100630000D02*
X186580000Y-102080000D01*
X186620000Y-97111000D02*
X186620000Y-98550000D01*
X186620000Y-100630000D02*
X186620000Y-102069000D01*
X186660000Y-97123000D02*
X186660000Y-98550000D01*
X186660000Y-100630000D02*
X186660000Y-102057000D01*
X186700000Y-97135000D02*
X186700000Y-98550000D01*
X186700000Y-100630000D02*
X186700000Y-102045000D01*
X186740000Y-97148000D02*
X186740000Y-98550000D01*
X186740000Y-100630000D02*
X186740000Y-102032000D01*
X186780000Y-97162000D02*
X186780000Y-98550000D01*
X186780000Y-100630000D02*
X186780000Y-102018000D01*
X186820000Y-97177000D02*
X186820000Y-98550000D01*
X186820000Y-100630000D02*
X186820000Y-102003000D01*
X186860000Y-97192000D02*
X186860000Y-98550000D01*
X186860000Y-100630000D02*
X186860000Y-101988000D01*
X186900000Y-97208000D02*
X186900000Y-98550000D01*
X186900000Y-100630000D02*
X186900000Y-101972000D01*
X186940000Y-97225000D02*
X186940000Y-98550000D01*
X186940000Y-100630000D02*
X186940000Y-101955000D01*
X186980000Y-97243000D02*
X186980000Y-98550000D01*
X186980000Y-100630000D02*
X186980000Y-101937000D01*
X187020000Y-97261000D02*
X187020000Y-98550000D01*
X187020000Y-100630000D02*
X187020000Y-101919000D01*
X187060000Y-97281000D02*
X187060000Y-98550000D01*
X187060000Y-100630000D02*
X187060000Y-101899000D01*
X187100000Y-97301000D02*
X187100000Y-98550000D01*
X187100000Y-100630000D02*
X187100000Y-101879000D01*
X187140000Y-97322000D02*
X187140000Y-98550000D01*
X187140000Y-100630000D02*
X187140000Y-101858000D01*
X187180000Y-97344000D02*
X187180000Y-98550000D01*
X187180000Y-100630000D02*
X187180000Y-101836000D01*
X187220000Y-97367000D02*
X187220000Y-98550000D01*
X187220000Y-100630000D02*
X187220000Y-101813000D01*
X187260000Y-97391000D02*
X187260000Y-98550000D01*
X187260000Y-100630000D02*
X187260000Y-101789000D01*
X187300000Y-97415000D02*
X187300000Y-98550000D01*
X187300000Y-100630000D02*
X187300000Y-101765000D01*
X187340000Y-97441000D02*
X187340000Y-98550000D01*
X187340000Y-100630000D02*
X187340000Y-101739000D01*
X187380000Y-97468000D02*
X187380000Y-98550000D01*
X187380000Y-100630000D02*
X187380000Y-101712000D01*
X187420000Y-97496000D02*
X187420000Y-98550000D01*
X187420000Y-100630000D02*
X187420000Y-101684000D01*
X187460000Y-97525000D02*
X187460000Y-98550000D01*
X187460000Y-100630000D02*
X187460000Y-101655000D01*
X187500000Y-97555000D02*
X187500000Y-98550000D01*
X187500000Y-100630000D02*
X187500000Y-101625000D01*
X187540000Y-97587000D02*
X187540000Y-98550000D01*
X187540000Y-100630000D02*
X187540000Y-101593000D01*
X187580000Y-97620000D02*
X187580000Y-98550000D01*
X187580000Y-100630000D02*
X187580000Y-101560000D01*
X187620000Y-97654000D02*
X187620000Y-98550000D01*
X187620000Y-100630000D02*
X187620000Y-101526000D01*
X187660000Y-97689000D02*
X187660000Y-98550000D01*
X187660000Y-100630000D02*
X187660000Y-101491000D01*
X187700000Y-97726000D02*
X187700000Y-98550000D01*
X187700000Y-100630000D02*
X187700000Y-101454000D01*
X187740000Y-97765000D02*
X187740000Y-98550000D01*
X187740000Y-100630000D02*
X187740000Y-101415000D01*
X187780000Y-97805000D02*
X187780000Y-98550000D01*
X187780000Y-100630000D02*
X187780000Y-101375000D01*
X187820000Y-97847000D02*
X187820000Y-98550000D01*
X187820000Y-100630000D02*
X187820000Y-101333000D01*
X187860000Y-97891000D02*
X187860000Y-98550000D01*
X187860000Y-100630000D02*
X187860000Y-101289000D01*
X187900000Y-97938000D02*
X187900000Y-98550000D01*
X187900000Y-100630000D02*
X187900000Y-101242000D01*
X187940000Y-97986000D02*
X187940000Y-101194000D01*
X187980000Y-98037000D02*
X187980000Y-101143000D01*
X188020000Y-98091000D02*
X188020000Y-101089000D01*
X188060000Y-98147000D02*
X188060000Y-101033000D01*
X188100000Y-98207000D02*
X188100000Y-100973000D01*
X188140000Y-98271000D02*
X188140000Y-100909000D01*
X188180000Y-98339000D02*
X188180000Y-100841000D01*
X188220000Y-98413000D02*
X188220000Y-100767000D01*
X188260000Y-98492000D02*
X188260000Y-100688000D01*
X188300000Y-98579000D02*
X188300000Y-100601000D01*
X188340000Y-98676000D02*
X188340000Y-100504000D01*
X188380000Y-98785000D02*
X188380000Y-100395000D01*
X188420000Y-98913000D02*
X188420000Y-100267000D01*
X188460000Y-99073000D02*
X188460000Y-100107000D01*
X188500000Y-99307000D02*
X188500000Y-99873000D01*
X188520000Y-99590000D02*
G75*
G02*
X183280000Y-99590000I-2620000J0D01*
G01*
X183280000Y-99590000D02*
G75*
G02*
X188520000Y-99590000I2620000J0D01*
G01*
%TO.C,C1*%
X95935225Y-143985000D02*
X96435225Y-143985000D01*
X96185225Y-143735000D02*
X96185225Y-144235000D01*
X98740000Y-142880000D02*
X98740000Y-144420000D01*
X98740000Y-146500000D02*
X98740000Y-148040000D01*
X98780000Y-142880000D02*
X98780000Y-144420000D01*
X98780000Y-146500000D02*
X98780000Y-148040000D01*
X98820000Y-142881000D02*
X98820000Y-144420000D01*
X98820000Y-146500000D02*
X98820000Y-148039000D01*
X98860000Y-142883000D02*
X98860000Y-144420000D01*
X98860000Y-146500000D02*
X98860000Y-148037000D01*
X98900000Y-142885000D02*
X98900000Y-144420000D01*
X98900000Y-146500000D02*
X98900000Y-148035000D01*
X98940000Y-142888000D02*
X98940000Y-144420000D01*
X98940000Y-146500000D02*
X98940000Y-148032000D01*
X98980000Y-142891000D02*
X98980000Y-144420000D01*
X98980000Y-146500000D02*
X98980000Y-148029000D01*
X99020000Y-142895000D02*
X99020000Y-144420000D01*
X99020000Y-146500000D02*
X99020000Y-148025000D01*
X99060000Y-142900000D02*
X99060000Y-144420000D01*
X99060000Y-146500000D02*
X99060000Y-148020000D01*
X99100000Y-142905000D02*
X99100000Y-144420000D01*
X99100000Y-146500000D02*
X99100000Y-148015000D01*
X99140000Y-142911000D02*
X99140000Y-144420000D01*
X99140000Y-146500000D02*
X99140000Y-148009000D01*
X99180000Y-142917000D02*
X99180000Y-144420000D01*
X99180000Y-146500000D02*
X99180000Y-148003000D01*
X99220000Y-142924000D02*
X99220000Y-144420000D01*
X99220000Y-146500000D02*
X99220000Y-147996000D01*
X99260000Y-142932000D02*
X99260000Y-144420000D01*
X99260000Y-146500000D02*
X99260000Y-147988000D01*
X99300000Y-142941000D02*
X99300000Y-144420000D01*
X99300000Y-146500000D02*
X99300000Y-147979000D01*
X99340000Y-142950000D02*
X99340000Y-144420000D01*
X99340000Y-146500000D02*
X99340000Y-147970000D01*
X99380000Y-142959000D02*
X99380000Y-144420000D01*
X99380000Y-146500000D02*
X99380000Y-147961000D01*
X99420000Y-142970000D02*
X99420000Y-144420000D01*
X99420000Y-146500000D02*
X99420000Y-147950000D01*
X99460000Y-142981000D02*
X99460000Y-144420000D01*
X99460000Y-146500000D02*
X99460000Y-147939000D01*
X99500000Y-142993000D02*
X99500000Y-144420000D01*
X99500000Y-146500000D02*
X99500000Y-147927000D01*
X99540000Y-143005000D02*
X99540000Y-144420000D01*
X99540000Y-146500000D02*
X99540000Y-147915000D01*
X99580000Y-143018000D02*
X99580000Y-144420000D01*
X99580000Y-146500000D02*
X99580000Y-147902000D01*
X99620000Y-143032000D02*
X99620000Y-144420000D01*
X99620000Y-146500000D02*
X99620000Y-147888000D01*
X99660000Y-143047000D02*
X99660000Y-144420000D01*
X99660000Y-146500000D02*
X99660000Y-147873000D01*
X99700000Y-143062000D02*
X99700000Y-144420000D01*
X99700000Y-146500000D02*
X99700000Y-147858000D01*
X99740000Y-143078000D02*
X99740000Y-144420000D01*
X99740000Y-146500000D02*
X99740000Y-147842000D01*
X99780000Y-143095000D02*
X99780000Y-144420000D01*
X99780000Y-146500000D02*
X99780000Y-147825000D01*
X99820000Y-143113000D02*
X99820000Y-144420000D01*
X99820000Y-146500000D02*
X99820000Y-147807000D01*
X99860000Y-143131000D02*
X99860000Y-144420000D01*
X99860000Y-146500000D02*
X99860000Y-147789000D01*
X99900000Y-143151000D02*
X99900000Y-144420000D01*
X99900000Y-146500000D02*
X99900000Y-147769000D01*
X99940000Y-143171000D02*
X99940000Y-144420000D01*
X99940000Y-146500000D02*
X99940000Y-147749000D01*
X99980000Y-143192000D02*
X99980000Y-144420000D01*
X99980000Y-146500000D02*
X99980000Y-147728000D01*
X100020000Y-143214000D02*
X100020000Y-144420000D01*
X100020000Y-146500000D02*
X100020000Y-147706000D01*
X100060000Y-143237000D02*
X100060000Y-144420000D01*
X100060000Y-146500000D02*
X100060000Y-147683000D01*
X100100000Y-143261000D02*
X100100000Y-144420000D01*
X100100000Y-146500000D02*
X100100000Y-147659000D01*
X100140000Y-143285000D02*
X100140000Y-144420000D01*
X100140000Y-146500000D02*
X100140000Y-147635000D01*
X100180000Y-143311000D02*
X100180000Y-144420000D01*
X100180000Y-146500000D02*
X100180000Y-147609000D01*
X100220000Y-143338000D02*
X100220000Y-144420000D01*
X100220000Y-146500000D02*
X100220000Y-147582000D01*
X100260000Y-143366000D02*
X100260000Y-144420000D01*
X100260000Y-146500000D02*
X100260000Y-147554000D01*
X100300000Y-143395000D02*
X100300000Y-144420000D01*
X100300000Y-146500000D02*
X100300000Y-147525000D01*
X100340000Y-143425000D02*
X100340000Y-144420000D01*
X100340000Y-146500000D02*
X100340000Y-147495000D01*
X100380000Y-143457000D02*
X100380000Y-144420000D01*
X100380000Y-146500000D02*
X100380000Y-147463000D01*
X100420000Y-143490000D02*
X100420000Y-144420000D01*
X100420000Y-146500000D02*
X100420000Y-147430000D01*
X100460000Y-143524000D02*
X100460000Y-144420000D01*
X100460000Y-146500000D02*
X100460000Y-147396000D01*
X100500000Y-143559000D02*
X100500000Y-144420000D01*
X100500000Y-146500000D02*
X100500000Y-147361000D01*
X100540000Y-143596000D02*
X100540000Y-144420000D01*
X100540000Y-146500000D02*
X100540000Y-147324000D01*
X100580000Y-143635000D02*
X100580000Y-144420000D01*
X100580000Y-146500000D02*
X100580000Y-147285000D01*
X100620000Y-143675000D02*
X100620000Y-144420000D01*
X100620000Y-146500000D02*
X100620000Y-147245000D01*
X100660000Y-143717000D02*
X100660000Y-144420000D01*
X100660000Y-146500000D02*
X100660000Y-147203000D01*
X100700000Y-143761000D02*
X100700000Y-144420000D01*
X100700000Y-146500000D02*
X100700000Y-147159000D01*
X100740000Y-143808000D02*
X100740000Y-144420000D01*
X100740000Y-146500000D02*
X100740000Y-147112000D01*
X100780000Y-143856000D02*
X100780000Y-147064000D01*
X100820000Y-143907000D02*
X100820000Y-147013000D01*
X100860000Y-143961000D02*
X100860000Y-146959000D01*
X100900000Y-144017000D02*
X100900000Y-146903000D01*
X100940000Y-144077000D02*
X100940000Y-146843000D01*
X100980000Y-144141000D02*
X100980000Y-146779000D01*
X101020000Y-144209000D02*
X101020000Y-146711000D01*
X101060000Y-144283000D02*
X101060000Y-146637000D01*
X101100000Y-144362000D02*
X101100000Y-146558000D01*
X101140000Y-144449000D02*
X101140000Y-146471000D01*
X101180000Y-144546000D02*
X101180000Y-146374000D01*
X101220000Y-144655000D02*
X101220000Y-146265000D01*
X101260000Y-144783000D02*
X101260000Y-146137000D01*
X101300000Y-144943000D02*
X101300000Y-145977000D01*
X101340000Y-145177000D02*
X101340000Y-145743000D01*
X101360000Y-145460000D02*
G75*
G02*
X96120000Y-145460000I-2620000J0D01*
G01*
X96120000Y-145460000D02*
G75*
G02*
X101360000Y-145460000I2620000J0D01*
G01*
%TO.C,C16*%
X174610000Y-98220000D02*
X179850000Y-98220000D01*
X174610000Y-100960000D02*
X174610000Y-98220000D01*
X179850000Y-98220000D02*
X179850000Y-100960000D01*
X179850000Y-100960000D02*
X174610000Y-100960000D01*
%TO.C,C19*%
X239480000Y-117940000D02*
X244720000Y-117940000D01*
X239480000Y-120680000D02*
X239480000Y-117940000D01*
X244720000Y-117940000D02*
X244720000Y-120680000D01*
X244720000Y-120680000D02*
X239480000Y-120680000D01*
%TD*%
M02*
