%TF.GenerationSoftware,KiCad,Pcbnew,10.0.1*%
%TF.CreationDate,2026-09-29T18:53:27-04:00*%
%TF.ProjectId,PB450-riser,50423435-302d-4726-9973-65722e6b6963,rev?*%
%TF.SameCoordinates,Original*%
%TF.FileFunction,Copper,L3,Inr*%
%TF.FilePolarity,Positive*%
%FSLAX46Y46*%
G04 Gerber Fmt 4.6, Leading zero omitted, Abs format (unit mm)*
G04 Created by KiCad (PCBNEW 10.0.1) date 2026-09-29 18:53:27*
%MOMM*%
%LPD*%
G01*
G04 APERTURE LIST*
G04 Aperture macros list*
%AMRoundRect*
0 Rectangle with rounded corners*
0 $1 Rounding radius*
0 $2 $3 $4 $5 $6 $7 $8 $9 X,Y pos of 4 corners*
0 Add a 4 corners polygon primitive as box body*
4,1,4,$2,$3,$4,$5,$6,$7,$8,$9,$2,$3,0*
0 Add four circle primitives for the rounded corners*
1,1,$1+$1,$2,$3*
1,1,$1+$1,$4,$5*
1,1,$1+$1,$6,$7*
1,1,$1+$1,$8,$9*
0 Add four rect primitives between the rounded corners*
20,1,$1+$1,$2,$3,$4,$5,0*
20,1,$1+$1,$4,$5,$6,$7,0*
20,1,$1+$1,$6,$7,$8,$9,0*
20,1,$1+$1,$8,$9,$2,$3,0*%
%AMFreePoly0*
4,1,18,-0.810000,0.486000,-0.486000,0.810000,0.761400,0.810000,0.779998,0.806301,0.795765,0.795765,0.806301,0.779998,0.810000,0.761400,0.810000,-0.761400,0.806301,-0.779998,0.795765,-0.795765,0.779998,-0.806301,0.761400,-0.810000,-0.761400,-0.810000,-0.779998,-0.806301,-0.795765,-0.795765,-0.806301,-0.779998,-0.810000,-0.761400,-0.810000,0.486000,-0.810000,0.486000,$1*%
G04 Aperture macros list end*
%TA.AperFunction,ComponentPad*%
%ADD10RoundRect,0.250000X-0.550000X-0.550000X0.550000X-0.550000X0.550000X0.550000X-0.550000X0.550000X0*%
%TD*%
%TA.AperFunction,ComponentPad*%
%ADD11C,1.600000*%
%TD*%
%TA.AperFunction,ComponentPad*%
%ADD12C,1.620000*%
%TD*%
%TA.AperFunction,ComponentPad*%
%ADD13FreePoly0,0.000000*%
%TD*%
%TA.AperFunction,ComponentPad*%
%ADD14RoundRect,0.250000X-0.560000X-0.560000X0.560000X-0.560000X0.560000X0.560000X-0.560000X0.560000X0*%
%TD*%
%TA.AperFunction,ViaPad*%
%ADD15C,0.600000*%
%TD*%
%TA.AperFunction,Conductor*%
%ADD16C,0.200000*%
%TD*%
G04 APERTURE END LIST*
D10*
%TO.N,+5V*%
%TO.C,C18*%
X203194775Y-99675000D03*
D11*
%TO.N,GND*%
X205194775Y-99675000D03*
%TD*%
%TO.N,+5V*%
%TO.C,C19*%
X243350000Y-119310000D03*
%TO.N,GND*%
X240850000Y-119310000D03*
%TD*%
%TO.N,GND*%
%TO.C,C14*%
X187680000Y-126890000D03*
%TO.N,+5V*%
X190180000Y-126890000D03*
%TD*%
%TO.N,GND*%
%TO.C,C13*%
X187620000Y-151850000D03*
%TO.N,+5V*%
X190120000Y-151850000D03*
%TD*%
%TO.N,GND*%
%TO.C,C15*%
X188790000Y-116500000D03*
%TO.N,+5V*%
X191290000Y-116500000D03*
%TD*%
%TO.N,GND*%
%TO.C,C6*%
X103600000Y-115940000D03*
%TO.N,+5V*%
X106100000Y-115940000D03*
%TD*%
%TO.N,GND*%
%TO.C,C5*%
X117170000Y-142410000D03*
%TO.N,+5V*%
X119670000Y-142410000D03*
%TD*%
%TO.N,GND*%
%TO.C,C4*%
X100830000Y-131000000D03*
%TO.N,+5V*%
X103330000Y-131000000D03*
%TD*%
%TO.N,GND*%
%TO.C,C1*%
X99740000Y-145460000D03*
D10*
%TO.N,+5V*%
X97740000Y-145460000D03*
%TD*%
D11*
%TO.N,GND*%
%TO.C,C3*%
X102470000Y-95280000D03*
%TO.N,+5V*%
X104970000Y-95280000D03*
%TD*%
D10*
%TO.N,+5V*%
%TO.C,C2*%
X95994888Y-102720000D03*
D11*
%TO.N,GND*%
X97994888Y-102720000D03*
%TD*%
D10*
%TO.N,+5V*%
%TO.C,C21*%
X243000000Y-136430000D03*
D11*
%TO.N,GND*%
X245000000Y-136430000D03*
%TD*%
%TO.N,GND*%
%TO.C,C23*%
X242790000Y-142240000D03*
%TO.N,+5V*%
X245290000Y-142240000D03*
%TD*%
%TO.N,GND*%
%TO.C,C22*%
X241380000Y-124140000D03*
%TO.N,+5V*%
X243880000Y-124140000D03*
%TD*%
D10*
%TO.N,+5V*%
%TO.C,C20*%
X234074888Y-98070000D03*
D11*
%TO.N,GND*%
X236074888Y-98070000D03*
%TD*%
%TO.N,GND*%
%TO.C,C17*%
X186900000Y-99590000D03*
D10*
%TO.N,+5V*%
X184900000Y-99590000D03*
%TD*%
D11*
%TO.N,+5V*%
%TO.C,C12*%
X129690000Y-89500000D03*
%TO.N,GND*%
X132190000Y-89500000D03*
%TD*%
D12*
%TO.N,Net-(J1-~{IO_CH_CK})*%
%TO.C,J1*%
X108000000Y-146600000D03*
%TO.N,/SD7*%
X110540000Y-146600000D03*
%TO.N,/SD6*%
X113080000Y-146600000D03*
%TO.N,/SD5*%
X115620000Y-146600000D03*
%TO.N,/SD4*%
X118160000Y-146600000D03*
%TO.N,/SD3*%
X120700000Y-146600000D03*
%TO.N,/SD2*%
X123240000Y-146600000D03*
%TO.N,/SD1*%
X125780000Y-146600000D03*
%TO.N,/SD0*%
X128320000Y-146600000D03*
%TO.N,Net-(J1-IO_CH_RDY)*%
X130860000Y-146600000D03*
%TO.N,Net-(J1-AEN)*%
X133400000Y-146600000D03*
%TO.N,/SA19*%
X135940000Y-146600000D03*
%TO.N,/SA18*%
X138480000Y-146600000D03*
%TO.N,/SA17*%
X141020000Y-146600000D03*
%TO.N,/SA16*%
X143560000Y-146600000D03*
%TO.N,/SA15*%
X146100000Y-146600000D03*
%TO.N,/SA14*%
X148640000Y-146600000D03*
%TO.N,/SA13*%
X151180000Y-146600000D03*
%TO.N,/SA12*%
X153720000Y-146600000D03*
%TO.N,/SA11*%
X156260000Y-146600000D03*
%TO.N,/SA10*%
X158800000Y-146600000D03*
%TO.N,/SA9*%
X161340000Y-146600000D03*
%TO.N,/SA8*%
X163880000Y-146600000D03*
%TO.N,/SA7*%
X166420000Y-146600000D03*
%TO.N,/SA6*%
X168960000Y-146600000D03*
%TO.N,/SA5*%
X171500000Y-146600000D03*
%TO.N,/SA4*%
X174040000Y-146600000D03*
%TO.N,/SA3*%
X176580000Y-146600000D03*
%TO.N,/SA2*%
X179120000Y-146600000D03*
%TO.N,/SA1*%
X181660000Y-146600000D03*
%TO.N,/SA0*%
X184200000Y-146600000D03*
D13*
%TO.N,GND*%
X108000000Y-151680000D03*
D12*
%TO.N,Net-(J1-RESETDRV)*%
X110540000Y-151680000D03*
%TO.N,+5V*%
X113080000Y-151680000D03*
%TO.N,Net-(J1-IRQ9)*%
X115620000Y-151680000D03*
%TO.N,-5V*%
X118160000Y-151680000D03*
%TO.N,Net-(J1-DRQ2)*%
X120700000Y-151680000D03*
%TO.N,-12V*%
X123240000Y-151680000D03*
%TO.N,Net-(J1-~{0WS})*%
X125780000Y-151680000D03*
%TO.N,+12V*%
X128320000Y-151680000D03*
D14*
%TO.N,GND*%
X130860000Y-151680000D03*
D12*
%TO.N,Net-(J1-~{SMEMW})*%
X133400000Y-151680000D03*
%TO.N,Net-(J1-~{SMEMR})*%
X135940000Y-151680000D03*
%TO.N,Net-(J1-~{IOW})*%
X138480000Y-151680000D03*
%TO.N,Net-(J1-~{IOR})*%
X141020000Y-151680000D03*
%TO.N,Net-(J1-~{DACK3})*%
X143560000Y-151680000D03*
%TO.N,Net-(J1-DRQ3)*%
X146100000Y-151680000D03*
%TO.N,Net-(J1-~{DACK1})*%
X148640000Y-151680000D03*
%TO.N,Net-(J1-DRQ1)*%
X151180000Y-151680000D03*
%TO.N,Net-(J1-~{REFRESH})*%
X153720000Y-151680000D03*
%TO.N,Net-(J1-SYSCLK)*%
X156260000Y-151680000D03*
%TO.N,Net-(J1-IRQ7)*%
X158800000Y-151680000D03*
%TO.N,Net-(J1-IRQ6)*%
X161340000Y-151680000D03*
%TO.N,Net-(J1-IRQ5)*%
X163880000Y-151680000D03*
%TO.N,Net-(J1-IRQ4)*%
X166420000Y-151680000D03*
%TO.N,Net-(J1-IRQ3)*%
X168960000Y-151680000D03*
%TO.N,Net-(J1-~{DACK2})*%
X171500000Y-151680000D03*
%TO.N,Net-(J1-TC)*%
X174040000Y-151680000D03*
%TO.N,Net-(J1-BALE)*%
X176580000Y-151680000D03*
%TO.N,+5V*%
X179120000Y-151680000D03*
%TO.N,Net-(J1-OSC)*%
X181660000Y-151680000D03*
D14*
%TO.N,GND*%
X184200000Y-151680000D03*
D12*
%TO.N,Net-(J1-SBHE)*%
X194360000Y-146600000D03*
%TO.N,/LA23*%
X196900000Y-146600000D03*
%TO.N,/LA22*%
X199440000Y-146600000D03*
%TO.N,/LA21*%
X201980000Y-146600000D03*
%TO.N,/LA20*%
X204520000Y-146600000D03*
%TO.N,/LA19*%
X207060000Y-146600000D03*
%TO.N,/LA18*%
X209600000Y-146600000D03*
%TO.N,/LA17*%
X212140000Y-146600000D03*
%TO.N,Net-(J1-~{MEMR})*%
X214680000Y-146600000D03*
%TO.N,Net-(J1-~{MEMW})*%
X217220000Y-146600000D03*
%TO.N,/SD8*%
X219760000Y-146600000D03*
%TO.N,/SD9*%
X222300000Y-146600000D03*
%TO.N,/SD10*%
X224840000Y-146600000D03*
%TO.N,/SD11*%
X227380000Y-146600000D03*
%TO.N,/SD12*%
X229920000Y-146600000D03*
%TO.N,/SD13*%
X232460000Y-146600000D03*
%TO.N,/SD14*%
X235000000Y-146600000D03*
%TO.N,/SD15*%
X237540000Y-146600000D03*
%TO.N,Net-(J1-~{MEMCS16})*%
X194360000Y-151680000D03*
%TO.N,Net-(J1-~{IOCS16})*%
X196900000Y-151680000D03*
%TO.N,Net-(J1-IRQ10)*%
X199440000Y-151680000D03*
%TO.N,Net-(J1-IRQ11)*%
X201980000Y-151680000D03*
%TO.N,Net-(J1-IRQ12)*%
X204520000Y-151680000D03*
%TO.N,Net-(J1-IRQ15)*%
X207060000Y-151680000D03*
%TO.N,Net-(J1-IRQ14)*%
X209600000Y-151680000D03*
%TO.N,Net-(J1-~{DACK0})*%
X212140000Y-151680000D03*
%TO.N,Net-(J1-DRQ0)*%
X214680000Y-151680000D03*
%TO.N,Net-(J1-~{DACK5})*%
X217220000Y-151680000D03*
%TO.N,Net-(J1-DRQ5)*%
X219760000Y-151680000D03*
%TO.N,Net-(J1-~{DACK6})*%
X222300000Y-151680000D03*
%TO.N,Net-(J1-DRQ6)*%
X224840000Y-151680000D03*
%TO.N,Net-(J1-~{DACK7})*%
X227380000Y-151680000D03*
%TO.N,Net-(J1-DRQ7)*%
X229920000Y-151680000D03*
%TO.N,+5V*%
X232460000Y-151680000D03*
%TO.N,Net-(J1-~{MASTER})*%
X235000000Y-151680000D03*
D14*
%TO.N,GND*%
X237540000Y-151680000D03*
%TD*%
D11*
%TO.N,GND*%
%TO.C,C8*%
X112170000Y-89500000D03*
%TO.N,-5V*%
X114670000Y-89500000D03*
%TD*%
D10*
%TO.N,GND*%
%TO.C,C7*%
X112464888Y-98380000D03*
D11*
%TO.N,-5V*%
X114464888Y-98380000D03*
%TD*%
D10*
%TO.N,+5V*%
%TO.C,C11*%
X129984888Y-98380000D03*
D11*
%TO.N,GND*%
X131984888Y-98380000D03*
%TD*%
D10*
%TO.N,GND*%
%TO.C,C9*%
X121654888Y-98380000D03*
D11*
%TO.N,-12V*%
X123654888Y-98380000D03*
%TD*%
D12*
%TO.N,Net-(J1-~{IO_CH_CK})*%
%TO.C,J2*%
X108006692Y-126599998D03*
%TO.N,/SD7*%
X110546692Y-126599998D03*
%TO.N,/SD6*%
X113086692Y-126599998D03*
%TO.N,/SD5*%
X115626692Y-126599998D03*
%TO.N,/SD4*%
X118166692Y-126599998D03*
%TO.N,/SD3*%
X120706692Y-126599998D03*
%TO.N,/SD2*%
X123246692Y-126599998D03*
%TO.N,/SD1*%
X125786692Y-126599998D03*
%TO.N,/SD0*%
X128326692Y-126599998D03*
%TO.N,Net-(J1-IO_CH_RDY)*%
X130866692Y-126599998D03*
%TO.N,Net-(J1-AEN)*%
X133406692Y-126599998D03*
%TO.N,/SA19*%
X135946692Y-126599998D03*
%TO.N,/SA18*%
X138486692Y-126599998D03*
%TO.N,/SA17*%
X141026692Y-126599998D03*
%TO.N,/SA16*%
X143566692Y-126599998D03*
%TO.N,/SA15*%
X146106692Y-126599998D03*
%TO.N,/SA14*%
X148646692Y-126599998D03*
%TO.N,/SA13*%
X151186692Y-126599998D03*
%TO.N,/SA12*%
X153726692Y-126599998D03*
%TO.N,/SA11*%
X156266692Y-126599998D03*
%TO.N,/SA10*%
X158806692Y-126599998D03*
%TO.N,/SA9*%
X161346692Y-126599998D03*
%TO.N,/SA8*%
X163886692Y-126599998D03*
%TO.N,/SA7*%
X166426692Y-126599998D03*
%TO.N,/SA6*%
X168966692Y-126599998D03*
%TO.N,/SA5*%
X171506692Y-126599998D03*
%TO.N,/SA4*%
X174046692Y-126599998D03*
%TO.N,/SA3*%
X176586692Y-126599998D03*
%TO.N,/SA2*%
X179126692Y-126599998D03*
%TO.N,/SA1*%
X181666692Y-126599998D03*
%TO.N,/SA0*%
X184206692Y-126599998D03*
D13*
%TO.N,GND*%
X108006692Y-131679998D03*
D12*
%TO.N,Net-(J1-RESETDRV)*%
X110546692Y-131679998D03*
%TO.N,+5V*%
X113086692Y-131679998D03*
%TO.N,Net-(J1-IRQ9)*%
X115626692Y-131679998D03*
%TO.N,-5V*%
X118166692Y-131679998D03*
%TO.N,Net-(J1-DRQ2)*%
X120706692Y-131679998D03*
%TO.N,-12V*%
X123246692Y-131679998D03*
%TO.N,Net-(J1-~{0WS})*%
X125786692Y-131679998D03*
%TO.N,+12V*%
X128326692Y-131679998D03*
D14*
%TO.N,GND*%
X130866692Y-131679998D03*
D12*
%TO.N,Net-(J1-~{SMEMW})*%
X133406692Y-131679998D03*
%TO.N,Net-(J1-~{SMEMR})*%
X135946692Y-131679998D03*
%TO.N,Net-(J1-~{IOW})*%
X138486692Y-131679998D03*
%TO.N,Net-(J1-~{IOR})*%
X141026692Y-131679998D03*
%TO.N,Net-(J1-~{DACK3})*%
X143566692Y-131679998D03*
%TO.N,Net-(J1-DRQ3)*%
X146106692Y-131679998D03*
%TO.N,Net-(J1-~{DACK1})*%
X148646692Y-131679998D03*
%TO.N,Net-(J1-DRQ1)*%
X151186692Y-131679998D03*
%TO.N,Net-(J1-~{REFRESH})*%
X153726692Y-131679998D03*
%TO.N,Net-(J1-SYSCLK)*%
X156266692Y-131679998D03*
%TO.N,Net-(J1-IRQ7)*%
X158806692Y-131679998D03*
%TO.N,Net-(J1-IRQ6)*%
X161346692Y-131679998D03*
%TO.N,Net-(J1-IRQ5)*%
X163886692Y-131679998D03*
%TO.N,Net-(J1-IRQ4)*%
X166426692Y-131679998D03*
%TO.N,Net-(J1-IRQ3)*%
X168966692Y-131679998D03*
%TO.N,Net-(J1-~{DACK2})*%
X171506692Y-131679998D03*
%TO.N,Net-(J1-TC)*%
X174046692Y-131679998D03*
%TO.N,Net-(J1-BALE)*%
X176586692Y-131679998D03*
%TO.N,+5V*%
X179126692Y-131679998D03*
%TO.N,Net-(J1-OSC)*%
X181666692Y-131679998D03*
D14*
%TO.N,GND*%
X184206692Y-131679998D03*
D12*
%TO.N,Net-(J1-SBHE)*%
X194366692Y-126599998D03*
%TO.N,/LA23*%
X196906692Y-126599998D03*
%TO.N,/LA22*%
X199446692Y-126599998D03*
%TO.N,/LA21*%
X201986692Y-126599998D03*
%TO.N,/LA20*%
X204526692Y-126599998D03*
%TO.N,/LA19*%
X207066692Y-126599998D03*
%TO.N,/LA18*%
X209606692Y-126599998D03*
%TO.N,/LA17*%
X212146692Y-126599998D03*
%TO.N,Net-(J1-~{MEMR})*%
X214686692Y-126599998D03*
%TO.N,Net-(J1-~{MEMW})*%
X217226692Y-126599998D03*
%TO.N,/SD8*%
X219766692Y-126599998D03*
%TO.N,/SD9*%
X222306692Y-126599998D03*
%TO.N,/SD10*%
X224846692Y-126599998D03*
%TO.N,/SD11*%
X227386692Y-126599998D03*
%TO.N,/SD12*%
X229926692Y-126599998D03*
%TO.N,/SD13*%
X232466692Y-126599998D03*
%TO.N,/SD14*%
X235006692Y-126599998D03*
%TO.N,/SD15*%
X237546692Y-126599998D03*
%TO.N,Net-(J1-~{MEMCS16})*%
X194366692Y-131679998D03*
%TO.N,Net-(J1-~{IOCS16})*%
X196906692Y-131679998D03*
%TO.N,Net-(J1-IRQ10)*%
X199446692Y-131679998D03*
%TO.N,Net-(J1-IRQ11)*%
X201986692Y-131679998D03*
%TO.N,Net-(J1-IRQ12)*%
X204526692Y-131679998D03*
%TO.N,Net-(J1-IRQ15)*%
X207066692Y-131679998D03*
%TO.N,Net-(J1-IRQ14)*%
X209606692Y-131679998D03*
%TO.N,Net-(J1-~{DACK0})*%
X212146692Y-131679998D03*
%TO.N,Net-(J1-DRQ0)*%
X214686692Y-131679998D03*
%TO.N,Net-(J1-~{DACK5})*%
X217226692Y-131679998D03*
%TO.N,Net-(J1-DRQ5)*%
X219766692Y-131679998D03*
%TO.N,Net-(J1-~{DACK6})*%
X222306692Y-131679998D03*
%TO.N,Net-(J1-DRQ6)*%
X224846692Y-131679998D03*
%TO.N,Net-(J1-~{DACK7})*%
X227386692Y-131679998D03*
%TO.N,Net-(J1-DRQ7)*%
X229926692Y-131679998D03*
%TO.N,+5V*%
X232466692Y-131679998D03*
%TO.N,Net-(J1-~{MASTER})*%
X235006692Y-131679998D03*
D14*
%TO.N,GND*%
X237546692Y-131679998D03*
%TD*%
D12*
%TO.N,Net-(J1-~{IO_CH_CK})*%
%TO.C,J3*%
X108003348Y-106589998D03*
%TO.N,/SD7*%
X110543348Y-106589998D03*
%TO.N,/SD6*%
X113083348Y-106589998D03*
%TO.N,/SD5*%
X115623348Y-106589998D03*
%TO.N,/SD4*%
X118163348Y-106589998D03*
%TO.N,/SD3*%
X120703348Y-106589998D03*
%TO.N,/SD2*%
X123243348Y-106589998D03*
%TO.N,/SD1*%
X125783348Y-106589998D03*
%TO.N,/SD0*%
X128323348Y-106589998D03*
%TO.N,Net-(J1-IO_CH_RDY)*%
X130863348Y-106589998D03*
%TO.N,Net-(J1-AEN)*%
X133403348Y-106589998D03*
%TO.N,/SA19*%
X135943348Y-106589998D03*
%TO.N,/SA18*%
X138483348Y-106589998D03*
%TO.N,/SA17*%
X141023348Y-106589998D03*
%TO.N,/SA16*%
X143563348Y-106589998D03*
%TO.N,/SA15*%
X146103348Y-106589998D03*
%TO.N,/SA14*%
X148643348Y-106589998D03*
%TO.N,/SA13*%
X151183348Y-106589998D03*
%TO.N,/SA12*%
X153723348Y-106589998D03*
%TO.N,/SA11*%
X156263348Y-106589998D03*
%TO.N,/SA10*%
X158803348Y-106589998D03*
%TO.N,/SA9*%
X161343348Y-106589998D03*
%TO.N,/SA8*%
X163883348Y-106589998D03*
%TO.N,/SA7*%
X166423348Y-106589998D03*
%TO.N,/SA6*%
X168963348Y-106589998D03*
%TO.N,/SA5*%
X171503348Y-106589998D03*
%TO.N,/SA4*%
X174043348Y-106589998D03*
%TO.N,/SA3*%
X176583348Y-106589998D03*
%TO.N,/SA2*%
X179123348Y-106589998D03*
%TO.N,/SA1*%
X181663348Y-106589998D03*
%TO.N,/SA0*%
X184203348Y-106589998D03*
D13*
%TO.N,GND*%
X108003348Y-111669998D03*
D12*
%TO.N,Net-(J1-RESETDRV)*%
X110543348Y-111669998D03*
%TO.N,+5V*%
X113083348Y-111669998D03*
%TO.N,Net-(J1-IRQ9)*%
X115623348Y-111669998D03*
%TO.N,-5V*%
X118163348Y-111669998D03*
%TO.N,Net-(J1-DRQ2)*%
X120703348Y-111669998D03*
%TO.N,-12V*%
X123243348Y-111669998D03*
%TO.N,Net-(J1-~{0WS})*%
X125783348Y-111669998D03*
%TO.N,+12V*%
X128323348Y-111669998D03*
D14*
%TO.N,GND*%
X130863348Y-111669998D03*
D12*
%TO.N,Net-(J1-~{SMEMW})*%
X133403348Y-111669998D03*
%TO.N,Net-(J1-~{SMEMR})*%
X135943348Y-111669998D03*
%TO.N,Net-(J1-~{IOW})*%
X138483348Y-111669998D03*
%TO.N,Net-(J1-~{IOR})*%
X141023348Y-111669998D03*
%TO.N,Net-(J1-~{DACK3})*%
X143563348Y-111669998D03*
%TO.N,Net-(J1-DRQ3)*%
X146103348Y-111669998D03*
%TO.N,Net-(J1-~{DACK1})*%
X148643348Y-111669998D03*
%TO.N,Net-(J1-DRQ1)*%
X151183348Y-111669998D03*
%TO.N,Net-(J1-~{REFRESH})*%
X153723348Y-111669998D03*
%TO.N,Net-(J1-SYSCLK)*%
X156263348Y-111669998D03*
%TO.N,Net-(J1-IRQ7)*%
X158803348Y-111669998D03*
%TO.N,Net-(J1-IRQ6)*%
X161343348Y-111669998D03*
%TO.N,Net-(J1-IRQ5)*%
X163883348Y-111669998D03*
%TO.N,Net-(J1-IRQ4)*%
X166423348Y-111669998D03*
%TO.N,Net-(J1-IRQ3)*%
X168963348Y-111669998D03*
%TO.N,Net-(J1-~{DACK2})*%
X171503348Y-111669998D03*
%TO.N,Net-(J1-TC)*%
X174043348Y-111669998D03*
%TO.N,Net-(J1-BALE)*%
X176583348Y-111669998D03*
%TO.N,+5V*%
X179123348Y-111669998D03*
%TO.N,Net-(J1-OSC)*%
X181663348Y-111669998D03*
D14*
%TO.N,GND*%
X184203348Y-111669998D03*
D12*
%TO.N,Net-(J1-SBHE)*%
X194363348Y-106589998D03*
%TO.N,/LA23*%
X196903348Y-106589998D03*
%TO.N,/LA22*%
X199443348Y-106589998D03*
%TO.N,/LA21*%
X201983348Y-106589998D03*
%TO.N,/LA20*%
X204523348Y-106589998D03*
%TO.N,/LA19*%
X207063348Y-106589998D03*
%TO.N,/LA18*%
X209603348Y-106589998D03*
%TO.N,/LA17*%
X212143348Y-106589998D03*
%TO.N,Net-(J1-~{MEMR})*%
X214683348Y-106589998D03*
%TO.N,Net-(J1-~{MEMW})*%
X217223348Y-106589998D03*
%TO.N,/SD8*%
X219763348Y-106589998D03*
%TO.N,/SD9*%
X222303348Y-106589998D03*
%TO.N,/SD10*%
X224843348Y-106589998D03*
%TO.N,/SD11*%
X227383348Y-106589998D03*
%TO.N,/SD12*%
X229923348Y-106589998D03*
%TO.N,/SD13*%
X232463348Y-106589998D03*
%TO.N,/SD14*%
X235003348Y-106589998D03*
%TO.N,/SD15*%
X237543348Y-106589998D03*
%TO.N,Net-(J1-~{MEMCS16})*%
X194363348Y-111669998D03*
%TO.N,Net-(J1-~{IOCS16})*%
X196903348Y-111669998D03*
%TO.N,Net-(J1-IRQ10)*%
X199443348Y-111669998D03*
%TO.N,Net-(J1-IRQ11)*%
X201983348Y-111669998D03*
%TO.N,Net-(J1-IRQ12)*%
X204523348Y-111669998D03*
%TO.N,Net-(J1-IRQ15)*%
X207063348Y-111669998D03*
%TO.N,Net-(J1-IRQ14)*%
X209603348Y-111669998D03*
%TO.N,Net-(J1-~{DACK0})*%
X212143348Y-111669998D03*
%TO.N,Net-(J1-DRQ0)*%
X214683348Y-111669998D03*
%TO.N,Net-(J1-~{DACK5})*%
X217223348Y-111669998D03*
%TO.N,Net-(J1-DRQ5)*%
X219763348Y-111669998D03*
%TO.N,Net-(J1-~{DACK6})*%
X222303348Y-111669998D03*
%TO.N,Net-(J1-DRQ6)*%
X224843348Y-111669998D03*
%TO.N,Net-(J1-~{DACK7})*%
X227383348Y-111669998D03*
%TO.N,Net-(J1-DRQ7)*%
X229923348Y-111669998D03*
%TO.N,+5V*%
X232463348Y-111669998D03*
%TO.N,Net-(J1-~{MASTER})*%
X235003348Y-111669998D03*
D14*
%TO.N,GND*%
X237543348Y-111669998D03*
%TD*%
D11*
%TO.N,GND*%
%TO.C,C10*%
X121360000Y-89500000D03*
%TO.N,-12V*%
X123860000Y-89500000D03*
%TD*%
%TO.N,GND*%
%TO.C,C16*%
X175980000Y-99590000D03*
%TO.N,+5V*%
X178480000Y-99590000D03*
%TD*%
D15*
%TO.N,/SA13*%
X119876692Y-112920000D03*
X115630000Y-133060000D03*
X118676692Y-128650000D03*
X117630000Y-145280000D03*
X117630000Y-147797999D03*
X120980000Y-150200000D03*
X123710000Y-153060000D03*
%TO.N,Net-(J1-~{IOW})*%
X137740000Y-136530000D03*
X117670000Y-136530000D03*
X117210000Y-156848527D03*
%TO.N,/SA14*%
X117460000Y-112920000D03*
X116120000Y-128650000D03*
X118870000Y-144080000D03*
X116585002Y-137987514D03*
%TO.N,/SA16*%
X143566692Y-114653308D03*
X117336692Y-114670000D03*
X117656692Y-128650000D03*
X119740000Y-156750000D03*
%TO.N,/SA17*%
X141420000Y-114070000D03*
X113520000Y-128750000D03*
X115060000Y-113940000D03*
X112800000Y-133290000D03*
X112415000Y-147940000D03*
X112580000Y-145020000D03*
%TO.N,/SA19*%
X136326674Y-120686674D03*
X114590000Y-152780000D03*
X115710000Y-155530000D03*
X112330000Y-117820000D03*
%TO.N,Net-(J1-AEN)*%
X133406692Y-120580000D03*
X114850000Y-120610000D03*
X115320000Y-130070000D03*
X113760000Y-155920000D03*
%TO.N,Net-(J1-IO_CH_RDY)*%
X112576692Y-128050000D03*
X112360000Y-155450000D03*
%TO.N,/SD0*%
X100460469Y-124160426D03*
X128390000Y-123876949D03*
%TO.N,/SD1*%
X100118897Y-123437009D03*
X125786692Y-123380000D03*
%TO.N,/SD2*%
X99928247Y-122660056D03*
X123246692Y-122600000D03*
%TO.N,/SD3*%
X120706692Y-121850000D03*
X99650000Y-121910000D03*
%TO.N,Net-(J1-~{SMEMR})*%
X135440000Y-120400000D03*
X105930000Y-120960000D03*
X105839265Y-141939265D03*
%TO.N,Net-(J1-~{SMEMW})*%
X133670000Y-141100000D03*
%TO.N,+5V*%
X232466692Y-134910000D03*
X231356692Y-116380000D03*
%TO.N,GND*%
X236480000Y-105480000D03*
%TO.N,+5V*%
X231180000Y-105840000D03*
%TO.N,GND*%
X187760000Y-114170000D03*
%TO.N,+5V*%
X191700000Y-111190000D03*
%TO.N,GND*%
X170830000Y-109160000D03*
X186090000Y-108600000D03*
%TO.N,+5V*%
X175890000Y-105280000D03*
%TO.N,GND*%
X132040000Y-105560000D03*
X114490000Y-105530000D03*
X109433348Y-105640000D03*
%TO.N,+5V*%
X126950000Y-105490000D03*
%TO.N,/SD7*%
X110350000Y-120500000D03*
X95870000Y-120360000D03*
%TO.N,/SD6*%
X112870000Y-119640000D03*
X97470000Y-119760000D03*
%TO.N,/SD5*%
X115500000Y-119020000D03*
X98900000Y-119160000D03*
%TO.N,/SD4*%
X100400000Y-118420000D03*
X117990000Y-118520000D03*
%TO.N,/SA18*%
X108690000Y-135640000D03*
X136620000Y-134390000D03*
%TO.N,/SA15*%
X146200000Y-134870000D03*
X115380000Y-135690000D03*
%TO.N,/SA12*%
X154836692Y-134310000D03*
X150550000Y-134350000D03*
X150330000Y-136120000D03*
X123846692Y-137250000D03*
%TO.N,/SA11*%
X126510000Y-139610000D03*
X156213061Y-139827353D03*
%TO.N,/SA10*%
X158730000Y-139827354D03*
X132570000Y-145300000D03*
X131370000Y-148071472D03*
X132110000Y-140240000D03*
%TO.N,/SA9*%
X131250000Y-133680000D03*
X129980000Y-154968527D03*
X131180000Y-154920000D03*
X162456692Y-133680000D03*
%TO.N,/SA8*%
X132570000Y-152800000D03*
X164486692Y-138827354D03*
X131540000Y-138450000D03*
X131500000Y-144570000D03*
%TO.N,/SA7*%
X140100000Y-125350000D03*
X167550000Y-126980000D03*
%TO.N,/SA6*%
X169490000Y-139300000D03*
X142800000Y-139050000D03*
%TO.N,/SA5*%
X135140000Y-156030000D03*
X140150000Y-153890000D03*
%TO.N,/SA4*%
X174850000Y-134490000D03*
X138120000Y-145170000D03*
X137378528Y-153070000D03*
X138280000Y-134410000D03*
%TO.N,/SA3*%
X178290000Y-139910000D03*
X138200000Y-153070000D03*
X138720000Y-143820000D03*
X138720000Y-141110000D03*
%TO.N,/SA2*%
X140500000Y-133080000D03*
X139000003Y-153070000D03*
X140420000Y-144569568D03*
X180390000Y-131320000D03*
%TO.N,/SA1*%
X148270000Y-153572842D03*
X140820000Y-155330000D03*
X163270000Y-153462564D03*
%TO.N,/SA0*%
X142730000Y-147613509D03*
X142780000Y-145260000D03*
X185940000Y-129190000D03*
X141655348Y-155133877D03*
X142740000Y-132790000D03*
X141536692Y-129180000D03*
%TO.N,GND*%
X143580000Y-154500000D03*
X101380000Y-156750000D03*
X156023133Y-156990000D03*
X173750000Y-156661472D03*
X130860000Y-153240000D03*
%TO.N,+5V*%
X139560000Y-148670000D03*
X136546692Y-133040000D03*
X135430000Y-148340000D03*
X136520000Y-149550000D03*
X141530000Y-149630000D03*
X142500000Y-153320000D03*
%TO.N,Net-(J1-DRQ2)*%
X120542743Y-137700000D03*
%TO.N,-12V*%
X123246692Y-138960000D03*
%TO.N,Net-(J1-~{0WS})*%
X125786692Y-138460000D03*
%TO.N,+12V*%
X127810000Y-148050000D03*
X128444265Y-143904313D03*
X128326692Y-140510000D03*
%TO.N,Net-(J1-~{IOR})*%
X116784265Y-144725735D03*
X116500000Y-153370000D03*
X141630000Y-144300000D03*
%TO.N,Net-(J1-~{DACK3})*%
X121430000Y-132820000D03*
X121370000Y-145210000D03*
X121470000Y-109900000D03*
%TO.N,Net-(J1-DRQ3)*%
X124953348Y-109300000D03*
X123846692Y-133030000D03*
X123248259Y-145290024D03*
%TO.N,Net-(J1-~{DACK1})*%
X127493348Y-108700000D03*
X125160000Y-144750000D03*
X124956692Y-125560000D03*
X125120000Y-132960000D03*
%TO.N,Net-(J1-DRQ1)*%
X150490000Y-113380000D03*
X126390000Y-132940000D03*
X124950000Y-152860000D03*
X127990000Y-125260000D03*
X128020000Y-113380000D03*
%TO.N,Net-(J1-~{REFRESH})*%
X127440000Y-156838528D03*
X127725439Y-133539993D03*
X127842610Y-127932610D03*
X153160000Y-127930000D03*
%TO.N,Net-(J1-SYSCLK)*%
X129020000Y-124370000D03*
X129100000Y-133120000D03*
X128960000Y-154060560D03*
X128650000Y-155690000D03*
X129130000Y-144470000D03*
X155850000Y-123710000D03*
%TO.N,Net-(J1-IRQ7)*%
X158750000Y-128540000D03*
X130330000Y-147880000D03*
X130356692Y-133330000D03*
%TO.N,Net-(J1-IRQ6)*%
X161290000Y-115260000D03*
X134160000Y-115270000D03*
X133650000Y-129140000D03*
X133870000Y-145250000D03*
X134006692Y-133080000D03*
%TO.N,Net-(J1-IRQ5)*%
X128548634Y-145196466D03*
X163680000Y-117990000D03*
X134481472Y-154270000D03*
X128830000Y-147820000D03*
X128780000Y-128532610D03*
X129140000Y-117520000D03*
%TO.N,Net-(J1-IRQ4)*%
X136200000Y-156760000D03*
%TO.N,Net-(J1-IRQ3)*%
X169010000Y-115880000D03*
X135315685Y-153070000D03*
X136314265Y-155624265D03*
X135436692Y-115870000D03*
%TO.N,Net-(J1-~{DACK2})*%
X137530000Y-155110063D03*
X136070000Y-116470000D03*
X136720000Y-129600000D03*
X171500000Y-116760000D03*
%TO.N,Net-(J1-TC)*%
X140533884Y-149628689D03*
X141350000Y-117360000D03*
X138870000Y-154940000D03*
X173970000Y-117360000D03*
%TO.N,Net-(J1-OSC)*%
X143973410Y-155196587D03*
X182770000Y-145740000D03*
X145560000Y-147861250D03*
%TO.N,Net-(J1-SBHE)*%
X140900000Y-150340000D03*
X194360000Y-143260000D03*
%TO.N,/LA23*%
X196900000Y-143720000D03*
X144940000Y-143940000D03*
%TO.N,/LA22*%
X149460000Y-142430000D03*
X149470000Y-147613509D03*
X199440000Y-142090000D03*
X145480000Y-150290000D03*
%TO.N,/LA21*%
X201910000Y-139880000D03*
X149113783Y-154772841D03*
X151420000Y-118590000D03*
X201986692Y-118900000D03*
X150670000Y-147937157D03*
X203725000Y-139910000D03*
%TO.N,/LA20*%
X147960000Y-150450000D03*
X152010000Y-147613509D03*
X204520000Y-141690000D03*
X152480000Y-141710000D03*
%TO.N,/LA19*%
X153880735Y-147937157D03*
X162160000Y-137500000D03*
X150580000Y-150430000D03*
X207060000Y-137440000D03*
%TO.N,/LA18*%
X164940000Y-145030000D03*
X209600000Y-140480000D03*
X165110000Y-140510000D03*
X153030000Y-150510000D03*
%TO.N,/LA17*%
X169760000Y-142750000D03*
X212140000Y-139650000D03*
X155358001Y-150730000D03*
X169750000Y-144890000D03*
%TO.N,Net-(J1-~{MEMR})*%
X160679137Y-152811091D03*
X214680000Y-137240000D03*
%TO.N,Net-(J1-~{MEMW})*%
X165700000Y-135956414D03*
X218336692Y-136520000D03*
%TO.N,/SD8*%
X186250000Y-135356414D03*
X221196692Y-135170000D03*
%TO.N,/SD9*%
X223416692Y-134580000D03*
X186845022Y-134570000D03*
%TO.N,/SD10*%
X225956692Y-133970000D03*
X187480000Y-133970000D03*
%TO.N,/SD11*%
X228496692Y-133290000D03*
X188100000Y-133370000D03*
%TO.N,/SD12*%
X188700000Y-132770000D03*
X231036692Y-132680000D03*
%TO.N,/SD13*%
X191328202Y-125327980D03*
%TO.N,/SD14*%
X236350000Y-124800000D03*
X191925000Y-124775000D03*
%TO.N,Net-(J1-~{MEMCS16})*%
X144610000Y-150310000D03*
X146700000Y-141110000D03*
X146594583Y-154772842D03*
X193225000Y-141120000D03*
X145680000Y-153572843D03*
%TO.N,Net-(J1-~{IOCS16})*%
X195625000Y-144290000D03*
%TO.N,Net-(J1-IRQ10)*%
X199401915Y-136556414D03*
X153210000Y-145393351D03*
X153060000Y-137190000D03*
%TO.N,Net-(J1-IRQ11)*%
X151790000Y-152940000D03*
X200550000Y-144240000D03*
%TO.N,Net-(J1-IRQ12)*%
X203125000Y-138050000D03*
X204360000Y-135780000D03*
X163060000Y-145170000D03*
X202300000Y-136100000D03*
X163090000Y-138050000D03*
%TO.N,Net-(J1-IRQ15)*%
X205630000Y-138700000D03*
X167720000Y-138700000D03*
X167740000Y-145090000D03*
%TO.N,Net-(J1-IRQ14)*%
X157304316Y-150737157D03*
X209430000Y-137650000D03*
X156770000Y-153030000D03*
X208225000Y-143350000D03*
X207720000Y-138170000D03*
%TO.N,Net-(J1-~{DACK0})*%
X210710000Y-141790000D03*
%TO.N,Net-(J1-DRQ0)*%
X213475000Y-140510000D03*
%TO.N,Net-(J1-~{DACK5})*%
X215925000Y-143460000D03*
%TO.N,Net-(J1-DRQ5)*%
X218625000Y-142440000D03*
X166553456Y-155320274D03*
X167528305Y-153555685D03*
%TO.N,Net-(J1-~{DACK6})*%
X221025000Y-152955000D03*
%TO.N,Net-(J1-DRQ6)*%
X223490000Y-153030000D03*
%TO.N,Net-(J1-DRQ7)*%
X228810000Y-150110000D03*
%TO.N,Net-(J1-~{MASTER})*%
X233600000Y-150280000D03*
%TD*%
%TO.N,Net-(J1-~{IOW})*%
D16*
X118270000Y-144370000D02*
X118270000Y-137130000D01*
X119270000Y-145370000D02*
X118270000Y-144370000D01*
X118270000Y-137130000D02*
X117670000Y-136530000D01*
X119270000Y-154788527D02*
X119270000Y-145370000D01*
X117210000Y-156848527D02*
X119270000Y-154788527D01*
%TO.N,/SA14*%
X116736692Y-129266692D02*
X116120000Y-128650000D01*
X116585002Y-137987514D02*
X116736692Y-137835824D01*
X116736692Y-137835824D02*
X116736692Y-129266692D01*
%TO.N,/SA16*%
X117056692Y-114950000D02*
X117336692Y-114670000D01*
X117056692Y-128050000D02*
X117056692Y-114950000D01*
X117656692Y-128650000D02*
X117056692Y-128050000D01*
%TO.N,+5V*%
X97740000Y-145460000D02*
X108160000Y-135040000D01*
%TO.N,/SA19*%
X111976692Y-118173308D02*
X112330000Y-117820000D01*
X114510000Y-152700000D02*
X114510000Y-131090000D01*
X111976692Y-128556692D02*
X111976692Y-118173308D01*
X114510000Y-131090000D02*
X111976692Y-128556692D01*
X114590000Y-152780000D02*
X114510000Y-152700000D01*
%TO.N,Net-(J1-AEN)*%
X114516692Y-120943308D02*
X114850000Y-120610000D01*
X114516692Y-129266692D02*
X114516692Y-120943308D01*
X115320000Y-130070000D02*
X114516692Y-129266692D01*
%TO.N,Net-(J1-DRQ2)*%
X121990000Y-139147257D02*
X121990000Y-143850000D01*
X120542743Y-137700000D02*
X121990000Y-139147257D01*
X122130000Y-150250000D02*
X120700000Y-151680000D01*
X121990000Y-143850000D02*
X122130000Y-143990000D01*
X122130000Y-143990000D02*
X122130000Y-150250000D01*
%TO.N,Net-(J1-~{IOR})*%
X117030000Y-152840000D02*
X116500000Y-153370000D01*
X116784265Y-144725735D02*
X117030000Y-144971470D01*
X117030000Y-144971470D02*
X117030000Y-152840000D01*
%TO.N,+5V*%
X231180000Y-108353350D02*
X231180000Y-105840000D01*
X230163350Y-109370000D02*
X231180000Y-108353350D01*
X191700000Y-110470000D02*
X191700000Y-111190000D01*
X192800000Y-109370000D02*
X191700000Y-110470000D01*
X181423346Y-109370000D02*
X192800000Y-109370000D01*
X175473348Y-105696652D02*
X175890000Y-105280000D01*
X175473348Y-108019998D02*
X175473348Y-105696652D01*
X175563350Y-108110000D02*
X175473348Y-108019998D01*
X108160000Y-135040000D02*
X109701471Y-135040000D01*
X109701471Y-135040000D02*
X113061473Y-131679998D01*
X113080000Y-151680000D02*
X109110000Y-147710000D01*
X109110000Y-147710000D02*
X99990000Y-147710000D01*
X99990000Y-147710000D02*
X97740000Y-145460000D01*
X127360000Y-108100000D02*
X126950000Y-107690000D01*
X127244819Y-108100000D02*
X127360000Y-108100000D01*
X126950000Y-107690000D02*
X126950000Y-105490000D01*
%TO.N,/SA8*%
X131970000Y-145040000D02*
X131500000Y-144570000D01*
X132570000Y-152800000D02*
X131970000Y-152200000D01*
X131970000Y-152200000D02*
X131970000Y-145040000D01*
%TO.N,/SA5*%
X168758307Y-148937157D02*
X168855463Y-148840000D01*
X140150000Y-153890000D02*
X140170000Y-153870000D01*
X149099778Y-152790000D02*
X149980000Y-151909778D01*
X151122843Y-148937157D02*
X168758307Y-148937157D01*
X145614314Y-152790000D02*
X149099778Y-152790000D01*
X143040000Y-154100000D02*
X143367158Y-153772842D01*
X140820000Y-153870000D02*
X141050000Y-154100000D01*
X143367158Y-153772842D02*
X144631472Y-153772842D01*
X168855463Y-148840000D02*
X171430000Y-148840000D01*
X149980000Y-150080000D02*
X151122843Y-148937157D01*
X149980000Y-151909778D02*
X149980000Y-150080000D01*
X171500000Y-148770000D02*
X171500000Y-146600000D01*
X171430000Y-148840000D02*
X171500000Y-148770000D01*
X141050000Y-154100000D02*
X143040000Y-154100000D01*
X144631472Y-153772842D02*
X145614314Y-152790000D01*
X140170000Y-153870000D02*
X140820000Y-153870000D01*
%TO.N,/SA3*%
X138200000Y-153070000D02*
X138200000Y-153042943D01*
X138621471Y-143820000D02*
X138720000Y-143820000D01*
X137370000Y-152212943D02*
X137370000Y-145071471D01*
X138200000Y-153042943D02*
X137370000Y-152212943D01*
X137370000Y-145071471D02*
X138621471Y-143820000D01*
%TO.N,/SA1*%
X148327158Y-153630000D02*
X148270000Y-153572842D01*
X163270000Y-153462564D02*
X163102564Y-153630000D01*
X163102564Y-153630000D02*
X148327158Y-153630000D01*
%TO.N,GND*%
X172380274Y-154720274D02*
X173750000Y-156090000D01*
X131290000Y-153670000D02*
X130860000Y-153240000D01*
X163813222Y-154172842D02*
X164360654Y-154720274D01*
X157111371Y-156990000D02*
X159909265Y-154192107D01*
X173750000Y-156090000D02*
X173750000Y-156661472D01*
X143580000Y-154500000D02*
X139911471Y-154500000D01*
X156023133Y-156990000D02*
X157111371Y-156990000D01*
X139911471Y-154500000D02*
X139081471Y-153670000D01*
X164360654Y-154720274D02*
X172380274Y-154720274D01*
X143580000Y-154500000D02*
X143907158Y-154172842D01*
X143907158Y-154172842D02*
X163813222Y-154172842D01*
X139081471Y-153670000D02*
X131290000Y-153670000D01*
%TO.N,+5V*%
X127360000Y-108100000D02*
X127741877Y-108100000D01*
X139596692Y-125695221D02*
X139500000Y-125598529D01*
X139620000Y-124981471D02*
X139620000Y-108110000D01*
X117180000Y-108110000D02*
X127234819Y-108110000D01*
X179123348Y-111669998D02*
X181423346Y-109370000D01*
X179126692Y-131679998D02*
X180266690Y-130540000D01*
X139500000Y-125598529D02*
X139500000Y-125101471D01*
X139620000Y-108110000D02*
X175563350Y-108110000D01*
X117070000Y-108220000D02*
X117180000Y-108110000D01*
X137320000Y-132266692D02*
X137320000Y-129565685D01*
X113083348Y-111669998D02*
X116533346Y-108220000D01*
X142450000Y-150550000D02*
X141530000Y-149630000D01*
X127234819Y-108110000D02*
X127244819Y-108100000D01*
X127751877Y-108110000D02*
X139620000Y-108110000D01*
X142450000Y-153270000D02*
X142450000Y-150550000D01*
X137320000Y-129565685D02*
X139596692Y-127288993D01*
X139500000Y-125101471D02*
X139620000Y-124981471D01*
X192800000Y-109370000D02*
X230163350Y-109370000D01*
X230163350Y-109370000D02*
X232463348Y-111669998D01*
X116533346Y-108220000D02*
X117070000Y-108220000D01*
X231326694Y-130540000D02*
X232466692Y-131679998D01*
X180266690Y-130540000D02*
X231326694Y-130540000D01*
X136546692Y-133040000D02*
X137320000Y-132266692D01*
X127741877Y-108100000D02*
X127751877Y-108110000D01*
X139596692Y-127288993D02*
X139596692Y-125695221D01*
X175563350Y-108110000D02*
X179123348Y-111669998D01*
X142500000Y-153320000D02*
X142450000Y-153270000D01*
%TO.N,+12V*%
X128323348Y-111669998D02*
X127216692Y-112776654D01*
X127216692Y-112776654D02*
X127216692Y-130569998D01*
X127216692Y-130569998D02*
X128326692Y-131679998D01*
%TO.N,Net-(J1-~{DACK3})*%
X121816692Y-110246692D02*
X121470000Y-109900000D01*
X121816692Y-132433308D02*
X121816692Y-110246692D01*
X121430000Y-132820000D02*
X121816692Y-132433308D01*
%TO.N,Net-(J1-DRQ3)*%
X124356692Y-132520000D02*
X124356692Y-109896656D01*
X124356692Y-109896656D02*
X124953348Y-109300000D01*
X123846692Y-133030000D02*
X124356692Y-132520000D01*
%TO.N,Net-(J1-~{DACK1})*%
X124956692Y-125560000D02*
X124956692Y-114066432D01*
X124956692Y-114066432D02*
X126893348Y-112129776D01*
X126893348Y-112129776D02*
X126893348Y-109300000D01*
X126893348Y-109300000D02*
X127493348Y-108700000D01*
%TO.N,Net-(J1-DRQ1)*%
X124520000Y-152430000D02*
X124520000Y-134810000D01*
X124520000Y-134810000D02*
X126390000Y-132940000D01*
X124950000Y-152860000D02*
X124520000Y-152430000D01*
%TO.N,Net-(J1-~{REFRESH})*%
X127210000Y-134055432D02*
X127210000Y-156608528D01*
X127210000Y-156608528D02*
X127440000Y-156838528D01*
X127725439Y-133539993D02*
X127210000Y-134055432D01*
%TO.N,Net-(J1-SYSCLK)*%
X129020000Y-124410000D02*
X129020000Y-124370000D01*
X129480000Y-124870000D02*
X129020000Y-124410000D01*
X129100000Y-133120000D02*
X129480000Y-132740000D01*
X129480000Y-132740000D02*
X129480000Y-124870000D01*
%TO.N,Net-(J1-IRQ7)*%
X130330000Y-147880000D02*
X129750000Y-147300000D01*
X129750000Y-145000000D02*
X130160000Y-144590000D01*
X130160000Y-144590000D02*
X130160000Y-133526692D01*
X130160000Y-133526692D02*
X130356692Y-133330000D01*
X129750000Y-147300000D02*
X129750000Y-145000000D01*
%TO.N,Net-(J1-IRQ3)*%
X134830000Y-152584315D02*
X134830000Y-116476692D01*
X135315685Y-153070000D02*
X134830000Y-152584315D01*
X134830000Y-116476692D02*
X135436692Y-115870000D01*
%TO.N,Net-(J1-~{DACK2})*%
X136720000Y-129600000D02*
X137056692Y-129263308D01*
X137056692Y-129263308D02*
X137056692Y-117456692D01*
X137056692Y-117456692D02*
X136070000Y-116470000D01*
%TO.N,Net-(J1-TC)*%
X142230000Y-144548529D02*
X142230000Y-141030000D01*
X142140000Y-140940000D02*
X142140000Y-118150000D01*
X140533884Y-149628689D02*
X140533884Y-149504422D01*
X142130000Y-147908306D02*
X142130000Y-144648529D01*
X142130000Y-144648529D02*
X142230000Y-144548529D01*
X142140000Y-118150000D02*
X141350000Y-117360000D01*
X140533884Y-149504422D02*
X142130000Y-147908306D01*
X142230000Y-141030000D02*
X142140000Y-140940000D01*
%TO.N,Net-(J1-OSC)*%
X145560000Y-147861250D02*
X146235907Y-148537157D01*
X168592621Y-148537157D02*
X170390000Y-146739778D01*
X182520000Y-145490000D02*
X182770000Y-145740000D01*
X171040222Y-145490000D02*
X182520000Y-145490000D01*
X146235907Y-148537157D02*
X168592621Y-148537157D01*
X170390000Y-146140222D02*
X171040222Y-145490000D01*
X170390000Y-146739778D02*
X170390000Y-146140222D01*
%TO.N,/LA21*%
X150070000Y-147337157D02*
X150070000Y-138078529D01*
X152296692Y-135851837D02*
X152296692Y-119466692D01*
X152296692Y-119466692D02*
X151420000Y-118590000D01*
X150670000Y-147937157D02*
X150070000Y-147337157D01*
X150070000Y-138078529D02*
X152296692Y-135851837D01*
%TO.N,Net-(J1-IRQ10)*%
X153060000Y-137190000D02*
X153210000Y-137340000D01*
X153210000Y-137340000D02*
X153210000Y-145393351D01*
%TO.N,Net-(J1-IRQ11)*%
X200230222Y-144240000D02*
X200550000Y-144240000D01*
X198010000Y-147059778D02*
X198010000Y-146460222D01*
X152290000Y-149890000D02*
X152810000Y-149370000D01*
X151790000Y-152940000D02*
X152290000Y-152440000D01*
X152290000Y-152440000D02*
X152290000Y-149890000D01*
X198010000Y-146460222D02*
X200230222Y-144240000D01*
X152810000Y-149370000D02*
X195699778Y-149370000D01*
X195699778Y-149370000D02*
X198010000Y-147059778D01*
%TD*%
M02*
