%TF.GenerationSoftware,KiCad,Pcbnew,10.0.1*%
%TF.CreationDate,2026-09-29T18:53:27-04:00*%
%TF.ProjectId,PB450-riser,50423435-302d-4726-9973-65722e6b6963,rev?*%
%TF.SameCoordinates,Original*%
%TF.FileFunction,Copper,L2,Inr*%
%TF.FilePolarity,Positive*%
%FSLAX46Y46*%
G04 Gerber Fmt 4.6, Leading zero omitted, Abs format (unit mm)*
G04 Created by KiCad (PCBNEW 10.0.1) date 2026-09-29 18:53:27*
%MOMM*%
%LPD*%
G01*
G04 APERTURE LIST*
G04 Aperture macros list*
%AMRoundRect*
0 Rectangle with rounded corners*
0 $1 Rounding radius*
0 $2 $3 $4 $5 $6 $7 $8 $9 X,Y pos of 4 corners*
0 Add a 4 corners polygon primitive as box body*
4,1,4,$2,$3,$4,$5,$6,$7,$8,$9,$2,$3,0*
0 Add four circle primitives for the rounded corners*
1,1,$1+$1,$2,$3*
1,1,$1+$1,$4,$5*
1,1,$1+$1,$6,$7*
1,1,$1+$1,$8,$9*
0 Add four rect primitives between the rounded corners*
20,1,$1+$1,$2,$3,$4,$5,0*
20,1,$1+$1,$4,$5,$6,$7,0*
20,1,$1+$1,$6,$7,$8,$9,0*
20,1,$1+$1,$8,$9,$2,$3,0*%
%AMFreePoly0*
4,1,18,-0.810000,0.486000,-0.486000,0.810000,0.761400,0.810000,0.779998,0.806301,0.795765,0.795765,0.806301,0.779998,0.810000,0.761400,0.810000,-0.761400,0.806301,-0.779998,0.795765,-0.795765,0.779998,-0.806301,0.761400,-0.810000,-0.761400,-0.810000,-0.779998,-0.806301,-0.795765,-0.795765,-0.806301,-0.779998,-0.810000,-0.761400,-0.810000,0.486000,-0.810000,0.486000,$1*%
G04 Aperture macros list end*
%TA.AperFunction,ComponentPad*%
%ADD10RoundRect,0.250000X-0.550000X-0.550000X0.550000X-0.550000X0.550000X0.550000X-0.550000X0.550000X0*%
%TD*%
%TA.AperFunction,ComponentPad*%
%ADD11C,1.600000*%
%TD*%
%TA.AperFunction,ComponentPad*%
%ADD12C,1.620000*%
%TD*%
%TA.AperFunction,ComponentPad*%
%ADD13FreePoly0,0.000000*%
%TD*%
%TA.AperFunction,ComponentPad*%
%ADD14RoundRect,0.250000X-0.560000X-0.560000X0.560000X-0.560000X0.560000X0.560000X-0.560000X0.560000X0*%
%TD*%
%TA.AperFunction,ViaPad*%
%ADD15C,0.600000*%
%TD*%
%TA.AperFunction,Conductor*%
%ADD16C,0.200000*%
%TD*%
G04 APERTURE END LIST*
D10*
%TO.N,+5V*%
%TO.C,C18*%
X203194775Y-99675000D03*
D11*
%TO.N,GND*%
X205194775Y-99675000D03*
%TD*%
%TO.N,+5V*%
%TO.C,C19*%
X243350000Y-119310000D03*
%TO.N,GND*%
X240850000Y-119310000D03*
%TD*%
%TO.N,GND*%
%TO.C,C14*%
X187680000Y-126890000D03*
%TO.N,+5V*%
X190180000Y-126890000D03*
%TD*%
%TO.N,GND*%
%TO.C,C13*%
X187620000Y-151850000D03*
%TO.N,+5V*%
X190120000Y-151850000D03*
%TD*%
%TO.N,GND*%
%TO.C,C15*%
X188790000Y-116500000D03*
%TO.N,+5V*%
X191290000Y-116500000D03*
%TD*%
%TO.N,GND*%
%TO.C,C6*%
X103600000Y-115940000D03*
%TO.N,+5V*%
X106100000Y-115940000D03*
%TD*%
%TO.N,GND*%
%TO.C,C5*%
X117170000Y-142410000D03*
%TO.N,+5V*%
X119670000Y-142410000D03*
%TD*%
%TO.N,GND*%
%TO.C,C4*%
X100830000Y-131000000D03*
%TO.N,+5V*%
X103330000Y-131000000D03*
%TD*%
%TO.N,GND*%
%TO.C,C1*%
X99740000Y-145460000D03*
D10*
%TO.N,+5V*%
X97740000Y-145460000D03*
%TD*%
D11*
%TO.N,GND*%
%TO.C,C3*%
X102470000Y-95280000D03*
%TO.N,+5V*%
X104970000Y-95280000D03*
%TD*%
D10*
%TO.N,+5V*%
%TO.C,C2*%
X95994888Y-102720000D03*
D11*
%TO.N,GND*%
X97994888Y-102720000D03*
%TD*%
D10*
%TO.N,+5V*%
%TO.C,C21*%
X243000000Y-136430000D03*
D11*
%TO.N,GND*%
X245000000Y-136430000D03*
%TD*%
%TO.N,GND*%
%TO.C,C23*%
X242790000Y-142240000D03*
%TO.N,+5V*%
X245290000Y-142240000D03*
%TD*%
%TO.N,GND*%
%TO.C,C22*%
X241380000Y-124140000D03*
%TO.N,+5V*%
X243880000Y-124140000D03*
%TD*%
D10*
%TO.N,+5V*%
%TO.C,C20*%
X234074888Y-98070000D03*
D11*
%TO.N,GND*%
X236074888Y-98070000D03*
%TD*%
%TO.N,GND*%
%TO.C,C17*%
X186900000Y-99590000D03*
D10*
%TO.N,+5V*%
X184900000Y-99590000D03*
%TD*%
D11*
%TO.N,+5V*%
%TO.C,C12*%
X129690000Y-89500000D03*
%TO.N,GND*%
X132190000Y-89500000D03*
%TD*%
D12*
%TO.N,Net-(J1-~{IO_CH_CK})*%
%TO.C,J1*%
X108000000Y-146600000D03*
%TO.N,/SD7*%
X110540000Y-146600000D03*
%TO.N,/SD6*%
X113080000Y-146600000D03*
%TO.N,/SD5*%
X115620000Y-146600000D03*
%TO.N,/SD4*%
X118160000Y-146600000D03*
%TO.N,/SD3*%
X120700000Y-146600000D03*
%TO.N,/SD2*%
X123240000Y-146600000D03*
%TO.N,/SD1*%
X125780000Y-146600000D03*
%TO.N,/SD0*%
X128320000Y-146600000D03*
%TO.N,Net-(J1-IO_CH_RDY)*%
X130860000Y-146600000D03*
%TO.N,Net-(J1-AEN)*%
X133400000Y-146600000D03*
%TO.N,/SA19*%
X135940000Y-146600000D03*
%TO.N,/SA18*%
X138480000Y-146600000D03*
%TO.N,/SA17*%
X141020000Y-146600000D03*
%TO.N,/SA16*%
X143560000Y-146600000D03*
%TO.N,/SA15*%
X146100000Y-146600000D03*
%TO.N,/SA14*%
X148640000Y-146600000D03*
%TO.N,/SA13*%
X151180000Y-146600000D03*
%TO.N,/SA12*%
X153720000Y-146600000D03*
%TO.N,/SA11*%
X156260000Y-146600000D03*
%TO.N,/SA10*%
X158800000Y-146600000D03*
%TO.N,/SA9*%
X161340000Y-146600000D03*
%TO.N,/SA8*%
X163880000Y-146600000D03*
%TO.N,/SA7*%
X166420000Y-146600000D03*
%TO.N,/SA6*%
X168960000Y-146600000D03*
%TO.N,/SA5*%
X171500000Y-146600000D03*
%TO.N,/SA4*%
X174040000Y-146600000D03*
%TO.N,/SA3*%
X176580000Y-146600000D03*
%TO.N,/SA2*%
X179120000Y-146600000D03*
%TO.N,/SA1*%
X181660000Y-146600000D03*
%TO.N,/SA0*%
X184200000Y-146600000D03*
D13*
%TO.N,GND*%
X108000000Y-151680000D03*
D12*
%TO.N,Net-(J1-RESETDRV)*%
X110540000Y-151680000D03*
%TO.N,+5V*%
X113080000Y-151680000D03*
%TO.N,Net-(J1-IRQ9)*%
X115620000Y-151680000D03*
%TO.N,-5V*%
X118160000Y-151680000D03*
%TO.N,Net-(J1-DRQ2)*%
X120700000Y-151680000D03*
%TO.N,-12V*%
X123240000Y-151680000D03*
%TO.N,Net-(J1-~{0WS})*%
X125780000Y-151680000D03*
%TO.N,+12V*%
X128320000Y-151680000D03*
D14*
%TO.N,GND*%
X130860000Y-151680000D03*
D12*
%TO.N,Net-(J1-~{SMEMW})*%
X133400000Y-151680000D03*
%TO.N,Net-(J1-~{SMEMR})*%
X135940000Y-151680000D03*
%TO.N,Net-(J1-~{IOW})*%
X138480000Y-151680000D03*
%TO.N,Net-(J1-~{IOR})*%
X141020000Y-151680000D03*
%TO.N,Net-(J1-~{DACK3})*%
X143560000Y-151680000D03*
%TO.N,Net-(J1-DRQ3)*%
X146100000Y-151680000D03*
%TO.N,Net-(J1-~{DACK1})*%
X148640000Y-151680000D03*
%TO.N,Net-(J1-DRQ1)*%
X151180000Y-151680000D03*
%TO.N,Net-(J1-~{REFRESH})*%
X153720000Y-151680000D03*
%TO.N,Net-(J1-SYSCLK)*%
X156260000Y-151680000D03*
%TO.N,Net-(J1-IRQ7)*%
X158800000Y-151680000D03*
%TO.N,Net-(J1-IRQ6)*%
X161340000Y-151680000D03*
%TO.N,Net-(J1-IRQ5)*%
X163880000Y-151680000D03*
%TO.N,Net-(J1-IRQ4)*%
X166420000Y-151680000D03*
%TO.N,Net-(J1-IRQ3)*%
X168960000Y-151680000D03*
%TO.N,Net-(J1-~{DACK2})*%
X171500000Y-151680000D03*
%TO.N,Net-(J1-TC)*%
X174040000Y-151680000D03*
%TO.N,Net-(J1-BALE)*%
X176580000Y-151680000D03*
%TO.N,+5V*%
X179120000Y-151680000D03*
%TO.N,Net-(J1-OSC)*%
X181660000Y-151680000D03*
D14*
%TO.N,GND*%
X184200000Y-151680000D03*
D12*
%TO.N,Net-(J1-SBHE)*%
X194360000Y-146600000D03*
%TO.N,/LA23*%
X196900000Y-146600000D03*
%TO.N,/LA22*%
X199440000Y-146600000D03*
%TO.N,/LA21*%
X201980000Y-146600000D03*
%TO.N,/LA20*%
X204520000Y-146600000D03*
%TO.N,/LA19*%
X207060000Y-146600000D03*
%TO.N,/LA18*%
X209600000Y-146600000D03*
%TO.N,/LA17*%
X212140000Y-146600000D03*
%TO.N,Net-(J1-~{MEMR})*%
X214680000Y-146600000D03*
%TO.N,Net-(J1-~{MEMW})*%
X217220000Y-146600000D03*
%TO.N,/SD8*%
X219760000Y-146600000D03*
%TO.N,/SD9*%
X222300000Y-146600000D03*
%TO.N,/SD10*%
X224840000Y-146600000D03*
%TO.N,/SD11*%
X227380000Y-146600000D03*
%TO.N,/SD12*%
X229920000Y-146600000D03*
%TO.N,/SD13*%
X232460000Y-146600000D03*
%TO.N,/SD14*%
X235000000Y-146600000D03*
%TO.N,/SD15*%
X237540000Y-146600000D03*
%TO.N,Net-(J1-~{MEMCS16})*%
X194360000Y-151680000D03*
%TO.N,Net-(J1-~{IOCS16})*%
X196900000Y-151680000D03*
%TO.N,Net-(J1-IRQ10)*%
X199440000Y-151680000D03*
%TO.N,Net-(J1-IRQ11)*%
X201980000Y-151680000D03*
%TO.N,Net-(J1-IRQ12)*%
X204520000Y-151680000D03*
%TO.N,Net-(J1-IRQ15)*%
X207060000Y-151680000D03*
%TO.N,Net-(J1-IRQ14)*%
X209600000Y-151680000D03*
%TO.N,Net-(J1-~{DACK0})*%
X212140000Y-151680000D03*
%TO.N,Net-(J1-DRQ0)*%
X214680000Y-151680000D03*
%TO.N,Net-(J1-~{DACK5})*%
X217220000Y-151680000D03*
%TO.N,Net-(J1-DRQ5)*%
X219760000Y-151680000D03*
%TO.N,Net-(J1-~{DACK6})*%
X222300000Y-151680000D03*
%TO.N,Net-(J1-DRQ6)*%
X224840000Y-151680000D03*
%TO.N,Net-(J1-~{DACK7})*%
X227380000Y-151680000D03*
%TO.N,Net-(J1-DRQ7)*%
X229920000Y-151680000D03*
%TO.N,+5V*%
X232460000Y-151680000D03*
%TO.N,Net-(J1-~{MASTER})*%
X235000000Y-151680000D03*
D14*
%TO.N,GND*%
X237540000Y-151680000D03*
%TD*%
D11*
%TO.N,GND*%
%TO.C,C8*%
X112170000Y-89500000D03*
%TO.N,-5V*%
X114670000Y-89500000D03*
%TD*%
D10*
%TO.N,GND*%
%TO.C,C7*%
X112464888Y-98380000D03*
D11*
%TO.N,-5V*%
X114464888Y-98380000D03*
%TD*%
D10*
%TO.N,+5V*%
%TO.C,C11*%
X129984888Y-98380000D03*
D11*
%TO.N,GND*%
X131984888Y-98380000D03*
%TD*%
D10*
%TO.N,GND*%
%TO.C,C9*%
X121654888Y-98380000D03*
D11*
%TO.N,-12V*%
X123654888Y-98380000D03*
%TD*%
D12*
%TO.N,Net-(J1-~{IO_CH_CK})*%
%TO.C,J2*%
X108006692Y-126599998D03*
%TO.N,/SD7*%
X110546692Y-126599998D03*
%TO.N,/SD6*%
X113086692Y-126599998D03*
%TO.N,/SD5*%
X115626692Y-126599998D03*
%TO.N,/SD4*%
X118166692Y-126599998D03*
%TO.N,/SD3*%
X120706692Y-126599998D03*
%TO.N,/SD2*%
X123246692Y-126599998D03*
%TO.N,/SD1*%
X125786692Y-126599998D03*
%TO.N,/SD0*%
X128326692Y-126599998D03*
%TO.N,Net-(J1-IO_CH_RDY)*%
X130866692Y-126599998D03*
%TO.N,Net-(J1-AEN)*%
X133406692Y-126599998D03*
%TO.N,/SA19*%
X135946692Y-126599998D03*
%TO.N,/SA18*%
X138486692Y-126599998D03*
%TO.N,/SA17*%
X141026692Y-126599998D03*
%TO.N,/SA16*%
X143566692Y-126599998D03*
%TO.N,/SA15*%
X146106692Y-126599998D03*
%TO.N,/SA14*%
X148646692Y-126599998D03*
%TO.N,/SA13*%
X151186692Y-126599998D03*
%TO.N,/SA12*%
X153726692Y-126599998D03*
%TO.N,/SA11*%
X156266692Y-126599998D03*
%TO.N,/SA10*%
X158806692Y-126599998D03*
%TO.N,/SA9*%
X161346692Y-126599998D03*
%TO.N,/SA8*%
X163886692Y-126599998D03*
%TO.N,/SA7*%
X166426692Y-126599998D03*
%TO.N,/SA6*%
X168966692Y-126599998D03*
%TO.N,/SA5*%
X171506692Y-126599998D03*
%TO.N,/SA4*%
X174046692Y-126599998D03*
%TO.N,/SA3*%
X176586692Y-126599998D03*
%TO.N,/SA2*%
X179126692Y-126599998D03*
%TO.N,/SA1*%
X181666692Y-126599998D03*
%TO.N,/SA0*%
X184206692Y-126599998D03*
D13*
%TO.N,GND*%
X108006692Y-131679998D03*
D12*
%TO.N,Net-(J1-RESETDRV)*%
X110546692Y-131679998D03*
%TO.N,+5V*%
X113086692Y-131679998D03*
%TO.N,Net-(J1-IRQ9)*%
X115626692Y-131679998D03*
%TO.N,-5V*%
X118166692Y-131679998D03*
%TO.N,Net-(J1-DRQ2)*%
X120706692Y-131679998D03*
%TO.N,-12V*%
X123246692Y-131679998D03*
%TO.N,Net-(J1-~{0WS})*%
X125786692Y-131679998D03*
%TO.N,+12V*%
X128326692Y-131679998D03*
D14*
%TO.N,GND*%
X130866692Y-131679998D03*
D12*
%TO.N,Net-(J1-~{SMEMW})*%
X133406692Y-131679998D03*
%TO.N,Net-(J1-~{SMEMR})*%
X135946692Y-131679998D03*
%TO.N,Net-(J1-~{IOW})*%
X138486692Y-131679998D03*
%TO.N,Net-(J1-~{IOR})*%
X141026692Y-131679998D03*
%TO.N,Net-(J1-~{DACK3})*%
X143566692Y-131679998D03*
%TO.N,Net-(J1-DRQ3)*%
X146106692Y-131679998D03*
%TO.N,Net-(J1-~{DACK1})*%
X148646692Y-131679998D03*
%TO.N,Net-(J1-DRQ1)*%
X151186692Y-131679998D03*
%TO.N,Net-(J1-~{REFRESH})*%
X153726692Y-131679998D03*
%TO.N,Net-(J1-SYSCLK)*%
X156266692Y-131679998D03*
%TO.N,Net-(J1-IRQ7)*%
X158806692Y-131679998D03*
%TO.N,Net-(J1-IRQ6)*%
X161346692Y-131679998D03*
%TO.N,Net-(J1-IRQ5)*%
X163886692Y-131679998D03*
%TO.N,Net-(J1-IRQ4)*%
X166426692Y-131679998D03*
%TO.N,Net-(J1-IRQ3)*%
X168966692Y-131679998D03*
%TO.N,Net-(J1-~{DACK2})*%
X171506692Y-131679998D03*
%TO.N,Net-(J1-TC)*%
X174046692Y-131679998D03*
%TO.N,Net-(J1-BALE)*%
X176586692Y-131679998D03*
%TO.N,+5V*%
X179126692Y-131679998D03*
%TO.N,Net-(J1-OSC)*%
X181666692Y-131679998D03*
D14*
%TO.N,GND*%
X184206692Y-131679998D03*
D12*
%TO.N,Net-(J1-SBHE)*%
X194366692Y-126599998D03*
%TO.N,/LA23*%
X196906692Y-126599998D03*
%TO.N,/LA22*%
X199446692Y-126599998D03*
%TO.N,/LA21*%
X201986692Y-126599998D03*
%TO.N,/LA20*%
X204526692Y-126599998D03*
%TO.N,/LA19*%
X207066692Y-126599998D03*
%TO.N,/LA18*%
X209606692Y-126599998D03*
%TO.N,/LA17*%
X212146692Y-126599998D03*
%TO.N,Net-(J1-~{MEMR})*%
X214686692Y-126599998D03*
%TO.N,Net-(J1-~{MEMW})*%
X217226692Y-126599998D03*
%TO.N,/SD8*%
X219766692Y-126599998D03*
%TO.N,/SD9*%
X222306692Y-126599998D03*
%TO.N,/SD10*%
X224846692Y-126599998D03*
%TO.N,/SD11*%
X227386692Y-126599998D03*
%TO.N,/SD12*%
X229926692Y-126599998D03*
%TO.N,/SD13*%
X232466692Y-126599998D03*
%TO.N,/SD14*%
X235006692Y-126599998D03*
%TO.N,/SD15*%
X237546692Y-126599998D03*
%TO.N,Net-(J1-~{MEMCS16})*%
X194366692Y-131679998D03*
%TO.N,Net-(J1-~{IOCS16})*%
X196906692Y-131679998D03*
%TO.N,Net-(J1-IRQ10)*%
X199446692Y-131679998D03*
%TO.N,Net-(J1-IRQ11)*%
X201986692Y-131679998D03*
%TO.N,Net-(J1-IRQ12)*%
X204526692Y-131679998D03*
%TO.N,Net-(J1-IRQ15)*%
X207066692Y-131679998D03*
%TO.N,Net-(J1-IRQ14)*%
X209606692Y-131679998D03*
%TO.N,Net-(J1-~{DACK0})*%
X212146692Y-131679998D03*
%TO.N,Net-(J1-DRQ0)*%
X214686692Y-131679998D03*
%TO.N,Net-(J1-~{DACK5})*%
X217226692Y-131679998D03*
%TO.N,Net-(J1-DRQ5)*%
X219766692Y-131679998D03*
%TO.N,Net-(J1-~{DACK6})*%
X222306692Y-131679998D03*
%TO.N,Net-(J1-DRQ6)*%
X224846692Y-131679998D03*
%TO.N,Net-(J1-~{DACK7})*%
X227386692Y-131679998D03*
%TO.N,Net-(J1-DRQ7)*%
X229926692Y-131679998D03*
%TO.N,+5V*%
X232466692Y-131679998D03*
%TO.N,Net-(J1-~{MASTER})*%
X235006692Y-131679998D03*
D14*
%TO.N,GND*%
X237546692Y-131679998D03*
%TD*%
D12*
%TO.N,Net-(J1-~{IO_CH_CK})*%
%TO.C,J3*%
X108003348Y-106589998D03*
%TO.N,/SD7*%
X110543348Y-106589998D03*
%TO.N,/SD6*%
X113083348Y-106589998D03*
%TO.N,/SD5*%
X115623348Y-106589998D03*
%TO.N,/SD4*%
X118163348Y-106589998D03*
%TO.N,/SD3*%
X120703348Y-106589998D03*
%TO.N,/SD2*%
X123243348Y-106589998D03*
%TO.N,/SD1*%
X125783348Y-106589998D03*
%TO.N,/SD0*%
X128323348Y-106589998D03*
%TO.N,Net-(J1-IO_CH_RDY)*%
X130863348Y-106589998D03*
%TO.N,Net-(J1-AEN)*%
X133403348Y-106589998D03*
%TO.N,/SA19*%
X135943348Y-106589998D03*
%TO.N,/SA18*%
X138483348Y-106589998D03*
%TO.N,/SA17*%
X141023348Y-106589998D03*
%TO.N,/SA16*%
X143563348Y-106589998D03*
%TO.N,/SA15*%
X146103348Y-106589998D03*
%TO.N,/SA14*%
X148643348Y-106589998D03*
%TO.N,/SA13*%
X151183348Y-106589998D03*
%TO.N,/SA12*%
X153723348Y-106589998D03*
%TO.N,/SA11*%
X156263348Y-106589998D03*
%TO.N,/SA10*%
X158803348Y-106589998D03*
%TO.N,/SA9*%
X161343348Y-106589998D03*
%TO.N,/SA8*%
X163883348Y-106589998D03*
%TO.N,/SA7*%
X166423348Y-106589998D03*
%TO.N,/SA6*%
X168963348Y-106589998D03*
%TO.N,/SA5*%
X171503348Y-106589998D03*
%TO.N,/SA4*%
X174043348Y-106589998D03*
%TO.N,/SA3*%
X176583348Y-106589998D03*
%TO.N,/SA2*%
X179123348Y-106589998D03*
%TO.N,/SA1*%
X181663348Y-106589998D03*
%TO.N,/SA0*%
X184203348Y-106589998D03*
D13*
%TO.N,GND*%
X108003348Y-111669998D03*
D12*
%TO.N,Net-(J1-RESETDRV)*%
X110543348Y-111669998D03*
%TO.N,+5V*%
X113083348Y-111669998D03*
%TO.N,Net-(J1-IRQ9)*%
X115623348Y-111669998D03*
%TO.N,-5V*%
X118163348Y-111669998D03*
%TO.N,Net-(J1-DRQ2)*%
X120703348Y-111669998D03*
%TO.N,-12V*%
X123243348Y-111669998D03*
%TO.N,Net-(J1-~{0WS})*%
X125783348Y-111669998D03*
%TO.N,+12V*%
X128323348Y-111669998D03*
D14*
%TO.N,GND*%
X130863348Y-111669998D03*
D12*
%TO.N,Net-(J1-~{SMEMW})*%
X133403348Y-111669998D03*
%TO.N,Net-(J1-~{SMEMR})*%
X135943348Y-111669998D03*
%TO.N,Net-(J1-~{IOW})*%
X138483348Y-111669998D03*
%TO.N,Net-(J1-~{IOR})*%
X141023348Y-111669998D03*
%TO.N,Net-(J1-~{DACK3})*%
X143563348Y-111669998D03*
%TO.N,Net-(J1-DRQ3)*%
X146103348Y-111669998D03*
%TO.N,Net-(J1-~{DACK1})*%
X148643348Y-111669998D03*
%TO.N,Net-(J1-DRQ1)*%
X151183348Y-111669998D03*
%TO.N,Net-(J1-~{REFRESH})*%
X153723348Y-111669998D03*
%TO.N,Net-(J1-SYSCLK)*%
X156263348Y-111669998D03*
%TO.N,Net-(J1-IRQ7)*%
X158803348Y-111669998D03*
%TO.N,Net-(J1-IRQ6)*%
X161343348Y-111669998D03*
%TO.N,Net-(J1-IRQ5)*%
X163883348Y-111669998D03*
%TO.N,Net-(J1-IRQ4)*%
X166423348Y-111669998D03*
%TO.N,Net-(J1-IRQ3)*%
X168963348Y-111669998D03*
%TO.N,Net-(J1-~{DACK2})*%
X171503348Y-111669998D03*
%TO.N,Net-(J1-TC)*%
X174043348Y-111669998D03*
%TO.N,Net-(J1-BALE)*%
X176583348Y-111669998D03*
%TO.N,+5V*%
X179123348Y-111669998D03*
%TO.N,Net-(J1-OSC)*%
X181663348Y-111669998D03*
D14*
%TO.N,GND*%
X184203348Y-111669998D03*
D12*
%TO.N,Net-(J1-SBHE)*%
X194363348Y-106589998D03*
%TO.N,/LA23*%
X196903348Y-106589998D03*
%TO.N,/LA22*%
X199443348Y-106589998D03*
%TO.N,/LA21*%
X201983348Y-106589998D03*
%TO.N,/LA20*%
X204523348Y-106589998D03*
%TO.N,/LA19*%
X207063348Y-106589998D03*
%TO.N,/LA18*%
X209603348Y-106589998D03*
%TO.N,/LA17*%
X212143348Y-106589998D03*
%TO.N,Net-(J1-~{MEMR})*%
X214683348Y-106589998D03*
%TO.N,Net-(J1-~{MEMW})*%
X217223348Y-106589998D03*
%TO.N,/SD8*%
X219763348Y-106589998D03*
%TO.N,/SD9*%
X222303348Y-106589998D03*
%TO.N,/SD10*%
X224843348Y-106589998D03*
%TO.N,/SD11*%
X227383348Y-106589998D03*
%TO.N,/SD12*%
X229923348Y-106589998D03*
%TO.N,/SD13*%
X232463348Y-106589998D03*
%TO.N,/SD14*%
X235003348Y-106589998D03*
%TO.N,/SD15*%
X237543348Y-106589998D03*
%TO.N,Net-(J1-~{MEMCS16})*%
X194363348Y-111669998D03*
%TO.N,Net-(J1-~{IOCS16})*%
X196903348Y-111669998D03*
%TO.N,Net-(J1-IRQ10)*%
X199443348Y-111669998D03*
%TO.N,Net-(J1-IRQ11)*%
X201983348Y-111669998D03*
%TO.N,Net-(J1-IRQ12)*%
X204523348Y-111669998D03*
%TO.N,Net-(J1-IRQ15)*%
X207063348Y-111669998D03*
%TO.N,Net-(J1-IRQ14)*%
X209603348Y-111669998D03*
%TO.N,Net-(J1-~{DACK0})*%
X212143348Y-111669998D03*
%TO.N,Net-(J1-DRQ0)*%
X214683348Y-111669998D03*
%TO.N,Net-(J1-~{DACK5})*%
X217223348Y-111669998D03*
%TO.N,Net-(J1-DRQ5)*%
X219763348Y-111669998D03*
%TO.N,Net-(J1-~{DACK6})*%
X222303348Y-111669998D03*
%TO.N,Net-(J1-DRQ6)*%
X224843348Y-111669998D03*
%TO.N,Net-(J1-~{DACK7})*%
X227383348Y-111669998D03*
%TO.N,Net-(J1-DRQ7)*%
X229923348Y-111669998D03*
%TO.N,+5V*%
X232463348Y-111669998D03*
%TO.N,Net-(J1-~{MASTER})*%
X235003348Y-111669998D03*
D14*
%TO.N,GND*%
X237543348Y-111669998D03*
%TD*%
D11*
%TO.N,GND*%
%TO.C,C10*%
X121360000Y-89500000D03*
%TO.N,-12V*%
X123860000Y-89500000D03*
%TD*%
%TO.N,GND*%
%TO.C,C16*%
X175980000Y-99590000D03*
%TO.N,+5V*%
X178480000Y-99590000D03*
%TD*%
D15*
%TO.N,/SA13*%
X119876692Y-112920000D03*
X115630000Y-133060000D03*
X118676692Y-128650000D03*
X117630000Y-145280000D03*
X117630000Y-147797999D03*
X120980000Y-150200000D03*
X123710000Y-153060000D03*
%TO.N,Net-(J1-~{IOW})*%
X137740000Y-136530000D03*
X117670000Y-136530000D03*
X117210000Y-156848527D03*
%TO.N,/SA14*%
X117460000Y-112920000D03*
X116120000Y-128650000D03*
X118870000Y-144080000D03*
X116585002Y-137987514D03*
%TO.N,/SA16*%
X143566692Y-114653308D03*
X117336692Y-114670000D03*
X117656692Y-128650000D03*
X119740000Y-156750000D03*
%TO.N,/SA17*%
X141420000Y-114070000D03*
X113520000Y-128750000D03*
X115060000Y-113940000D03*
X112800000Y-133290000D03*
X112415000Y-147940000D03*
X112580000Y-145020000D03*
%TO.N,/SA19*%
X136326674Y-120686674D03*
X114590000Y-152780000D03*
X115710000Y-155530000D03*
X112330000Y-117820000D03*
%TO.N,Net-(J1-AEN)*%
X133406692Y-120580000D03*
X114850000Y-120610000D03*
X115320000Y-130070000D03*
X113760000Y-155920000D03*
%TO.N,Net-(J1-IO_CH_RDY)*%
X112576692Y-128050000D03*
X112360000Y-155450000D03*
%TO.N,/SD0*%
X100460469Y-124160426D03*
X128390000Y-123876949D03*
%TO.N,/SD1*%
X100118897Y-123437009D03*
X125786692Y-123380000D03*
%TO.N,/SD2*%
X99928247Y-122660056D03*
X123246692Y-122600000D03*
%TO.N,/SD3*%
X120706692Y-121850000D03*
X99650000Y-121910000D03*
%TO.N,Net-(J1-~{SMEMR})*%
X135440000Y-120400000D03*
X105930000Y-120960000D03*
X105839265Y-141939265D03*
%TO.N,Net-(J1-~{SMEMW})*%
X133670000Y-141100000D03*
%TO.N,+5V*%
X232466692Y-134910000D03*
X231356692Y-116380000D03*
%TO.N,GND*%
X236480000Y-105480000D03*
%TO.N,+5V*%
X231180000Y-105840000D03*
%TO.N,GND*%
X187760000Y-114170000D03*
%TO.N,+5V*%
X191700000Y-111190000D03*
%TO.N,GND*%
X170830000Y-109160000D03*
X186090000Y-108600000D03*
%TO.N,+5V*%
X175890000Y-105280000D03*
%TO.N,GND*%
X132040000Y-105560000D03*
X114490000Y-105530000D03*
X109433348Y-105640000D03*
%TO.N,+5V*%
X126950000Y-105490000D03*
%TO.N,/SD7*%
X110350000Y-120500000D03*
X95870000Y-120360000D03*
%TO.N,/SD6*%
X112870000Y-119640000D03*
X97470000Y-119760000D03*
%TO.N,/SD5*%
X115500000Y-119020000D03*
X98900000Y-119160000D03*
%TO.N,/SD4*%
X100400000Y-118420000D03*
X117990000Y-118520000D03*
%TO.N,/SA18*%
X108690000Y-135640000D03*
X136620000Y-134390000D03*
%TO.N,/SA15*%
X146200000Y-134870000D03*
X115380000Y-135690000D03*
%TO.N,/SA12*%
X154836692Y-134310000D03*
X150550000Y-134350000D03*
X150330000Y-136120000D03*
X123846692Y-137250000D03*
%TO.N,/SA11*%
X126510000Y-139610000D03*
X156213061Y-139827353D03*
%TO.N,/SA10*%
X158730000Y-139827354D03*
X132570000Y-145300000D03*
X131370000Y-148071472D03*
X132110000Y-140240000D03*
%TO.N,/SA9*%
X131250000Y-133680000D03*
X129980000Y-154968527D03*
X131180000Y-154920000D03*
X162456692Y-133680000D03*
%TO.N,/SA8*%
X132570000Y-152800000D03*
X164486692Y-138827354D03*
X131540000Y-138450000D03*
X131500000Y-144570000D03*
%TO.N,/SA7*%
X140100000Y-125350000D03*
X167550000Y-126980000D03*
%TO.N,/SA6*%
X169490000Y-139300000D03*
X142800000Y-139050000D03*
%TO.N,/SA5*%
X135140000Y-156030000D03*
X140150000Y-153890000D03*
%TO.N,/SA4*%
X174850000Y-134490000D03*
X138120000Y-145170000D03*
X137378528Y-153070000D03*
X138280000Y-134410000D03*
%TO.N,/SA3*%
X178290000Y-139910000D03*
X138200000Y-153070000D03*
X138720000Y-143820000D03*
X138720000Y-141110000D03*
%TO.N,/SA2*%
X140500000Y-133080000D03*
X139000003Y-153070000D03*
X140420000Y-144569568D03*
X180390000Y-131320000D03*
%TO.N,/SA1*%
X148270000Y-153572842D03*
X140820000Y-155330000D03*
X163270000Y-153462564D03*
%TO.N,/SA0*%
X142730000Y-147613509D03*
X142780000Y-145260000D03*
X185940000Y-129190000D03*
X141655348Y-155133877D03*
X142740000Y-132790000D03*
X141536692Y-129180000D03*
%TO.N,GND*%
X143580000Y-154500000D03*
X101380000Y-156750000D03*
X156023133Y-156990000D03*
X173750000Y-156661472D03*
X130860000Y-153240000D03*
%TO.N,+5V*%
X139560000Y-148670000D03*
X136546692Y-133040000D03*
X135430000Y-148340000D03*
X136520000Y-149550000D03*
X141530000Y-149630000D03*
X142500000Y-153320000D03*
%TO.N,Net-(J1-DRQ2)*%
X120542743Y-137700000D03*
%TO.N,-12V*%
X123246692Y-138960000D03*
%TO.N,Net-(J1-~{0WS})*%
X125786692Y-138460000D03*
%TO.N,+12V*%
X127810000Y-148050000D03*
X128444265Y-143904313D03*
X128326692Y-140510000D03*
%TO.N,Net-(J1-~{IOR})*%
X116784265Y-144725735D03*
X116500000Y-153370000D03*
X141630000Y-144300000D03*
%TO.N,Net-(J1-~{DACK3})*%
X121430000Y-132820000D03*
X121370000Y-145210000D03*
X121470000Y-109900000D03*
%TO.N,Net-(J1-DRQ3)*%
X124953348Y-109300000D03*
X123846692Y-133030000D03*
X123248259Y-145290024D03*
%TO.N,Net-(J1-~{DACK1})*%
X127493348Y-108700000D03*
X125160000Y-144750000D03*
X124956692Y-125560000D03*
X125120000Y-132960000D03*
%TO.N,Net-(J1-DRQ1)*%
X150490000Y-113380000D03*
X126390000Y-132940000D03*
X124950000Y-152860000D03*
X127990000Y-125260000D03*
X128020000Y-113380000D03*
%TO.N,Net-(J1-~{REFRESH})*%
X127440000Y-156838528D03*
X127725439Y-133539993D03*
X127842610Y-127932610D03*
X153160000Y-127930000D03*
%TO.N,Net-(J1-SYSCLK)*%
X129020000Y-124370000D03*
X129100000Y-133120000D03*
X128960000Y-154060560D03*
X128650000Y-155690000D03*
X129130000Y-144470000D03*
X155850000Y-123710000D03*
%TO.N,Net-(J1-IRQ7)*%
X158750000Y-128540000D03*
X130330000Y-147880000D03*
X130356692Y-133330000D03*
%TO.N,Net-(J1-IRQ6)*%
X161290000Y-115260000D03*
X134160000Y-115270000D03*
X133650000Y-129140000D03*
X133870000Y-145250000D03*
X134006692Y-133080000D03*
%TO.N,Net-(J1-IRQ5)*%
X128548634Y-145196466D03*
X163680000Y-117990000D03*
X134481472Y-154270000D03*
X128830000Y-147820000D03*
X128780000Y-128532610D03*
X129140000Y-117520000D03*
%TO.N,Net-(J1-IRQ4)*%
X136200000Y-156760000D03*
%TO.N,Net-(J1-IRQ3)*%
X169010000Y-115880000D03*
X135315685Y-153070000D03*
X136314265Y-155624265D03*
X135436692Y-115870000D03*
%TO.N,Net-(J1-~{DACK2})*%
X137530000Y-155110063D03*
X136070000Y-116470000D03*
X136720000Y-129600000D03*
X171500000Y-116760000D03*
%TO.N,Net-(J1-TC)*%
X140533884Y-149628689D03*
X141350000Y-117360000D03*
X138870000Y-154940000D03*
X173970000Y-117360000D03*
%TO.N,Net-(J1-OSC)*%
X143973410Y-155196587D03*
X182770000Y-145740000D03*
X145560000Y-147861250D03*
%TO.N,Net-(J1-SBHE)*%
X140900000Y-150340000D03*
X194360000Y-143260000D03*
%TO.N,/LA23*%
X196900000Y-143720000D03*
X144940000Y-143940000D03*
%TO.N,/LA22*%
X149460000Y-142430000D03*
X149470000Y-147613509D03*
X199440000Y-142090000D03*
X145480000Y-150290000D03*
%TO.N,/LA21*%
X201910000Y-139880000D03*
X149113783Y-154772841D03*
X151420000Y-118590000D03*
X201986692Y-118900000D03*
X150670000Y-147937157D03*
X203725000Y-139910000D03*
%TO.N,/LA20*%
X147960000Y-150450000D03*
X152010000Y-147613509D03*
X204520000Y-141690000D03*
X152480000Y-141710000D03*
%TO.N,/LA19*%
X153880735Y-147937157D03*
X162160000Y-137500000D03*
X150580000Y-150430000D03*
X207060000Y-137440000D03*
%TO.N,/LA18*%
X164940000Y-145030000D03*
X209600000Y-140480000D03*
X165110000Y-140510000D03*
X153030000Y-150510000D03*
%TO.N,/LA17*%
X169760000Y-142750000D03*
X212140000Y-139650000D03*
X155358001Y-150730000D03*
X169750000Y-144890000D03*
%TO.N,Net-(J1-~{MEMR})*%
X160679137Y-152811091D03*
X214680000Y-137240000D03*
%TO.N,Net-(J1-~{MEMW})*%
X165700000Y-135956414D03*
X218336692Y-136520000D03*
%TO.N,/SD8*%
X186250000Y-135356414D03*
X221196692Y-135170000D03*
%TO.N,/SD9*%
X223416692Y-134580000D03*
X186845022Y-134570000D03*
%TO.N,/SD10*%
X225956692Y-133970000D03*
X187480000Y-133970000D03*
%TO.N,/SD11*%
X228496692Y-133290000D03*
X188100000Y-133370000D03*
%TO.N,/SD12*%
X188700000Y-132770000D03*
X231036692Y-132680000D03*
%TO.N,/SD13*%
X191328202Y-125327980D03*
%TO.N,/SD14*%
X236350000Y-124800000D03*
X191925000Y-124775000D03*
%TO.N,Net-(J1-~{MEMCS16})*%
X144610000Y-150310000D03*
X146700000Y-141110000D03*
X146594583Y-154772842D03*
X193225000Y-141120000D03*
X145680000Y-153572843D03*
%TO.N,Net-(J1-~{IOCS16})*%
X195625000Y-144290000D03*
%TO.N,Net-(J1-IRQ10)*%
X199401915Y-136556414D03*
X153210000Y-145393351D03*
X153060000Y-137190000D03*
%TO.N,Net-(J1-IRQ11)*%
X151790000Y-152940000D03*
X200550000Y-144240000D03*
%TO.N,Net-(J1-IRQ12)*%
X203125000Y-138050000D03*
X204360000Y-135780000D03*
X163060000Y-145170000D03*
X202300000Y-136100000D03*
X163090000Y-138050000D03*
%TO.N,Net-(J1-IRQ15)*%
X205630000Y-138700000D03*
X167720000Y-138700000D03*
X167740000Y-145090000D03*
%TO.N,Net-(J1-IRQ14)*%
X157304316Y-150737157D03*
X209430000Y-137650000D03*
X156770000Y-153030000D03*
X208225000Y-143350000D03*
X207720000Y-138170000D03*
%TO.N,Net-(J1-~{DACK0})*%
X210710000Y-141790000D03*
%TO.N,Net-(J1-DRQ0)*%
X213475000Y-140510000D03*
%TO.N,Net-(J1-~{DACK5})*%
X215925000Y-143460000D03*
%TO.N,Net-(J1-DRQ5)*%
X218625000Y-142440000D03*
X166553456Y-155320274D03*
X167528305Y-153555685D03*
%TO.N,Net-(J1-~{DACK6})*%
X221025000Y-152955000D03*
%TO.N,Net-(J1-DRQ6)*%
X223490000Y-153030000D03*
%TO.N,Net-(J1-DRQ7)*%
X228810000Y-150110000D03*
%TO.N,Net-(J1-~{MASTER})*%
X233600000Y-150280000D03*
%TD*%
%TO.N,/SA13*%
D16*
X121810000Y-151030000D02*
X120980000Y-150200000D01*
X123050222Y-153060000D02*
X121810000Y-151819778D01*
X121810000Y-151819778D02*
X121810000Y-151030000D01*
X123710000Y-153060000D02*
X123050222Y-153060000D01*
%TO.N,Net-(J1-~{IOW})*%
X137740000Y-136530000D02*
X137740000Y-141770000D01*
X138486692Y-131679998D02*
X137680000Y-132486690D01*
X137680000Y-132486690D02*
X137680000Y-136470000D01*
X137680000Y-136470000D02*
X137740000Y-136530000D01*
%TO.N,/SA14*%
X118270000Y-143480000D02*
X118270000Y-139660000D01*
X118870000Y-144080000D02*
X118270000Y-143480000D01*
X118270000Y-139660000D02*
X118290000Y-139640000D01*
X118290000Y-139640000D02*
X116637514Y-137987514D01*
X116637514Y-137987514D02*
X116585002Y-137987514D01*
%TO.N,/SA16*%
X120164315Y-139600000D02*
X119040000Y-139600000D01*
X119740000Y-154829778D02*
X117050000Y-152139778D01*
X117050000Y-152139778D02*
X117050000Y-151220222D01*
X119590000Y-148680222D02*
X119590000Y-145790000D01*
X119040000Y-139600000D02*
X117056692Y-137616692D01*
X117056692Y-131220220D02*
X117656692Y-130620220D01*
X117050000Y-151220222D02*
X119590000Y-148680222D01*
X121450000Y-140885685D02*
X120164315Y-139600000D01*
X121450000Y-143930000D02*
X121450000Y-140885685D01*
X117656692Y-130620220D02*
X117656692Y-128650000D01*
X119590000Y-145790000D02*
X121450000Y-143930000D01*
X119740000Y-156750000D02*
X119740000Y-154829778D01*
X117056692Y-137616692D02*
X117056692Y-131220220D01*
%TO.N,Net-(J1-AEN)*%
X114380000Y-131010000D02*
X115320000Y-130070000D01*
X114380000Y-151960000D02*
X114380000Y-131010000D01*
X113760000Y-155920000D02*
X113760000Y-152580000D01*
X113760000Y-152580000D02*
X114380000Y-151960000D01*
%TO.N,Net-(J1-IRQ9)*%
X115620000Y-151680000D02*
X116730000Y-150570000D01*
X116730000Y-145710000D02*
X114800000Y-143780000D01*
X114800000Y-143780000D02*
X114800000Y-138073347D01*
X116730000Y-150570000D02*
X116730000Y-145710000D01*
X114800000Y-138073347D02*
X116413347Y-136460000D01*
X116413347Y-136460000D02*
X116413347Y-132466653D01*
X116413347Y-132466653D02*
X115626692Y-131679998D01*
%TO.N,Net-(J1-IO_CH_RDY)*%
X112576692Y-128050000D02*
X112576692Y-130300220D01*
X112576692Y-130300220D02*
X111656692Y-131220220D01*
X111815000Y-137310000D02*
X111815000Y-152715000D01*
X111656692Y-131220220D02*
X111656692Y-137151692D01*
X111656692Y-137151692D02*
X111815000Y-137310000D01*
X112360000Y-153260000D02*
X111815000Y-152715000D01*
X112360000Y-155450000D02*
X112360000Y-153260000D01*
%TO.N,GND*%
X108000000Y-151680000D02*
X105960000Y-151680000D01*
X105960000Y-151680000D02*
X99740000Y-145460000D01*
%TO.N,Net-(J1-~{SMEMR})*%
X135440000Y-120400000D02*
X135440000Y-119480000D01*
X134836692Y-118876692D02*
X134836692Y-115950000D01*
X134816692Y-115353308D02*
X135943348Y-114226652D01*
X135440000Y-119480000D02*
X134836692Y-118876692D01*
X134836692Y-115950000D02*
X134816692Y-115930000D01*
X134816692Y-115930000D02*
X134816692Y-115353308D01*
X135943348Y-114226652D02*
X135943348Y-111669998D01*
X135440000Y-120400000D02*
X135440000Y-125526692D01*
X135440000Y-125526692D02*
X134836692Y-126130000D01*
X134836692Y-130569998D02*
X135946692Y-131679998D01*
X134836692Y-126130000D02*
X134836692Y-130569998D01*
%TO.N,Net-(J1-~{SMEMW})*%
X133406692Y-140836692D02*
X133670000Y-141100000D01*
%TO.N,-5V*%
X118166692Y-131679998D02*
X119003347Y-132516653D01*
X119003347Y-132516653D02*
X119003347Y-137073345D01*
X119289778Y-149580000D02*
X119270000Y-149580000D01*
X119003347Y-137073345D02*
X118996692Y-137080000D01*
X122310000Y-139320000D02*
X122310000Y-143560000D01*
X118996692Y-137080000D02*
X119270000Y-137353308D01*
X119270000Y-138140000D02*
X119960000Y-138830000D01*
X122130000Y-146739778D02*
X119289778Y-149580000D01*
X119270000Y-137353308D02*
X119270000Y-138140000D01*
X119960000Y-138830000D02*
X121820000Y-138830000D01*
X121820000Y-138830000D02*
X122310000Y-139320000D01*
X122310000Y-143560000D02*
X122130000Y-143740000D01*
X122130000Y-143740000D02*
X122130000Y-146739778D01*
X119270000Y-149580000D02*
X119270000Y-150570000D01*
X119270000Y-150570000D02*
X118160000Y-151680000D01*
%TO.N,GND*%
X238656692Y-118210000D02*
X238656692Y-130569998D01*
X238656692Y-118210000D02*
X239750000Y-118210000D01*
X239750000Y-118210000D02*
X240850000Y-119310000D01*
X237543348Y-111669998D02*
X236113348Y-110239998D01*
X236113348Y-110239998D02*
X236113348Y-105846652D01*
X236113348Y-105846652D02*
X236480000Y-105480000D01*
X187680000Y-128298529D02*
X187680000Y-129370000D01*
X187680000Y-129370000D02*
X188358345Y-130048345D01*
X187680000Y-126890000D02*
X187680000Y-128298529D01*
X187733325Y-114143325D02*
X187760000Y-114170000D01*
X186676675Y-114143325D02*
X187733325Y-114143325D01*
X184203348Y-111669998D02*
X186676675Y-114143325D01*
X132693346Y-109840000D02*
X170830000Y-109840000D01*
X170830000Y-109160000D02*
X170830000Y-109840000D01*
X186140000Y-110560000D02*
X186140000Y-108650000D01*
X186140000Y-108650000D02*
X186090000Y-108600000D01*
X185313346Y-110560000D02*
X186140000Y-110560000D01*
X130863348Y-111669998D02*
X132040000Y-110493346D01*
X132040000Y-110493346D02*
X132040000Y-105560000D01*
X114498460Y-105521540D02*
X114490000Y-105530000D01*
X114513348Y-105521540D02*
X114498460Y-105521540D01*
X109770000Y-110559998D02*
X109433348Y-110223346D01*
X109433348Y-110223346D02*
X109433348Y-105640000D01*
%TO.N,/SA1*%
X141330000Y-155840000D02*
X140820000Y-155330000D01*
X146430000Y-155840000D02*
X141330000Y-155840000D01*
X148270000Y-154000000D02*
X146430000Y-155840000D01*
X148270000Y-153572842D02*
X148270000Y-154000000D01*
%TO.N,/SA0*%
X141536692Y-130620220D02*
X141536692Y-129180000D01*
X142740000Y-132790000D02*
X142136692Y-132186692D01*
X141655348Y-154264652D02*
X141890000Y-154030000D01*
X142136692Y-132186692D02*
X142136692Y-131220220D01*
X142730000Y-150680000D02*
X142730000Y-147613509D01*
X142860111Y-150810111D02*
X142730000Y-150680000D01*
X141890000Y-154030000D02*
X141890000Y-152530000D01*
X142450000Y-151970000D02*
X142450000Y-151220222D01*
X141890000Y-152530000D02*
X142450000Y-151970000D01*
X141655348Y-155133877D02*
X141655348Y-154264652D01*
X142450000Y-151220222D02*
X142860111Y-150810111D01*
X142136692Y-131220220D02*
X141536692Y-130620220D01*
%TO.N,GND*%
X184203348Y-111669998D02*
X185313346Y-110560000D01*
X181570000Y-155550000D02*
X184200000Y-152920000D01*
X184298531Y-131679998D02*
X187680000Y-128298529D01*
X185310000Y-149250000D02*
X185310000Y-150570000D01*
X130866692Y-131926692D02*
X132050000Y-133110000D01*
X238656692Y-112783342D02*
X238656692Y-118210000D01*
X109200000Y-130486690D02*
X109200000Y-112866650D01*
X184206692Y-131679998D02*
X185310000Y-132783306D01*
X129756692Y-112776654D02*
X130863348Y-111669998D01*
X108003348Y-111669998D02*
X109113348Y-110559998D01*
X184200000Y-152920000D02*
X184200000Y-151680000D01*
X235110000Y-149250000D02*
X237540000Y-151680000D01*
X109110000Y-147059778D02*
X109110000Y-145090000D01*
X109110000Y-145090000D02*
X108006692Y-143986692D01*
X237543348Y-111669998D02*
X238656692Y-112783342D01*
X170830000Y-109840000D02*
X182373350Y-109840000D01*
X240340000Y-134473306D02*
X240340000Y-148880000D01*
X237546692Y-131679998D02*
X240340000Y-134473306D01*
X132050000Y-133110000D02*
X132050000Y-135130000D01*
X114513348Y-110133346D02*
X114513348Y-105521540D01*
X108900000Y-150780000D02*
X108900000Y-147269778D01*
X173750000Y-156661472D02*
X174861472Y-155550000D01*
X109200000Y-112866650D02*
X108003348Y-111669998D01*
X109113348Y-110559998D02*
X109770000Y-110559998D01*
X130863348Y-111669998D02*
X132693346Y-109840000D01*
X240340000Y-148880000D02*
X237540000Y-151680000D01*
X185310000Y-132783306D02*
X185310000Y-149250000D01*
X130660000Y-144930000D02*
X129730000Y-145860000D01*
X108006692Y-131679998D02*
X109200000Y-130486690D01*
X108000000Y-151680000D02*
X108900000Y-150780000D01*
X182373350Y-109840000D02*
X184203348Y-111669998D01*
X130660000Y-136520000D02*
X130660000Y-144930000D01*
X185310000Y-150570000D02*
X184200000Y-151680000D01*
X130866692Y-131679998D02*
X129756692Y-130569998D01*
X188358345Y-130048345D02*
X235915039Y-130048345D01*
X130860000Y-151680000D02*
X129730000Y-150550000D01*
X108006692Y-143986692D02*
X108006692Y-131679998D01*
X174861472Y-155550000D02*
X181570000Y-155550000D01*
X109770000Y-110559998D02*
X114940000Y-110559998D01*
X114940000Y-110559998D02*
X114513348Y-110133346D01*
X236433350Y-110560000D02*
X237543348Y-111669998D01*
X108900000Y-147269778D02*
X109110000Y-147059778D01*
X185310000Y-149250000D02*
X235110000Y-149250000D01*
X238656692Y-130569998D02*
X237546692Y-131679998D01*
X129730000Y-150550000D02*
X129730000Y-145860000D01*
X114940000Y-110559998D02*
X129753348Y-110559998D01*
X235915039Y-130048345D02*
X237546692Y-131679998D01*
X132050000Y-135130000D02*
X130660000Y-136520000D01*
X129756692Y-130569998D02*
X129756692Y-112776654D01*
X186140000Y-110560000D02*
X236433350Y-110560000D01*
X129753348Y-110559998D02*
X130863348Y-111669998D01*
%TO.N,Net-(J1-RESETDRV)*%
X110543348Y-111669998D02*
X111656692Y-112783342D01*
X111656692Y-112783342D02*
X111656692Y-130569998D01*
X111656692Y-130569998D02*
X110546692Y-131679998D01*
%TO.N,+5V*%
X114196692Y-130569998D02*
X113086692Y-131679998D01*
X180240000Y-150560000D02*
X180240000Y-136418529D01*
X179123348Y-111669998D02*
X179123348Y-123803348D01*
X179123348Y-123803348D02*
X180236692Y-124916692D01*
X180236692Y-130569998D02*
X179126692Y-131679998D01*
X114196692Y-112783342D02*
X114196692Y-130569998D01*
X179120000Y-151680000D02*
X180240000Y-150560000D01*
X180236692Y-124916692D02*
X180236692Y-130569998D01*
X113083348Y-111669998D02*
X114196692Y-112783342D01*
X180240000Y-136418529D02*
X179126692Y-135305221D01*
X179126692Y-135305221D02*
X179126692Y-131679998D01*
%TO.N,Net-(J1-IRQ9)*%
X116736692Y-130569998D02*
X115626692Y-131679998D01*
X115623348Y-111669998D02*
X116736692Y-112783342D01*
X116736692Y-112783342D02*
X116736692Y-130569998D01*
%TO.N,-5V*%
X119276692Y-130569998D02*
X118166692Y-131679998D01*
X119276692Y-112783342D02*
X119276692Y-130569998D01*
X118163348Y-111669998D02*
X119276692Y-112783342D01*
%TO.N,Net-(J1-DRQ2)*%
X120542743Y-137700000D02*
X119670000Y-136827257D01*
X119670000Y-132716690D02*
X119670000Y-136827257D01*
X121816692Y-130569998D02*
X120706692Y-131679998D01*
X121816692Y-112783342D02*
X121816692Y-130569998D01*
X120706692Y-131679998D02*
X119670000Y-132716690D01*
X120703348Y-111669998D02*
X121816692Y-112783342D01*
%TO.N,-12V*%
X123246692Y-138960000D02*
X123246692Y-131679998D01*
X124356692Y-112783342D02*
X124356692Y-130569998D01*
X123246692Y-144372378D02*
X123246692Y-138960000D01*
X123240000Y-151680000D02*
X124350000Y-150570000D01*
X123243348Y-111669998D02*
X124356692Y-112783342D01*
X124350000Y-145475686D02*
X123246692Y-144372378D01*
X124356692Y-130569998D02*
X123246692Y-131679998D01*
X124350000Y-150570000D02*
X124350000Y-145475686D01*
%TO.N,Net-(J1-~{0WS})*%
X125786692Y-131679998D02*
X125786692Y-128043308D01*
X126890000Y-146140222D02*
X126890000Y-150570000D01*
X126896692Y-112783342D02*
X126896692Y-127059776D01*
X125786692Y-145036914D02*
X126890000Y-146140222D01*
X126890000Y-150570000D02*
X125780000Y-151680000D01*
X125786692Y-128043308D02*
X125960000Y-127870000D01*
X126086468Y-127870000D02*
X126896692Y-127059776D01*
X125786692Y-138460000D02*
X125786692Y-145036914D01*
X125960000Y-127870000D02*
X126086468Y-127870000D01*
X125786692Y-131679998D02*
X125786692Y-138460000D01*
X125783348Y-111669998D02*
X126896692Y-112783342D01*
%TO.N,Net-(J1-~{SMEMW})*%
X132296692Y-130569998D02*
X133406692Y-131679998D01*
X132080735Y-144940735D02*
X131970000Y-145051471D01*
X133780000Y-141210000D02*
X133780000Y-143241471D01*
X133403348Y-111669998D02*
X132296692Y-112776654D01*
X131970000Y-146739778D02*
X132560000Y-147329778D01*
X133670000Y-141100000D02*
X133780000Y-141210000D01*
X133780000Y-143241471D02*
X132080737Y-144940735D01*
X132560000Y-147329778D02*
X132560000Y-150840000D01*
X132080737Y-144940735D02*
X132080735Y-144940735D01*
X132296692Y-112776654D02*
X132296692Y-130569998D01*
X131970000Y-145051471D02*
X131970000Y-146739778D01*
X133406692Y-131679998D02*
X133406692Y-140836692D01*
X132560000Y-150840000D02*
X133400000Y-151680000D01*
%TO.N,Net-(J1-~{SMEMR})*%
X136340000Y-134965686D02*
X136340000Y-144390000D01*
X136340000Y-144390000D02*
X134660000Y-146070000D01*
X136340000Y-134965686D02*
X135946692Y-134572378D01*
X134660000Y-146070000D02*
X134660000Y-150400000D01*
X135946692Y-134572378D02*
X135946692Y-131679998D01*
X134660000Y-150400000D02*
X135940000Y-151680000D01*
%TO.N,Net-(J1-~{IOW})*%
X137376692Y-112776654D02*
X137376692Y-130569998D01*
X139590000Y-147170000D02*
X139590000Y-143620000D01*
X137376692Y-130569998D02*
X138486692Y-131679998D01*
X137740000Y-141770000D02*
X139590000Y-143620000D01*
X138480000Y-151680000D02*
X138480000Y-148280000D01*
X138483348Y-111669998D02*
X137376692Y-112776654D01*
X138480000Y-148280000D02*
X139590000Y-147170000D01*
%TO.N,Net-(J1-~{IOR})*%
X141630000Y-144300000D02*
X141630000Y-132283306D01*
X139420000Y-113273346D02*
X139420000Y-125963528D01*
X142130000Y-150570000D02*
X142130000Y-145070000D01*
X141630000Y-132283306D02*
X141026692Y-131679998D01*
X141600000Y-144540000D02*
X141630000Y-144510000D01*
X139420000Y-125963528D02*
X139916692Y-126460220D01*
X141630000Y-144510000D02*
X141630000Y-144300000D01*
X141020000Y-151680000D02*
X142130000Y-150570000D01*
X141023348Y-111669998D02*
X139420000Y-113273346D01*
X142130000Y-145070000D02*
X141600000Y-144540000D01*
X139916692Y-130569998D02*
X141026692Y-131679998D01*
X139916692Y-126460220D02*
X139916692Y-130569998D01*
%TO.N,Net-(J1-~{DACK3})*%
X143566692Y-143415221D02*
X143566692Y-131679998D01*
X143560000Y-151680000D02*
X143560000Y-148169778D01*
X142456692Y-112776654D02*
X142456692Y-130569998D01*
X143563348Y-111669998D02*
X142456692Y-112776654D01*
X144670000Y-144518529D02*
X143566692Y-143415221D01*
X144670000Y-147059778D02*
X144670000Y-144518529D01*
X142456692Y-130569998D02*
X143566692Y-131679998D01*
X143560000Y-148169778D02*
X144670000Y-147059778D01*
%TO.N,Net-(J1-DRQ3)*%
X146100000Y-148169778D02*
X147300000Y-146969778D01*
X144996692Y-130569998D02*
X146106692Y-131679998D01*
X146103348Y-111669998D02*
X144996692Y-112776654D01*
X147300000Y-132873306D02*
X146106692Y-131679998D01*
X144996692Y-112776654D02*
X144996692Y-130569998D01*
X146100000Y-151680000D02*
X146100000Y-148169778D01*
X147300000Y-146969778D02*
X147300000Y-132873306D01*
%TO.N,Net-(J1-~{DACK1})*%
X147536692Y-112776654D02*
X147536692Y-130569998D01*
X147536692Y-130569998D02*
X148646692Y-131679998D01*
X149990000Y-146110000D02*
X150070000Y-146190000D01*
X148643348Y-111669998D02*
X147536692Y-112776654D01*
X149990000Y-145780000D02*
X149990000Y-146110000D01*
X148640000Y-144430000D02*
X149990000Y-145780000D01*
X150070000Y-146190000D02*
X150070000Y-149104488D01*
X148640000Y-150534488D02*
X148640000Y-151680000D01*
X150070000Y-149104488D02*
X148640000Y-150534488D01*
X148640000Y-131686690D02*
X148640000Y-144430000D01*
%TO.N,Net-(J1-DRQ1)*%
X127790000Y-113610000D02*
X128020000Y-113380000D01*
X150490000Y-123806692D02*
X150076692Y-124220000D01*
X127990000Y-125260000D02*
X127790000Y-125060000D01*
X127790000Y-125060000D02*
X127790000Y-113610000D01*
X151180000Y-149292038D02*
X152610000Y-147862038D01*
X150076692Y-130569998D02*
X151186692Y-131679998D01*
X151740000Y-141818529D02*
X151740000Y-132233306D01*
X151180000Y-151680000D02*
X151180000Y-149292038D01*
X151183348Y-112686652D02*
X150490000Y-113380000D01*
X151183348Y-111669998D02*
X151183348Y-112686652D01*
X152610000Y-147862038D02*
X152610000Y-142688529D01*
X150076692Y-124220000D02*
X150076692Y-130569998D01*
X151740000Y-132233306D02*
X151186692Y-131679998D01*
X150490000Y-113380000D02*
X150490000Y-123806692D01*
X152610000Y-142688529D02*
X151740000Y-141818529D01*
%TO.N,Net-(J1-~{REFRESH})*%
X153520000Y-128290000D02*
X153520000Y-128410000D01*
X153726692Y-128616692D02*
X153726692Y-131679998D01*
X153726692Y-131679998D02*
X153726692Y-145036914D01*
X153160000Y-127930000D02*
X153520000Y-128290000D01*
X153520000Y-128410000D02*
X153726692Y-128616692D01*
X153160000Y-127930000D02*
X153160000Y-127753308D01*
X153723348Y-111669998D02*
X152616692Y-112776654D01*
X127216692Y-128558528D02*
X127842610Y-127932610D01*
X153726692Y-145036914D02*
X154830000Y-146140222D01*
X153720000Y-150534488D02*
X153720000Y-151680000D01*
X154830000Y-149424488D02*
X153720000Y-150534488D01*
X127216692Y-133031246D02*
X127725439Y-133539993D01*
X154830000Y-146140222D02*
X154830000Y-149424488D01*
X127216692Y-128558528D02*
X127216692Y-133031246D01*
X153160000Y-127753308D02*
X152616692Y-127210000D01*
X152616692Y-112776654D02*
X152616692Y-127210000D01*
%TO.N,Net-(J1-SYSCLK)*%
X155850000Y-123710000D02*
X155150000Y-124410000D01*
X157690000Y-133103306D02*
X156266692Y-131679998D01*
X157690000Y-146739778D02*
X157690000Y-133103306D01*
X156260000Y-151680000D02*
X156260000Y-148169778D01*
X156266692Y-131679998D02*
X155150000Y-130563306D01*
X156263348Y-111669998D02*
X156263348Y-123296652D01*
X156260000Y-148169778D02*
X157690000Y-146739778D01*
X155150000Y-130563306D02*
X155150000Y-124410000D01*
X156263348Y-123296652D02*
X155850000Y-123710000D01*
%TO.N,Net-(J1-IRQ7)*%
X158750000Y-128860000D02*
X158806692Y-128916692D01*
X158806692Y-128916692D02*
X158806692Y-131679998D01*
X158750000Y-128540000D02*
X158750000Y-128120000D01*
X158806692Y-131679998D02*
X159910000Y-132783306D01*
X158750000Y-128120000D02*
X157376692Y-126746692D01*
X159910000Y-132783306D02*
X159910000Y-150570000D01*
X158803348Y-111669998D02*
X157376692Y-113096654D01*
X157376692Y-113096654D02*
X157376692Y-126746692D01*
X158750000Y-128540000D02*
X158750000Y-128860000D01*
X159910000Y-150570000D02*
X158800000Y-151680000D01*
%TO.N,Net-(J1-IRQ6)*%
X133650000Y-130440000D02*
X133650000Y-129140000D01*
X161346692Y-131679998D02*
X160236692Y-130569998D01*
X133736472Y-130440000D02*
X133650000Y-130440000D01*
X160236692Y-130569998D02*
X160236692Y-125800000D01*
X134516692Y-132570000D02*
X134516692Y-131220220D01*
X161343348Y-111669998D02*
X161343348Y-115206652D01*
X162450000Y-150570000D02*
X162450000Y-138638529D01*
X161343348Y-115206652D02*
X161290000Y-115260000D01*
X161290000Y-115260000D02*
X161290000Y-124746692D01*
X162450000Y-138638529D02*
X161346692Y-137535221D01*
X134516692Y-131220220D02*
X133736472Y-130440000D01*
X134006692Y-133080000D02*
X134516692Y-132570000D01*
X161290000Y-124746692D02*
X160236692Y-125800000D01*
X161346692Y-137535221D02*
X161346692Y-131679998D01*
X161340000Y-151680000D02*
X162450000Y-150570000D01*
%TO.N,Net-(J1-IRQ5)*%
X128780000Y-130563528D02*
X128780000Y-128532610D01*
X163880000Y-149800000D02*
X164990000Y-148690000D01*
X127785221Y-135283308D02*
X129700000Y-133368529D01*
X163680000Y-117990000D02*
X163883348Y-117786652D01*
X163680000Y-117990000D02*
X163680000Y-124236692D01*
X129700000Y-133368529D02*
X129700000Y-131483528D01*
X127726692Y-135283308D02*
X127750000Y-135260000D01*
X163680000Y-124236692D02*
X162456692Y-125460000D01*
X163883348Y-117786652D02*
X163883348Y-111669998D01*
X164990000Y-148690000D02*
X164990000Y-146140222D01*
X129430000Y-150815686D02*
X128830000Y-150215686D01*
X128548634Y-145196466D02*
X127726692Y-144374524D01*
X162456692Y-130249998D02*
X163886692Y-131679998D01*
X162456692Y-125460000D02*
X162456692Y-130249998D01*
X163886692Y-145036914D02*
X163886692Y-131679998D01*
X129700000Y-131483528D02*
X128780000Y-130563528D01*
X163880000Y-151680000D02*
X163880000Y-149800000D01*
X127726692Y-144374524D02*
X127726692Y-135283308D01*
X134481472Y-154270000D02*
X131041471Y-154270000D01*
X129430000Y-152658529D02*
X129430000Y-150815686D01*
X131041471Y-154270000D02*
X129430000Y-152658529D01*
X127726692Y-135283308D02*
X127785221Y-135283308D01*
X164990000Y-146140222D02*
X163886692Y-145036914D01*
X128830000Y-150215686D02*
X128830000Y-147820000D01*
%TO.N,Net-(J1-IRQ4)*%
X140540000Y-156300000D02*
X143915785Y-156300000D01*
X165316692Y-130569998D02*
X165316692Y-112776654D01*
X165316692Y-112776654D02*
X166423348Y-111669998D01*
X165834421Y-153411091D02*
X166420000Y-152825512D01*
X167530000Y-146140222D02*
X166426692Y-145036914D01*
X167530000Y-147059778D02*
X167530000Y-146140222D01*
X136200000Y-156760000D02*
X136200000Y-156690000D01*
X166420000Y-151680000D02*
X166420000Y-148169778D01*
X166420000Y-148169778D02*
X167530000Y-147059778D01*
X155567155Y-156420000D02*
X155597155Y-156390000D01*
X139840000Y-156180000D02*
X140420000Y-156180000D01*
X136200000Y-156690000D02*
X137200000Y-155690000D01*
X162465849Y-155715849D02*
X162490000Y-155740000D01*
X157451698Y-156390000D02*
X158125849Y-155715849D01*
X166426692Y-145036914D02*
X166426692Y-131679998D01*
X162490000Y-155740000D02*
X162490000Y-155091091D01*
X166347756Y-152897756D02*
X165834421Y-153411091D01*
X140420000Y-156180000D02*
X140540000Y-156300000D01*
X166426692Y-131679998D02*
X165316692Y-130569998D01*
X137200000Y-155690000D02*
X137270000Y-155760000D01*
X155597155Y-156390000D02*
X157451698Y-156390000D01*
X143915785Y-156300000D02*
X144035786Y-156420000D01*
X139420000Y-155760000D02*
X139840000Y-156180000D01*
X164170000Y-153411091D02*
X165834421Y-153411091D01*
X166347756Y-152897756D02*
X166347756Y-151752244D01*
X158125849Y-155715849D02*
X162465849Y-155715849D01*
X144035786Y-156420000D02*
X155567155Y-156420000D01*
X166420000Y-152825512D02*
X166420000Y-151680000D01*
X137270000Y-155760000D02*
X139420000Y-155760000D01*
X162490000Y-155091091D02*
X164170000Y-153411091D01*
%TO.N,Net-(J1-IRQ3)*%
X170076692Y-125030000D02*
X170076692Y-130569998D01*
X170360000Y-150280000D02*
X168960000Y-151680000D01*
X169010000Y-123963308D02*
X170076692Y-125030000D01*
X170360000Y-133073306D02*
X170360000Y-150280000D01*
X169010000Y-115880000D02*
X169010000Y-123963308D01*
X135315685Y-153070000D02*
X135315685Y-154625685D01*
X168963348Y-115833348D02*
X169010000Y-115880000D01*
X135315685Y-154625685D02*
X136314265Y-155624265D01*
X170076692Y-130569998D02*
X168966692Y-131679998D01*
X168963348Y-111669998D02*
X168963348Y-115833348D01*
X168966692Y-131679998D02*
X170360000Y-133073306D01*
%TO.N,Net-(J1-~{DACK2})*%
X136720000Y-129600000D02*
X136720000Y-130838265D01*
X137220000Y-135830000D02*
X136920000Y-136130000D01*
X136778528Y-154358591D02*
X137530000Y-155110063D01*
X137220000Y-131338265D02*
X137220000Y-135830000D01*
X171500000Y-116390000D02*
X171503348Y-116386652D01*
X136940000Y-142168529D02*
X137311471Y-142540000D01*
X171506692Y-139235221D02*
X171506692Y-131679998D01*
X171503348Y-116386652D02*
X171503348Y-111669998D01*
X136940000Y-136150000D02*
X136940000Y-142168529D01*
X171506692Y-131679998D02*
X172616692Y-130569998D01*
X137311471Y-152288528D02*
X136778528Y-152821471D01*
X137311471Y-142540000D02*
X137311471Y-152288528D01*
X136920000Y-136130000D02*
X136940000Y-136150000D01*
X172616692Y-130569998D02*
X172616692Y-125260000D01*
X172610000Y-150570000D02*
X172610000Y-140338529D01*
X172610000Y-140338529D02*
X171506692Y-139235221D01*
X171500000Y-151680000D02*
X172610000Y-150570000D01*
X171500000Y-124143308D02*
X172616692Y-125260000D01*
X136720000Y-130838265D02*
X137220000Y-131338265D01*
X136778528Y-152821471D02*
X136778528Y-154358591D01*
X171500000Y-116760000D02*
X171500000Y-124143308D01*
X171500000Y-116760000D02*
X171500000Y-116390000D01*
%TO.N,Net-(J1-TC)*%
X140533884Y-149628689D02*
X140409617Y-149628689D01*
X173970000Y-117360000D02*
X173970000Y-123963308D01*
X139990000Y-150048306D02*
X139990000Y-150735685D01*
X139990000Y-150735685D02*
X139910000Y-150815686D01*
X174040000Y-148180000D02*
X175470000Y-146750000D01*
X173970000Y-117360000D02*
X174043348Y-117286652D01*
X174043348Y-117286652D02*
X174043348Y-111669998D01*
X175550000Y-145365686D02*
X175550000Y-140228529D01*
X138870000Y-154321471D02*
X138870000Y-154940000D01*
X175470000Y-146750000D02*
X175470000Y-145445686D01*
X175156692Y-125150000D02*
X175156692Y-130569998D01*
X173970000Y-123963308D02*
X175156692Y-125150000D01*
X140409617Y-149628689D02*
X139990000Y-150048306D01*
X174040000Y-151680000D02*
X174040000Y-148180000D01*
X175550000Y-140228529D02*
X174046692Y-138725221D01*
X139910000Y-150815686D02*
X139910000Y-153281471D01*
X175470000Y-145445686D02*
X175550000Y-145365686D01*
X174046692Y-138725221D02*
X174046692Y-131679998D01*
X175156692Y-130569998D02*
X174046692Y-131679998D01*
X139910000Y-153281471D02*
X138870000Y-154321471D01*
%TO.N,Net-(J1-BALE)*%
X176586692Y-131679998D02*
X177690000Y-132783306D01*
X176583348Y-111669998D02*
X176583348Y-123963348D01*
X177690000Y-150570000D02*
X176580000Y-151680000D01*
X177690000Y-132783306D02*
X177690000Y-150570000D01*
X177696692Y-130569998D02*
X176586692Y-131679998D01*
X177696692Y-125076692D02*
X177696692Y-130569998D01*
X176583348Y-123963348D02*
X177696692Y-125076692D01*
%TO.N,Net-(J1-OSC)*%
X182770000Y-145740000D02*
X182770000Y-150570000D01*
X182770000Y-132783306D02*
X182770000Y-145740000D01*
X181666692Y-131679998D02*
X182770000Y-132783306D01*
X144273413Y-155196587D02*
X144670000Y-154800000D01*
X143973410Y-155196587D02*
X144273413Y-155196587D01*
X144010000Y-149411250D02*
X145560000Y-147861250D01*
X182770000Y-150570000D02*
X181660000Y-151680000D01*
X182810000Y-124760000D02*
X182810000Y-130536690D01*
X181663348Y-123613348D02*
X182810000Y-124760000D01*
X144670000Y-154800000D02*
X144670000Y-151218529D01*
X181663348Y-111669998D02*
X181663348Y-123613348D01*
X144010000Y-150558529D02*
X144010000Y-149411250D01*
X182810000Y-130536690D02*
X181666692Y-131679998D01*
X144670000Y-151218529D02*
X144010000Y-150558529D01*
%TD*%
M02*
