M48
; DRILL file KiCad 10.0.1 date 2026-09-30T09:01:02
; FORMAT={-:-/ absolute / metric / decimal}
; #@! TF.CreationDate,2026-09-30T09:01:02-04:00
; #@! TF.GenerationSoftware,Kicad,Pcbnew,10.0.1
; #@! TF.FileFunction,Plated,1,4,PTH
FMAT,2
METRIC
; #@! TA.AperFunction,Plated,PTH,ViaDrill
T1C0.300
; #@! TA.AperFunction,Plated,PTH,ComponentDrill
T2C0.800
; #@! TA.AperFunction,Plated,PTH,ComponentDrill
T3C1.020
; #@! TA.AperFunction,Plated,PTH,ComponentDrill
T4C3.700
%
G90
G05
T1
X95.87Y-120.36
X97.47Y-119.76
X98.9Y-119.16
X99.65Y-121.91
X99.928Y-122.66
X100.119Y-123.437
X100.4Y-118.42
X100.46Y-124.16
X101.38Y-156.75
X105.839Y-141.939
X105.93Y-120.96
X108.69Y-135.64
X109.433Y-105.64
X110.35Y-120.5
X112.33Y-117.82
X112.36Y-155.45
X112.415Y-147.94
X112.577Y-128.05
X112.58Y-145.02
X112.8Y-133.29
X112.87Y-119.64
X113.52Y-128.75
X113.76Y-155.92
X114.49Y-105.53
X114.59Y-152.78
X114.85Y-120.61
X115.06Y-113.94
X115.32Y-130.07
X115.38Y-135.69
X115.5Y-119.02
X115.63Y-133.06
X115.71Y-155.53
X116.12Y-128.65
X116.5Y-153.37
X116.585Y-137.988
X116.784Y-144.726
X117.21Y-156.849
X117.337Y-114.67
X117.46Y-112.92
X117.63Y-145.28
X117.63Y-147.798
X117.657Y-128.65
X117.67Y-136.53
X117.99Y-118.52
X118.677Y-128.65
X118.87Y-144.08
X119.74Y-156.75
X119.877Y-112.92
X120.543Y-137.7
X120.707Y-121.85
X120.98Y-150.2
X121.37Y-145.21
X121.43Y-132.82
X121.47Y-109.9
X123.247Y-122.6
X123.247Y-138.96
X123.248Y-145.29
X123.71Y-153.06
X123.847Y-133.03
X123.847Y-137.25
X124.95Y-152.86
X124.953Y-109.3
X124.957Y-125.56
X125.12Y-132.96
X125.16Y-144.75
X125.787Y-123.38
X125.787Y-138.46
X126.39Y-132.94
X126.51Y-139.61
X126.95Y-105.49
X127.44Y-156.839
X127.493Y-108.7
X127.725Y-133.54
X127.81Y-148.05
X127.843Y-127.933
X127.99Y-125.26
X128.02Y-113.38
X128.327Y-140.51
X128.39Y-123.877
X128.444Y-143.904
X128.549Y-145.196
X128.65Y-155.69
X128.78Y-128.533
X128.83Y-147.82
X128.96Y-154.061
X129.02Y-124.37
X129.1Y-133.12
X129.13Y-144.47
X129.14Y-117.52
X129.98Y-154.969
X130.33Y-147.88
X130.357Y-133.33
X130.86Y-153.24
X131.18Y-154.92
X131.25Y-133.68
X131.37Y-148.071
X131.5Y-144.57
X131.54Y-138.45
X132.04Y-105.56
X132.11Y-140.24
X132.57Y-145.3
X132.57Y-152.8
X133.407Y-120.58
X133.65Y-129.14
X133.67Y-141.1
X133.87Y-145.25
X134.007Y-133.08
X134.16Y-115.27
X134.481Y-154.27
X135.14Y-156.03
X135.316Y-153.07
X135.43Y-148.34
X135.437Y-115.87
X135.44Y-120.4
X136.07Y-116.47
X136.2Y-156.76
X136.314Y-155.624
X136.327Y-120.687
X136.52Y-149.55
X136.547Y-133.04
X136.62Y-134.39
X136.72Y-129.6
X137.379Y-153.07
X137.53Y-155.11
X137.74Y-136.53
X138.12Y-145.17
X138.2Y-153.07
X138.28Y-134.41
X138.72Y-141.11
X138.72Y-143.82
X138.87Y-154.94
X139.0Y-153.07
X139.56Y-148.67
X140.1Y-125.35
X140.15Y-153.89
X140.42Y-144.57
X140.5Y-133.08
X140.534Y-149.629
X140.82Y-155.33
X140.9Y-150.34
X141.35Y-117.36
X141.42Y-114.07
X141.53Y-149.63
X141.537Y-129.18
X141.63Y-144.3
X141.655Y-155.134
X142.5Y-153.32
X142.73Y-147.614
X142.74Y-132.79
X142.78Y-145.26
X142.8Y-139.05
X143.567Y-114.653
X143.58Y-154.5
X143.973Y-155.197
X144.61Y-150.31
X144.94Y-143.94
X145.48Y-150.29
X145.56Y-147.861
X145.68Y-153.573
X146.2Y-134.87
X146.595Y-154.773
X146.7Y-141.11
X147.96Y-150.45
X148.27Y-153.573
X149.114Y-154.773
X149.46Y-142.43
X149.47Y-147.614
X150.33Y-136.12
X150.49Y-113.38
X150.55Y-134.35
X150.58Y-150.43
X150.67Y-147.937
X151.42Y-118.59
X151.79Y-152.94
X152.01Y-147.614
X152.48Y-141.71
X153.03Y-150.51
X153.06Y-137.19
X153.16Y-127.93
X153.21Y-145.393
X153.881Y-147.937
X154.837Y-134.31
X155.358Y-150.73
X155.85Y-123.71
X156.023Y-156.99
X156.213Y-139.827
X156.77Y-153.03
X157.304Y-150.737
X158.73Y-139.827
X158.75Y-128.54
X160.679Y-152.811
X161.29Y-115.26
X162.16Y-137.5
X162.457Y-133.68
X163.06Y-145.17
X163.09Y-138.05
X163.27Y-153.463
X163.68Y-117.99
X164.487Y-138.827
X164.94Y-145.03
X165.11Y-140.51
X165.7Y-135.956
X166.553Y-155.32
X167.528Y-153.556
X167.55Y-126.98
X167.72Y-138.7
X167.74Y-145.09
X169.01Y-115.88
X169.49Y-139.3
X169.75Y-144.89
X169.76Y-142.75
X170.83Y-109.16
X171.5Y-116.76
X173.75Y-156.661
X173.97Y-117.36
X174.85Y-134.49
X175.89Y-105.28
X178.29Y-139.91
X180.39Y-131.32
X182.77Y-145.74
X185.94Y-129.19
X186.09Y-108.6
X186.25Y-135.356
X186.845Y-134.57
X187.48Y-133.97
X187.76Y-114.17
X188.1Y-133.37
X188.7Y-132.77
X191.328Y-125.328
X191.7Y-111.19
X191.925Y-124.775
X193.225Y-141.12
X194.36Y-143.26
X195.625Y-144.29
X196.9Y-143.72
X199.402Y-136.556
X199.44Y-142.09
X200.55Y-144.24
X201.91Y-139.88
X201.987Y-118.9
X202.3Y-136.1
X203.125Y-138.05
X203.725Y-139.91
X204.36Y-135.78
X204.52Y-141.69
X205.63Y-138.7
X207.06Y-137.44
X207.72Y-138.17
X208.225Y-143.35
X209.43Y-137.65
X209.6Y-140.48
X210.71Y-141.79
X212.14Y-139.65
X213.475Y-140.51
X214.68Y-137.24
X215.925Y-143.46
X218.337Y-136.52
X218.625Y-142.44
X221.025Y-152.955
X221.197Y-135.17
X223.417Y-134.58
X223.49Y-153.03
X225.957Y-133.97
X228.497Y-133.29
X228.81Y-150.11
X231.037Y-132.68
X231.18Y-105.84
X231.357Y-116.38
X232.467Y-134.91
X233.6Y-150.28
X236.35Y-124.8
X236.48Y-105.48
T2
X95.995Y-102.72
X97.74Y-145.46
X97.995Y-102.72
X99.74Y-145.46
X100.83Y-131.0
X102.47Y-95.28
X103.33Y-131.0
X103.6Y-115.94
X104.97Y-95.28
X106.1Y-115.94
X112.17Y-89.5
X112.465Y-98.38
X114.465Y-98.38
X114.67Y-89.5
X117.17Y-142.41
X119.67Y-142.41
X121.36Y-89.5
X121.655Y-98.38
X123.655Y-98.38
X123.86Y-89.5
X129.69Y-89.5
X129.985Y-98.38
X131.985Y-98.38
X132.19Y-89.5
X175.98Y-99.59
X178.48Y-99.59
X184.9Y-99.59
X186.9Y-99.59
X187.62Y-151.85
X187.68Y-126.89
X188.79Y-116.5
X190.12Y-151.85
X190.18Y-126.89
X191.29Y-116.5
X203.195Y-99.675
X205.195Y-99.675
X234.075Y-98.07
X236.075Y-98.07
X240.85Y-119.31
X241.38Y-124.14
X242.79Y-142.24
X243.0Y-136.43
X243.35Y-119.31
X243.88Y-124.14
X245.0Y-136.43
X245.29Y-142.24
T3
X108.0Y-146.6
X108.0Y-151.68
X108.003Y-106.59
X108.003Y-111.67
X108.007Y-126.6
X108.007Y-131.68
X110.54Y-146.6
X110.54Y-151.68
X110.543Y-106.59
X110.543Y-111.67
X110.547Y-126.6
X110.547Y-131.68
X113.08Y-146.6
X113.08Y-151.68
X113.083Y-106.59
X113.083Y-111.67
X113.087Y-126.6
X113.087Y-131.68
X115.62Y-146.6
X115.62Y-151.68
X115.623Y-106.59
X115.623Y-111.67
X115.627Y-126.6
X115.627Y-131.68
X118.16Y-146.6
X118.16Y-151.68
X118.163Y-106.59
X118.163Y-111.67
X118.167Y-126.6
X118.167Y-131.68
X120.7Y-146.6
X120.7Y-151.68
X120.703Y-106.59
X120.703Y-111.67
X120.707Y-126.6
X120.707Y-131.68
X123.24Y-146.6
X123.24Y-151.68
X123.243Y-106.59
X123.243Y-111.67
X123.247Y-126.6
X123.247Y-131.68
X125.78Y-146.6
X125.78Y-151.68
X125.783Y-106.59
X125.783Y-111.67
X125.787Y-126.6
X125.787Y-131.68
X128.32Y-146.6
X128.32Y-151.68
X128.323Y-106.59
X128.323Y-111.67
X128.327Y-126.6
X128.327Y-131.68
X130.86Y-146.6
X130.86Y-151.68
X130.863Y-106.59
X130.863Y-111.67
X130.867Y-126.6
X130.867Y-131.68
X133.4Y-146.6
X133.4Y-151.68
X133.403Y-106.59
X133.403Y-111.67
X133.407Y-126.6
X133.407Y-131.68
X135.94Y-146.6
X135.94Y-151.68
X135.943Y-106.59
X135.943Y-111.67
X135.947Y-126.6
X135.947Y-131.68
X138.48Y-146.6
X138.48Y-151.68
X138.483Y-106.59
X138.483Y-111.67
X138.487Y-126.6
X138.487Y-131.68
X141.02Y-146.6
X141.02Y-151.68
X141.023Y-106.59
X141.023Y-111.67
X141.027Y-126.6
X141.027Y-131.68
X143.56Y-146.6
X143.56Y-151.68
X143.563Y-106.59
X143.563Y-111.67
X143.567Y-126.6
X143.567Y-131.68
X146.1Y-146.6
X146.1Y-151.68
X146.103Y-106.59
X146.103Y-111.67
X146.107Y-126.6
X146.107Y-131.68
X148.64Y-146.6
X148.64Y-151.68
X148.643Y-106.59
X148.643Y-111.67
X148.647Y-126.6
X148.647Y-131.68
X151.18Y-146.6
X151.18Y-151.68
X151.183Y-106.59
X151.183Y-111.67
X151.187Y-126.6
X151.187Y-131.68
X153.72Y-146.6
X153.72Y-151.68
X153.723Y-106.59
X153.723Y-111.67
X153.727Y-126.6
X153.727Y-131.68
X156.26Y-146.6
X156.26Y-151.68
X156.263Y-106.59
X156.263Y-111.67
X156.267Y-126.6
X156.267Y-131.68
X158.8Y-146.6
X158.8Y-151.68
X158.803Y-106.59
X158.803Y-111.67
X158.807Y-126.6
X158.807Y-131.68
X161.34Y-146.6
X161.34Y-151.68
X161.343Y-106.59
X161.343Y-111.67
X161.347Y-126.6
X161.347Y-131.68
X163.88Y-146.6
X163.88Y-151.68
X163.883Y-106.59
X163.883Y-111.67
X163.887Y-126.6
X163.887Y-131.68
X166.42Y-146.6
X166.42Y-151.68
X166.423Y-106.59
X166.423Y-111.67
X166.427Y-126.6
X166.427Y-131.68
X168.96Y-146.6
X168.96Y-151.68
X168.963Y-106.59
X168.963Y-111.67
X168.967Y-126.6
X168.967Y-131.68
X171.5Y-146.6
X171.5Y-151.68
X171.503Y-106.59
X171.503Y-111.67
X171.507Y-126.6
X171.507Y-131.68
X174.04Y-146.6
X174.04Y-151.68
X174.043Y-106.59
X174.043Y-111.67
X174.047Y-126.6
X174.047Y-131.68
X176.58Y-146.6
X176.58Y-151.68
X176.583Y-106.59
X176.583Y-111.67
X176.587Y-126.6
X176.587Y-131.68
X179.12Y-146.6
X179.12Y-151.68
X179.123Y-106.59
X179.123Y-111.67
X179.127Y-126.6
X179.127Y-131.68
X181.66Y-146.6
X181.66Y-151.68
X181.663Y-106.59
X181.663Y-111.67
X181.667Y-126.6
X181.667Y-131.68
X184.2Y-146.6
X184.2Y-151.68
X184.203Y-106.59
X184.203Y-111.67
X184.207Y-126.6
X184.207Y-131.68
X194.36Y-146.6
X194.36Y-151.68
X194.363Y-106.59
X194.363Y-111.67
X194.367Y-126.6
X194.367Y-131.68
X196.9Y-146.6
X196.9Y-151.68
X196.903Y-106.59
X196.903Y-111.67
X196.907Y-126.6
X196.907Y-131.68
X199.44Y-146.6
X199.44Y-151.68
X199.443Y-106.59
X199.443Y-111.67
X199.447Y-126.6
X199.447Y-131.68
X201.98Y-146.6
X201.98Y-151.68
X201.983Y-106.59
X201.983Y-111.67
X201.987Y-126.6
X201.987Y-131.68
X204.52Y-146.6
X204.52Y-151.68
X204.523Y-106.59
X204.523Y-111.67
X204.527Y-126.6
X204.527Y-131.68
X207.06Y-146.6
X207.06Y-151.68
X207.063Y-106.59
X207.063Y-111.67
X207.067Y-126.6
X207.067Y-131.68
X209.6Y-146.6
X209.6Y-151.68
X209.603Y-106.59
X209.603Y-111.67
X209.607Y-126.6
X209.607Y-131.68
X212.14Y-146.6
X212.14Y-151.68
X212.143Y-106.59
X212.143Y-111.67
X212.147Y-126.6
X212.147Y-131.68
X214.68Y-146.6
X214.68Y-151.68
X214.683Y-106.59
X214.683Y-111.67
X214.687Y-126.6
X214.687Y-131.68
X217.22Y-146.6
X217.22Y-151.68
X217.223Y-106.59
X217.223Y-111.67
X217.227Y-126.6
X217.227Y-131.68
X219.76Y-146.6
X219.76Y-151.68
X219.763Y-106.59
X219.763Y-111.67
X219.767Y-126.6
X219.767Y-131.68
X222.3Y-146.6
X222.3Y-151.68
X222.303Y-106.59
X222.303Y-111.67
X222.307Y-126.6
X222.307Y-131.68
X224.84Y-146.6
X224.84Y-151.68
X224.843Y-106.59
X224.843Y-111.67
X224.847Y-126.6
X224.847Y-131.68
X227.38Y-146.6
X227.38Y-151.68
X227.383Y-106.59
X227.383Y-111.67
X227.387Y-126.6
X227.387Y-131.68
X229.92Y-146.6
X229.92Y-151.68
X229.923Y-106.59
X229.923Y-111.67
X229.927Y-126.6
X229.927Y-131.68
X232.46Y-146.6
X232.46Y-151.68
X232.463Y-106.59
X232.463Y-111.67
X232.467Y-126.6
X232.467Y-131.68
X235.0Y-146.6
X235.0Y-151.68
X235.003Y-106.59
X235.003Y-111.67
X235.007Y-126.6
X235.007Y-131.68
X237.54Y-146.6
X237.54Y-151.68
X237.543Y-106.59
X237.543Y-111.67
X237.547Y-126.6
X237.547Y-131.68
T4
X95.76Y-89.27
X244.19Y-89.28
M30
