%TF.GenerationSoftware,KiCad,Pcbnew,10.0.1*%
%TF.CreationDate,2026-09-29T11:59:28-04:00*%
%TF.ProjectId,PB450-riser,50423435-302d-4726-9973-65722e6b6963,rev?*%
%TF.SameCoordinates,Original*%
%TF.FileFunction,Legend,Top*%
%TF.FilePolarity,Positive*%
%FSLAX46Y46*%
G04 Gerber Fmt 4.6, Leading zero omitted, Abs format (unit mm)*
G04 Created by KiCad (PCBNEW 10.0.1) date 2026-09-29 11:59:28*
%MOMM*%
%LPD*%
G01*
G04 APERTURE LIST*
%ADD10C,0.100000*%
%ADD11C,0.200000*%
%ADD12C,0.150000*%
%ADD13C,0.120000*%
G04 APERTURE END LIST*
D10*
X95500000Y-156500000D02*
X95500000Y-164760000D01*
X95500000Y-164760000D02*
X158400000Y-164760000D01*
X158400000Y-156560000D02*
X160050000Y-156560000D01*
X158400000Y-164760000D02*
X158400000Y-156560000D01*
X160050000Y-156560000D02*
X160100000Y-164760000D01*
X160100000Y-164760000D02*
X174800000Y-164760000D01*
D11*
X174750000Y-156500000D02*
X250000000Y-156510000D01*
D10*
X174800000Y-164760000D02*
X174800000Y-156510000D01*
D12*
X130666666Y-149554819D02*
X130666666Y-148792914D01*
X130476190Y-148983390D02*
X130666666Y-148792914D01*
X130666666Y-148792914D02*
X130857142Y-148983390D01*
X130857142Y-149364342D02*
X130666666Y-149554819D01*
X130666666Y-149554819D02*
X130476190Y-149364342D01*
X132809523Y-149554819D02*
X132238095Y-149554819D01*
X132523809Y-149554819D02*
X132523809Y-148554819D01*
X132523809Y-148554819D02*
X132428571Y-148697676D01*
X132428571Y-148697676D02*
X132333333Y-148792914D01*
X132333333Y-148792914D02*
X132238095Y-148840533D01*
X133428571Y-148554819D02*
X133523809Y-148554819D01*
X133523809Y-148554819D02*
X133619047Y-148602438D01*
X133619047Y-148602438D02*
X133666666Y-148650057D01*
X133666666Y-148650057D02*
X133714285Y-148745295D01*
X133714285Y-148745295D02*
X133761904Y-148935771D01*
X133761904Y-148935771D02*
X133761904Y-149173866D01*
X133761904Y-149173866D02*
X133714285Y-149364342D01*
X133714285Y-149364342D02*
X133666666Y-149459580D01*
X133666666Y-149459580D02*
X133619047Y-149507200D01*
X133619047Y-149507200D02*
X133523809Y-149554819D01*
X133523809Y-149554819D02*
X133428571Y-149554819D01*
X133428571Y-149554819D02*
X133333333Y-149507200D01*
X133333333Y-149507200D02*
X133285714Y-149459580D01*
X133285714Y-149459580D02*
X133238095Y-149364342D01*
X133238095Y-149364342D02*
X133190476Y-149173866D01*
X133190476Y-149173866D02*
X133190476Y-148935771D01*
X133190476Y-148935771D02*
X133238095Y-148745295D01*
X133238095Y-148745295D02*
X133285714Y-148650057D01*
X133285714Y-148650057D02*
X133333333Y-148602438D01*
X133333333Y-148602438D02*
X133428571Y-148554819D01*
X156166666Y-149554819D02*
X156166666Y-148792914D01*
X155976190Y-148983390D02*
X156166666Y-148792914D01*
X156166666Y-148792914D02*
X156357142Y-148983390D01*
X156357142Y-149364342D02*
X156166666Y-149554819D01*
X156166666Y-149554819D02*
X155976190Y-149364342D01*
X157738095Y-148650057D02*
X157785714Y-148602438D01*
X157785714Y-148602438D02*
X157880952Y-148554819D01*
X157880952Y-148554819D02*
X158119047Y-148554819D01*
X158119047Y-148554819D02*
X158214285Y-148602438D01*
X158214285Y-148602438D02*
X158261904Y-148650057D01*
X158261904Y-148650057D02*
X158309523Y-148745295D01*
X158309523Y-148745295D02*
X158309523Y-148840533D01*
X158309523Y-148840533D02*
X158261904Y-148983390D01*
X158261904Y-148983390D02*
X157690476Y-149554819D01*
X157690476Y-149554819D02*
X158309523Y-149554819D01*
X158928571Y-148554819D02*
X159023809Y-148554819D01*
X159023809Y-148554819D02*
X159119047Y-148602438D01*
X159119047Y-148602438D02*
X159166666Y-148650057D01*
X159166666Y-148650057D02*
X159214285Y-148745295D01*
X159214285Y-148745295D02*
X159261904Y-148935771D01*
X159261904Y-148935771D02*
X159261904Y-149173866D01*
X159261904Y-149173866D02*
X159214285Y-149364342D01*
X159214285Y-149364342D02*
X159166666Y-149459580D01*
X159166666Y-149459580D02*
X159119047Y-149507200D01*
X159119047Y-149507200D02*
X159023809Y-149554819D01*
X159023809Y-149554819D02*
X158928571Y-149554819D01*
X158928571Y-149554819D02*
X158833333Y-149507200D01*
X158833333Y-149507200D02*
X158785714Y-149459580D01*
X158785714Y-149459580D02*
X158738095Y-149364342D01*
X158738095Y-149364342D02*
X158690476Y-149173866D01*
X158690476Y-149173866D02*
X158690476Y-148935771D01*
X158690476Y-148935771D02*
X158738095Y-148745295D01*
X158738095Y-148745295D02*
X158785714Y-148650057D01*
X158785714Y-148650057D02*
X158833333Y-148602438D01*
X158833333Y-148602438D02*
X158928571Y-148554819D01*
X217166666Y-149554819D02*
X217166666Y-148792914D01*
X216976190Y-148983390D02*
X217166666Y-148792914D01*
X217166666Y-148792914D02*
X217357142Y-148983390D01*
X217357142Y-149364342D02*
X217166666Y-149554819D01*
X217166666Y-149554819D02*
X216976190Y-149364342D01*
X219309523Y-149554819D02*
X218738095Y-149554819D01*
X219023809Y-149554819D02*
X219023809Y-148554819D01*
X219023809Y-148554819D02*
X218928571Y-148697676D01*
X218928571Y-148697676D02*
X218833333Y-148792914D01*
X218833333Y-148792914D02*
X218738095Y-148840533D01*
X219928571Y-148554819D02*
X220023809Y-148554819D01*
X220023809Y-148554819D02*
X220119047Y-148602438D01*
X220119047Y-148602438D02*
X220166666Y-148650057D01*
X220166666Y-148650057D02*
X220214285Y-148745295D01*
X220214285Y-148745295D02*
X220261904Y-148935771D01*
X220261904Y-148935771D02*
X220261904Y-149173866D01*
X220261904Y-149173866D02*
X220214285Y-149364342D01*
X220214285Y-149364342D02*
X220166666Y-149459580D01*
X220166666Y-149459580D02*
X220119047Y-149507200D01*
X220119047Y-149507200D02*
X220023809Y-149554819D01*
X220023809Y-149554819D02*
X219928571Y-149554819D01*
X219928571Y-149554819D02*
X219833333Y-149507200D01*
X219833333Y-149507200D02*
X219785714Y-149459580D01*
X219785714Y-149459580D02*
X219738095Y-149364342D01*
X219738095Y-149364342D02*
X219690476Y-149173866D01*
X219690476Y-149173866D02*
X219690476Y-148935771D01*
X219690476Y-148935771D02*
X219738095Y-148745295D01*
X219738095Y-148745295D02*
X219785714Y-148650057D01*
X219785714Y-148650057D02*
X219833333Y-148602438D01*
X219833333Y-148602438D02*
X219928571Y-148554819D01*
X122471905Y-156064819D02*
X122471905Y-155064819D01*
X122471905Y-155064819D02*
X122852857Y-155064819D01*
X122852857Y-155064819D02*
X122948095Y-155112438D01*
X122948095Y-155112438D02*
X122995714Y-155160057D01*
X122995714Y-155160057D02*
X123043333Y-155255295D01*
X123043333Y-155255295D02*
X123043333Y-155398152D01*
X123043333Y-155398152D02*
X122995714Y-155493390D01*
X122995714Y-155493390D02*
X122948095Y-155541009D01*
X122948095Y-155541009D02*
X122852857Y-155588628D01*
X122852857Y-155588628D02*
X122471905Y-155588628D01*
X123995714Y-156064819D02*
X123424286Y-156064819D01*
X123710000Y-156064819D02*
X123710000Y-155064819D01*
X123710000Y-155064819D02*
X123614762Y-155207676D01*
X123614762Y-155207676D02*
X123519524Y-155302914D01*
X123519524Y-155302914D02*
X123424286Y-155350533D01*
G36*
X179859469Y-129740928D02*
G01*
X178107736Y-129740928D01*
X178107736Y-129540185D01*
X178218847Y-129540185D01*
X178218847Y-129569449D01*
X178230046Y-129596485D01*
X178250738Y-129617177D01*
X178277774Y-129628376D01*
X178292406Y-129629817D01*
X178387644Y-129629817D01*
X178395049Y-129629087D01*
X178397024Y-129629228D01*
X178399621Y-129628637D01*
X178402276Y-129628376D01*
X178404107Y-129627617D01*
X178411361Y-129625968D01*
X178554218Y-129578349D01*
X178567643Y-129572355D01*
X178569678Y-129570589D01*
X178572169Y-129569558D01*
X178583534Y-129560231D01*
X178603580Y-129540185D01*
X178980752Y-129540185D01*
X178980752Y-129569449D01*
X178991951Y-129596485D01*
X179012643Y-129617177D01*
X179039679Y-129628376D01*
X179054311Y-129629817D01*
X179673358Y-129629817D01*
X179687990Y-129628376D01*
X179715026Y-129617177D01*
X179735718Y-129596485D01*
X179746917Y-129569449D01*
X179746917Y-129540185D01*
X179735718Y-129513149D01*
X179715026Y-129492457D01*
X179687990Y-129481258D01*
X179673358Y-129479817D01*
X179235377Y-129479817D01*
X179678772Y-129036421D01*
X179688100Y-129025056D01*
X179689131Y-129022565D01*
X179690896Y-129020531D01*
X179696890Y-129007105D01*
X179744509Y-128864249D01*
X179746158Y-128856993D01*
X179746917Y-128855163D01*
X179747178Y-128852509D01*
X179747769Y-128849912D01*
X179747628Y-128847937D01*
X179748358Y-128840531D01*
X179748358Y-128745293D01*
X179746917Y-128730661D01*
X179745886Y-128728172D01*
X179745695Y-128725483D01*
X179740440Y-128711752D01*
X179692821Y-128616514D01*
X179688856Y-128610214D01*
X179688099Y-128608387D01*
X179686410Y-128606330D01*
X179684989Y-128604071D01*
X179683490Y-128602771D01*
X179678772Y-128597022D01*
X179631153Y-128549403D01*
X179625403Y-128544684D01*
X179624104Y-128543186D01*
X179621844Y-128541764D01*
X179619788Y-128540076D01*
X179617960Y-128539318D01*
X179611661Y-128535354D01*
X179516423Y-128487735D01*
X179502691Y-128482480D01*
X179500003Y-128482289D01*
X179497514Y-128481258D01*
X179482882Y-128479817D01*
X179244787Y-128479817D01*
X179230155Y-128481258D01*
X179227666Y-128482288D01*
X179224977Y-128482480D01*
X179211246Y-128487735D01*
X179116008Y-128535354D01*
X179109708Y-128539318D01*
X179107881Y-128540076D01*
X179105824Y-128541764D01*
X179103565Y-128543186D01*
X179102265Y-128544684D01*
X179096516Y-128549403D01*
X179048897Y-128597022D01*
X179039570Y-128608387D01*
X179028371Y-128635424D01*
X179028371Y-128664686D01*
X179039570Y-128691723D01*
X179060262Y-128712415D01*
X179087299Y-128723614D01*
X179116561Y-128723614D01*
X179143598Y-128712415D01*
X179154963Y-128703088D01*
X179193976Y-128664075D01*
X179262492Y-128629817D01*
X179465177Y-128629817D01*
X179533693Y-128664075D01*
X179564100Y-128694482D01*
X179598358Y-128762998D01*
X179598358Y-128828361D01*
X179560186Y-128942874D01*
X179001278Y-129501784D01*
X178991951Y-129513149D01*
X178980752Y-129540185D01*
X178603580Y-129540185D01*
X178678773Y-129464991D01*
X178688100Y-129453626D01*
X178689130Y-129451137D01*
X178690896Y-129449102D01*
X178696890Y-129435676D01*
X178744509Y-129292820D01*
X178746158Y-129285564D01*
X178746917Y-129283734D01*
X178747178Y-129281080D01*
X178747769Y-129278483D01*
X178747628Y-129276508D01*
X178748358Y-129269102D01*
X178748358Y-128554817D01*
X178746917Y-128540185D01*
X178735718Y-128513149D01*
X178715026Y-128492457D01*
X178687990Y-128481258D01*
X178658726Y-128481258D01*
X178631690Y-128492457D01*
X178610998Y-128513149D01*
X178599799Y-128540185D01*
X178598358Y-128554817D01*
X178598358Y-129256932D01*
X178560186Y-129371445D01*
X178489987Y-129441645D01*
X178375474Y-129479817D01*
X178292406Y-129479817D01*
X178277774Y-129481258D01*
X178250738Y-129492457D01*
X178230046Y-129513149D01*
X178218847Y-129540185D01*
X178107736Y-129540185D01*
X178107736Y-128368706D01*
X179859469Y-128368706D01*
X179859469Y-129740928D01*
G37*
X108429047Y-129584819D02*
X108429047Y-128822914D01*
X108238571Y-129013390D02*
X108429047Y-128822914D01*
X108429047Y-128822914D02*
X108619523Y-129013390D01*
X109857618Y-129584819D02*
X109524285Y-129108628D01*
X109286190Y-129584819D02*
X109286190Y-128584819D01*
X109286190Y-128584819D02*
X109667142Y-128584819D01*
X109667142Y-128584819D02*
X109762380Y-128632438D01*
X109762380Y-128632438D02*
X109809999Y-128680057D01*
X109809999Y-128680057D02*
X109857618Y-128775295D01*
X109857618Y-128775295D02*
X109857618Y-128918152D01*
X109857618Y-128918152D02*
X109809999Y-129013390D01*
X109809999Y-129013390D02*
X109762380Y-129061009D01*
X109762380Y-129061009D02*
X109667142Y-129108628D01*
X109667142Y-129108628D02*
X109286190Y-129108628D01*
X110429047Y-129584819D02*
X110333809Y-129537200D01*
X110333809Y-129537200D02*
X110286190Y-129489580D01*
X110286190Y-129489580D02*
X110238571Y-129394342D01*
X110238571Y-129394342D02*
X110238571Y-129108628D01*
X110238571Y-129108628D02*
X110286190Y-129013390D01*
X110286190Y-129013390D02*
X110333809Y-128965771D01*
X110333809Y-128965771D02*
X110429047Y-128918152D01*
X110429047Y-128918152D02*
X110571904Y-128918152D01*
X110571904Y-128918152D02*
X110667142Y-128965771D01*
X110667142Y-128965771D02*
X110714761Y-129013390D01*
X110714761Y-129013390D02*
X110762380Y-129108628D01*
X110762380Y-129108628D02*
X110762380Y-129394342D01*
X110762380Y-129394342D02*
X110714761Y-129489580D01*
X110714761Y-129489580D02*
X110667142Y-129537200D01*
X110667142Y-129537200D02*
X110571904Y-129584819D01*
X110571904Y-129584819D02*
X110429047Y-129584819D01*
X111095714Y-128918152D02*
X111286190Y-129584819D01*
X111286190Y-129584819D02*
X111476666Y-129108628D01*
X111476666Y-129108628D02*
X111667142Y-129584819D01*
X111667142Y-129584819D02*
X111857618Y-128918152D01*
X112952857Y-129299104D02*
X113429047Y-129299104D01*
X112857619Y-129584819D02*
X113190952Y-128584819D01*
X113190952Y-128584819D02*
X113524285Y-129584819D01*
X114857619Y-129918152D02*
X114857619Y-128489580D01*
X116905238Y-129584819D02*
X116571905Y-129108628D01*
X116333810Y-129584819D02*
X116333810Y-128584819D01*
X116333810Y-128584819D02*
X116714762Y-128584819D01*
X116714762Y-128584819D02*
X116810000Y-128632438D01*
X116810000Y-128632438D02*
X116857619Y-128680057D01*
X116857619Y-128680057D02*
X116905238Y-128775295D01*
X116905238Y-128775295D02*
X116905238Y-128918152D01*
X116905238Y-128918152D02*
X116857619Y-129013390D01*
X116857619Y-129013390D02*
X116810000Y-129061009D01*
X116810000Y-129061009D02*
X116714762Y-129108628D01*
X116714762Y-129108628D02*
X116333810Y-129108628D01*
X117476667Y-129584819D02*
X117381429Y-129537200D01*
X117381429Y-129537200D02*
X117333810Y-129489580D01*
X117333810Y-129489580D02*
X117286191Y-129394342D01*
X117286191Y-129394342D02*
X117286191Y-129108628D01*
X117286191Y-129108628D02*
X117333810Y-129013390D01*
X117333810Y-129013390D02*
X117381429Y-128965771D01*
X117381429Y-128965771D02*
X117476667Y-128918152D01*
X117476667Y-128918152D02*
X117619524Y-128918152D01*
X117619524Y-128918152D02*
X117714762Y-128965771D01*
X117714762Y-128965771D02*
X117762381Y-129013390D01*
X117762381Y-129013390D02*
X117810000Y-129108628D01*
X117810000Y-129108628D02*
X117810000Y-129394342D01*
X117810000Y-129394342D02*
X117762381Y-129489580D01*
X117762381Y-129489580D02*
X117714762Y-129537200D01*
X117714762Y-129537200D02*
X117619524Y-129584819D01*
X117619524Y-129584819D02*
X117476667Y-129584819D01*
X118143334Y-128918152D02*
X118333810Y-129584819D01*
X118333810Y-129584819D02*
X118524286Y-129108628D01*
X118524286Y-129108628D02*
X118714762Y-129584819D01*
X118714762Y-129584819D02*
X118905238Y-128918152D01*
X120381429Y-129061009D02*
X120524286Y-129108628D01*
X120524286Y-129108628D02*
X120571905Y-129156247D01*
X120571905Y-129156247D02*
X120619524Y-129251485D01*
X120619524Y-129251485D02*
X120619524Y-129394342D01*
X120619524Y-129394342D02*
X120571905Y-129489580D01*
X120571905Y-129489580D02*
X120524286Y-129537200D01*
X120524286Y-129537200D02*
X120429048Y-129584819D01*
X120429048Y-129584819D02*
X120048096Y-129584819D01*
X120048096Y-129584819D02*
X120048096Y-128584819D01*
X120048096Y-128584819D02*
X120381429Y-128584819D01*
X120381429Y-128584819D02*
X120476667Y-128632438D01*
X120476667Y-128632438D02*
X120524286Y-128680057D01*
X120524286Y-128680057D02*
X120571905Y-128775295D01*
X120571905Y-128775295D02*
X120571905Y-128870533D01*
X120571905Y-128870533D02*
X120524286Y-128965771D01*
X120524286Y-128965771D02*
X120476667Y-129013390D01*
X120476667Y-129013390D02*
X120381429Y-129061009D01*
X120381429Y-129061009D02*
X120048096Y-129061009D01*
X122190953Y-128822914D02*
X122190953Y-129584819D01*
X122381429Y-129394342D02*
X122190953Y-129584819D01*
X122190953Y-129584819D02*
X122000477Y-129394342D01*
X130673358Y-129554817D02*
X130673358Y-128792912D01*
X130482882Y-128983388D02*
X130673358Y-128792912D01*
X130673358Y-128792912D02*
X130863834Y-128983388D01*
X130863834Y-129364340D02*
X130673358Y-129554817D01*
X130673358Y-129554817D02*
X130482882Y-129364340D01*
X132816215Y-129554817D02*
X132244787Y-129554817D01*
X132530501Y-129554817D02*
X132530501Y-128554817D01*
X132530501Y-128554817D02*
X132435263Y-128697674D01*
X132435263Y-128697674D02*
X132340025Y-128792912D01*
X132340025Y-128792912D02*
X132244787Y-128840531D01*
X133435263Y-128554817D02*
X133530501Y-128554817D01*
X133530501Y-128554817D02*
X133625739Y-128602436D01*
X133625739Y-128602436D02*
X133673358Y-128650055D01*
X133673358Y-128650055D02*
X133720977Y-128745293D01*
X133720977Y-128745293D02*
X133768596Y-128935769D01*
X133768596Y-128935769D02*
X133768596Y-129173864D01*
X133768596Y-129173864D02*
X133720977Y-129364340D01*
X133720977Y-129364340D02*
X133673358Y-129459578D01*
X133673358Y-129459578D02*
X133625739Y-129507198D01*
X133625739Y-129507198D02*
X133530501Y-129554817D01*
X133530501Y-129554817D02*
X133435263Y-129554817D01*
X133435263Y-129554817D02*
X133340025Y-129507198D01*
X133340025Y-129507198D02*
X133292406Y-129459578D01*
X133292406Y-129459578D02*
X133244787Y-129364340D01*
X133244787Y-129364340D02*
X133197168Y-129173864D01*
X133197168Y-129173864D02*
X133197168Y-128935769D01*
X133197168Y-128935769D02*
X133244787Y-128745293D01*
X133244787Y-128745293D02*
X133292406Y-128650055D01*
X133292406Y-128650055D02*
X133340025Y-128602436D01*
X133340025Y-128602436D02*
X133435263Y-128554817D01*
X156173358Y-129554817D02*
X156173358Y-128792912D01*
X155982882Y-128983388D02*
X156173358Y-128792912D01*
X156173358Y-128792912D02*
X156363834Y-128983388D01*
X156363834Y-129364340D02*
X156173358Y-129554817D01*
X156173358Y-129554817D02*
X155982882Y-129364340D01*
X157744787Y-128650055D02*
X157792406Y-128602436D01*
X157792406Y-128602436D02*
X157887644Y-128554817D01*
X157887644Y-128554817D02*
X158125739Y-128554817D01*
X158125739Y-128554817D02*
X158220977Y-128602436D01*
X158220977Y-128602436D02*
X158268596Y-128650055D01*
X158268596Y-128650055D02*
X158316215Y-128745293D01*
X158316215Y-128745293D02*
X158316215Y-128840531D01*
X158316215Y-128840531D02*
X158268596Y-128983388D01*
X158268596Y-128983388D02*
X157697168Y-129554817D01*
X157697168Y-129554817D02*
X158316215Y-129554817D01*
X158935263Y-128554817D02*
X159030501Y-128554817D01*
X159030501Y-128554817D02*
X159125739Y-128602436D01*
X159125739Y-128602436D02*
X159173358Y-128650055D01*
X159173358Y-128650055D02*
X159220977Y-128745293D01*
X159220977Y-128745293D02*
X159268596Y-128935769D01*
X159268596Y-128935769D02*
X159268596Y-129173864D01*
X159268596Y-129173864D02*
X159220977Y-129364340D01*
X159220977Y-129364340D02*
X159173358Y-129459578D01*
X159173358Y-129459578D02*
X159125739Y-129507198D01*
X159125739Y-129507198D02*
X159030501Y-129554817D01*
X159030501Y-129554817D02*
X158935263Y-129554817D01*
X158935263Y-129554817D02*
X158840025Y-129507198D01*
X158840025Y-129507198D02*
X158792406Y-129459578D01*
X158792406Y-129459578D02*
X158744787Y-129364340D01*
X158744787Y-129364340D02*
X158697168Y-129173864D01*
X158697168Y-129173864D02*
X158697168Y-128935769D01*
X158697168Y-128935769D02*
X158744787Y-128745293D01*
X158744787Y-128745293D02*
X158792406Y-128650055D01*
X158792406Y-128650055D02*
X158840025Y-128602436D01*
X158840025Y-128602436D02*
X158935263Y-128554817D01*
X194554310Y-129554817D02*
X194554310Y-128792912D01*
X194363834Y-128983388D02*
X194554310Y-128792912D01*
X194554310Y-128792912D02*
X194744786Y-128983388D01*
X195982881Y-129554817D02*
X195649548Y-129078626D01*
X195411453Y-129554817D02*
X195411453Y-128554817D01*
X195411453Y-128554817D02*
X195792405Y-128554817D01*
X195792405Y-128554817D02*
X195887643Y-128602436D01*
X195887643Y-128602436D02*
X195935262Y-128650055D01*
X195935262Y-128650055D02*
X195982881Y-128745293D01*
X195982881Y-128745293D02*
X195982881Y-128888150D01*
X195982881Y-128888150D02*
X195935262Y-128983388D01*
X195935262Y-128983388D02*
X195887643Y-129031007D01*
X195887643Y-129031007D02*
X195792405Y-129078626D01*
X195792405Y-129078626D02*
X195411453Y-129078626D01*
X196554310Y-129554817D02*
X196459072Y-129507198D01*
X196459072Y-129507198D02*
X196411453Y-129459578D01*
X196411453Y-129459578D02*
X196363834Y-129364340D01*
X196363834Y-129364340D02*
X196363834Y-129078626D01*
X196363834Y-129078626D02*
X196411453Y-128983388D01*
X196411453Y-128983388D02*
X196459072Y-128935769D01*
X196459072Y-128935769D02*
X196554310Y-128888150D01*
X196554310Y-128888150D02*
X196697167Y-128888150D01*
X196697167Y-128888150D02*
X196792405Y-128935769D01*
X196792405Y-128935769D02*
X196840024Y-128983388D01*
X196840024Y-128983388D02*
X196887643Y-129078626D01*
X196887643Y-129078626D02*
X196887643Y-129364340D01*
X196887643Y-129364340D02*
X196840024Y-129459578D01*
X196840024Y-129459578D02*
X196792405Y-129507198D01*
X196792405Y-129507198D02*
X196697167Y-129554817D01*
X196697167Y-129554817D02*
X196554310Y-129554817D01*
X197220977Y-128888150D02*
X197411453Y-129554817D01*
X197411453Y-129554817D02*
X197601929Y-129078626D01*
X197601929Y-129078626D02*
X197792405Y-129554817D01*
X197792405Y-129554817D02*
X197982881Y-128888150D01*
X199697167Y-129459578D02*
X199649548Y-129507198D01*
X199649548Y-129507198D02*
X199506691Y-129554817D01*
X199506691Y-129554817D02*
X199411453Y-129554817D01*
X199411453Y-129554817D02*
X199268596Y-129507198D01*
X199268596Y-129507198D02*
X199173358Y-129411959D01*
X199173358Y-129411959D02*
X199125739Y-129316721D01*
X199125739Y-129316721D02*
X199078120Y-129126245D01*
X199078120Y-129126245D02*
X199078120Y-128983388D01*
X199078120Y-128983388D02*
X199125739Y-128792912D01*
X199125739Y-128792912D02*
X199173358Y-128697674D01*
X199173358Y-128697674D02*
X199268596Y-128602436D01*
X199268596Y-128602436D02*
X199411453Y-128554817D01*
X199411453Y-128554817D02*
X199506691Y-128554817D01*
X199506691Y-128554817D02*
X199649548Y-128602436D01*
X199649548Y-128602436D02*
X199697167Y-128650055D01*
X201125739Y-129888150D02*
X201125739Y-128459578D01*
X203173358Y-129554817D02*
X202840025Y-129078626D01*
X202601930Y-129554817D02*
X202601930Y-128554817D01*
X202601930Y-128554817D02*
X202982882Y-128554817D01*
X202982882Y-128554817D02*
X203078120Y-128602436D01*
X203078120Y-128602436D02*
X203125739Y-128650055D01*
X203125739Y-128650055D02*
X203173358Y-128745293D01*
X203173358Y-128745293D02*
X203173358Y-128888150D01*
X203173358Y-128888150D02*
X203125739Y-128983388D01*
X203125739Y-128983388D02*
X203078120Y-129031007D01*
X203078120Y-129031007D02*
X202982882Y-129078626D01*
X202982882Y-129078626D02*
X202601930Y-129078626D01*
X203744787Y-129554817D02*
X203649549Y-129507198D01*
X203649549Y-129507198D02*
X203601930Y-129459578D01*
X203601930Y-129459578D02*
X203554311Y-129364340D01*
X203554311Y-129364340D02*
X203554311Y-129078626D01*
X203554311Y-129078626D02*
X203601930Y-128983388D01*
X203601930Y-128983388D02*
X203649549Y-128935769D01*
X203649549Y-128935769D02*
X203744787Y-128888150D01*
X203744787Y-128888150D02*
X203887644Y-128888150D01*
X203887644Y-128888150D02*
X203982882Y-128935769D01*
X203982882Y-128935769D02*
X204030501Y-128983388D01*
X204030501Y-128983388D02*
X204078120Y-129078626D01*
X204078120Y-129078626D02*
X204078120Y-129364340D01*
X204078120Y-129364340D02*
X204030501Y-129459578D01*
X204030501Y-129459578D02*
X203982882Y-129507198D01*
X203982882Y-129507198D02*
X203887644Y-129554817D01*
X203887644Y-129554817D02*
X203744787Y-129554817D01*
X204411454Y-128888150D02*
X204601930Y-129554817D01*
X204601930Y-129554817D02*
X204792406Y-129078626D01*
X204792406Y-129078626D02*
X204982882Y-129554817D01*
X204982882Y-129554817D02*
X205173358Y-128888150D01*
X206316216Y-129554817D02*
X206316216Y-128554817D01*
X206316216Y-128554817D02*
X206554311Y-128554817D01*
X206554311Y-128554817D02*
X206697168Y-128602436D01*
X206697168Y-128602436D02*
X206792406Y-128697674D01*
X206792406Y-128697674D02*
X206840025Y-128792912D01*
X206840025Y-128792912D02*
X206887644Y-128983388D01*
X206887644Y-128983388D02*
X206887644Y-129126245D01*
X206887644Y-129126245D02*
X206840025Y-129316721D01*
X206840025Y-129316721D02*
X206792406Y-129411959D01*
X206792406Y-129411959D02*
X206697168Y-129507198D01*
X206697168Y-129507198D02*
X206554311Y-129554817D01*
X206554311Y-129554817D02*
X206316216Y-129554817D01*
X208459073Y-128792912D02*
X208459073Y-129554817D01*
X208649549Y-129364340D02*
X208459073Y-129554817D01*
X208459073Y-129554817D02*
X208268597Y-129364340D01*
X217173358Y-129554817D02*
X217173358Y-128792912D01*
X216982882Y-128983388D02*
X217173358Y-128792912D01*
X217173358Y-128792912D02*
X217363834Y-128983388D01*
X217363834Y-129364340D02*
X217173358Y-129554817D01*
X217173358Y-129554817D02*
X216982882Y-129364340D01*
X219316215Y-129554817D02*
X218744787Y-129554817D01*
X219030501Y-129554817D02*
X219030501Y-128554817D01*
X219030501Y-128554817D02*
X218935263Y-128697674D01*
X218935263Y-128697674D02*
X218840025Y-128792912D01*
X218840025Y-128792912D02*
X218744787Y-128840531D01*
X219935263Y-128554817D02*
X220030501Y-128554817D01*
X220030501Y-128554817D02*
X220125739Y-128602436D01*
X220125739Y-128602436D02*
X220173358Y-128650055D01*
X220173358Y-128650055D02*
X220220977Y-128745293D01*
X220220977Y-128745293D02*
X220268596Y-128935769D01*
X220268596Y-128935769D02*
X220268596Y-129173864D01*
X220268596Y-129173864D02*
X220220977Y-129364340D01*
X220220977Y-129364340D02*
X220173358Y-129459578D01*
X220173358Y-129459578D02*
X220125739Y-129507198D01*
X220125739Y-129507198D02*
X220030501Y-129554817D01*
X220030501Y-129554817D02*
X219935263Y-129554817D01*
X219935263Y-129554817D02*
X219840025Y-129507198D01*
X219840025Y-129507198D02*
X219792406Y-129459578D01*
X219792406Y-129459578D02*
X219744787Y-129364340D01*
X219744787Y-129364340D02*
X219697168Y-129173864D01*
X219697168Y-129173864D02*
X219697168Y-128935769D01*
X219697168Y-128935769D02*
X219744787Y-128745293D01*
X219744787Y-128745293D02*
X219792406Y-128650055D01*
X219792406Y-128650055D02*
X219840025Y-128602436D01*
X219840025Y-128602436D02*
X219935263Y-128554817D01*
G36*
X179856125Y-109730928D02*
G01*
X178104392Y-109730928D01*
X178104392Y-109530185D01*
X178215503Y-109530185D01*
X178215503Y-109559449D01*
X178226702Y-109586485D01*
X178247394Y-109607177D01*
X178274430Y-109618376D01*
X178289062Y-109619817D01*
X178384300Y-109619817D01*
X178391705Y-109619087D01*
X178393680Y-109619228D01*
X178396277Y-109618637D01*
X178398932Y-109618376D01*
X178400763Y-109617617D01*
X178408017Y-109615968D01*
X178550874Y-109568349D01*
X178564299Y-109562355D01*
X178566334Y-109560589D01*
X178568825Y-109559558D01*
X178580190Y-109550231D01*
X178675429Y-109454991D01*
X178684756Y-109443626D01*
X178685786Y-109441137D01*
X178687552Y-109439102D01*
X178693546Y-109425676D01*
X178741165Y-109282820D01*
X178742814Y-109275564D01*
X178743573Y-109273734D01*
X178743834Y-109271080D01*
X178744425Y-109268483D01*
X178744284Y-109266508D01*
X178745014Y-109259102D01*
X178745014Y-108544817D01*
X178743573Y-108530185D01*
X178977408Y-108530185D01*
X178977408Y-108559449D01*
X178988607Y-108586485D01*
X179009299Y-108607177D01*
X179036335Y-108618376D01*
X179050967Y-108619817D01*
X179504732Y-108619817D01*
X179280238Y-108876381D01*
X179275716Y-108882705D01*
X179274321Y-108884101D01*
X179273772Y-108885424D01*
X179271687Y-108888342D01*
X179267785Y-108899879D01*
X179263122Y-108911137D01*
X179263122Y-108913667D01*
X179262312Y-108916063D01*
X179263122Y-108928216D01*
X179263122Y-108940401D01*
X179264089Y-108942737D01*
X179264258Y-108945261D01*
X179269660Y-108956186D01*
X179274321Y-108967437D01*
X179276107Y-108969223D01*
X179277230Y-108971493D01*
X179286402Y-108979518D01*
X179295013Y-108988129D01*
X179297349Y-108989097D01*
X179299254Y-108990763D01*
X179310791Y-108994664D01*
X179322049Y-108999328D01*
X179325619Y-108999679D01*
X179326975Y-109000138D01*
X179328942Y-109000006D01*
X179336681Y-109000769D01*
X179461833Y-109000769D01*
X179530349Y-109035027D01*
X179560756Y-109065434D01*
X179595014Y-109133950D01*
X179595014Y-109336635D01*
X179560755Y-109405151D01*
X179530348Y-109435559D01*
X179461833Y-109469817D01*
X179211529Y-109469817D01*
X179143013Y-109435559D01*
X179104001Y-109396546D01*
X179092635Y-109387218D01*
X179065599Y-109376019D01*
X179036336Y-109376019D01*
X179009300Y-109387217D01*
X178988607Y-109407910D01*
X178977408Y-109434946D01*
X178977408Y-109464209D01*
X178988606Y-109491245D01*
X178997933Y-109502610D01*
X179045552Y-109550230D01*
X179051301Y-109554948D01*
X179052602Y-109556448D01*
X179054861Y-109557870D01*
X179056918Y-109559558D01*
X179058745Y-109560315D01*
X179065045Y-109564280D01*
X179160283Y-109611899D01*
X179174014Y-109617154D01*
X179176703Y-109617345D01*
X179179192Y-109618376D01*
X179193824Y-109619817D01*
X179479538Y-109619817D01*
X179494170Y-109618376D01*
X179496659Y-109617344D01*
X179499347Y-109617154D01*
X179513079Y-109611899D01*
X179608317Y-109564280D01*
X179614616Y-109560315D01*
X179616444Y-109559558D01*
X179618500Y-109557870D01*
X179620760Y-109556448D01*
X179622060Y-109554948D01*
X179627810Y-109550230D01*
X179675428Y-109502611D01*
X179680146Y-109496861D01*
X179681645Y-109495562D01*
X179683066Y-109493303D01*
X179684756Y-109491245D01*
X179685513Y-109489415D01*
X179689477Y-109483119D01*
X179737096Y-109387881D01*
X179742351Y-109374150D01*
X179742542Y-109371460D01*
X179743573Y-109368972D01*
X179745014Y-109354340D01*
X179745014Y-109116245D01*
X179743573Y-109101613D01*
X179742542Y-109099124D01*
X179742351Y-109096435D01*
X179737096Y-109082704D01*
X179689477Y-108987466D01*
X179685512Y-108981166D01*
X179684755Y-108979339D01*
X179683066Y-108977282D01*
X179681645Y-108975023D01*
X179680146Y-108973723D01*
X179675428Y-108967974D01*
X179627809Y-108920355D01*
X179622059Y-108915636D01*
X179620760Y-108914138D01*
X179618500Y-108912716D01*
X179616444Y-108911028D01*
X179614616Y-108910270D01*
X179608317Y-108906306D01*
X179513079Y-108858687D01*
X179499561Y-108853514D01*
X179726457Y-108594205D01*
X179730978Y-108587880D01*
X179732374Y-108586485D01*
X179732922Y-108585161D01*
X179735008Y-108582244D01*
X179738909Y-108570706D01*
X179743573Y-108559449D01*
X179743573Y-108556918D01*
X179744383Y-108554523D01*
X179743573Y-108542369D01*
X179743573Y-108530185D01*
X179742605Y-108527848D01*
X179742437Y-108525325D01*
X179737034Y-108514399D01*
X179732374Y-108503149D01*
X179730587Y-108501362D01*
X179729465Y-108499093D01*
X179720292Y-108491067D01*
X179711682Y-108482457D01*
X179709345Y-108481488D01*
X179707441Y-108479823D01*
X179695903Y-108475921D01*
X179684646Y-108471258D01*
X179681075Y-108470906D01*
X179679720Y-108470448D01*
X179677752Y-108470579D01*
X179670014Y-108469817D01*
X179050967Y-108469817D01*
X179036335Y-108471258D01*
X179009299Y-108482457D01*
X178988607Y-108503149D01*
X178977408Y-108530185D01*
X178743573Y-108530185D01*
X178732374Y-108503149D01*
X178711682Y-108482457D01*
X178684646Y-108471258D01*
X178655382Y-108471258D01*
X178628346Y-108482457D01*
X178607654Y-108503149D01*
X178596455Y-108530185D01*
X178595014Y-108544817D01*
X178595014Y-109246932D01*
X178556842Y-109361445D01*
X178486643Y-109431645D01*
X178372130Y-109469817D01*
X178289062Y-109469817D01*
X178274430Y-109471258D01*
X178247394Y-109482457D01*
X178226702Y-109503149D01*
X178215503Y-109530185D01*
X178104392Y-109530185D01*
X178104392Y-108358706D01*
X179856125Y-108358706D01*
X179856125Y-109730928D01*
G37*
X108039047Y-109804819D02*
X108039047Y-109042914D01*
X107848571Y-109233390D02*
X108039047Y-109042914D01*
X108039047Y-109042914D02*
X108229523Y-109233390D01*
X109467618Y-109804819D02*
X109134285Y-109328628D01*
X108896190Y-109804819D02*
X108896190Y-108804819D01*
X108896190Y-108804819D02*
X109277142Y-108804819D01*
X109277142Y-108804819D02*
X109372380Y-108852438D01*
X109372380Y-108852438D02*
X109419999Y-108900057D01*
X109419999Y-108900057D02*
X109467618Y-108995295D01*
X109467618Y-108995295D02*
X109467618Y-109138152D01*
X109467618Y-109138152D02*
X109419999Y-109233390D01*
X109419999Y-109233390D02*
X109372380Y-109281009D01*
X109372380Y-109281009D02*
X109277142Y-109328628D01*
X109277142Y-109328628D02*
X108896190Y-109328628D01*
X110039047Y-109804819D02*
X109943809Y-109757200D01*
X109943809Y-109757200D02*
X109896190Y-109709580D01*
X109896190Y-109709580D02*
X109848571Y-109614342D01*
X109848571Y-109614342D02*
X109848571Y-109328628D01*
X109848571Y-109328628D02*
X109896190Y-109233390D01*
X109896190Y-109233390D02*
X109943809Y-109185771D01*
X109943809Y-109185771D02*
X110039047Y-109138152D01*
X110039047Y-109138152D02*
X110181904Y-109138152D01*
X110181904Y-109138152D02*
X110277142Y-109185771D01*
X110277142Y-109185771D02*
X110324761Y-109233390D01*
X110324761Y-109233390D02*
X110372380Y-109328628D01*
X110372380Y-109328628D02*
X110372380Y-109614342D01*
X110372380Y-109614342D02*
X110324761Y-109709580D01*
X110324761Y-109709580D02*
X110277142Y-109757200D01*
X110277142Y-109757200D02*
X110181904Y-109804819D01*
X110181904Y-109804819D02*
X110039047Y-109804819D01*
X110705714Y-109138152D02*
X110896190Y-109804819D01*
X110896190Y-109804819D02*
X111086666Y-109328628D01*
X111086666Y-109328628D02*
X111277142Y-109804819D01*
X111277142Y-109804819D02*
X111467618Y-109138152D01*
X112562857Y-109519104D02*
X113039047Y-109519104D01*
X112467619Y-109804819D02*
X112800952Y-108804819D01*
X112800952Y-108804819D02*
X113134285Y-109804819D01*
X114467619Y-110138152D02*
X114467619Y-108709580D01*
X116515238Y-109804819D02*
X116181905Y-109328628D01*
X115943810Y-109804819D02*
X115943810Y-108804819D01*
X115943810Y-108804819D02*
X116324762Y-108804819D01*
X116324762Y-108804819D02*
X116420000Y-108852438D01*
X116420000Y-108852438D02*
X116467619Y-108900057D01*
X116467619Y-108900057D02*
X116515238Y-108995295D01*
X116515238Y-108995295D02*
X116515238Y-109138152D01*
X116515238Y-109138152D02*
X116467619Y-109233390D01*
X116467619Y-109233390D02*
X116420000Y-109281009D01*
X116420000Y-109281009D02*
X116324762Y-109328628D01*
X116324762Y-109328628D02*
X115943810Y-109328628D01*
X117086667Y-109804819D02*
X116991429Y-109757200D01*
X116991429Y-109757200D02*
X116943810Y-109709580D01*
X116943810Y-109709580D02*
X116896191Y-109614342D01*
X116896191Y-109614342D02*
X116896191Y-109328628D01*
X116896191Y-109328628D02*
X116943810Y-109233390D01*
X116943810Y-109233390D02*
X116991429Y-109185771D01*
X116991429Y-109185771D02*
X117086667Y-109138152D01*
X117086667Y-109138152D02*
X117229524Y-109138152D01*
X117229524Y-109138152D02*
X117324762Y-109185771D01*
X117324762Y-109185771D02*
X117372381Y-109233390D01*
X117372381Y-109233390D02*
X117420000Y-109328628D01*
X117420000Y-109328628D02*
X117420000Y-109614342D01*
X117420000Y-109614342D02*
X117372381Y-109709580D01*
X117372381Y-109709580D02*
X117324762Y-109757200D01*
X117324762Y-109757200D02*
X117229524Y-109804819D01*
X117229524Y-109804819D02*
X117086667Y-109804819D01*
X117753334Y-109138152D02*
X117943810Y-109804819D01*
X117943810Y-109804819D02*
X118134286Y-109328628D01*
X118134286Y-109328628D02*
X118324762Y-109804819D01*
X118324762Y-109804819D02*
X118515238Y-109138152D01*
X119991429Y-109281009D02*
X120134286Y-109328628D01*
X120134286Y-109328628D02*
X120181905Y-109376247D01*
X120181905Y-109376247D02*
X120229524Y-109471485D01*
X120229524Y-109471485D02*
X120229524Y-109614342D01*
X120229524Y-109614342D02*
X120181905Y-109709580D01*
X120181905Y-109709580D02*
X120134286Y-109757200D01*
X120134286Y-109757200D02*
X120039048Y-109804819D01*
X120039048Y-109804819D02*
X119658096Y-109804819D01*
X119658096Y-109804819D02*
X119658096Y-108804819D01*
X119658096Y-108804819D02*
X119991429Y-108804819D01*
X119991429Y-108804819D02*
X120086667Y-108852438D01*
X120086667Y-108852438D02*
X120134286Y-108900057D01*
X120134286Y-108900057D02*
X120181905Y-108995295D01*
X120181905Y-108995295D02*
X120181905Y-109090533D01*
X120181905Y-109090533D02*
X120134286Y-109185771D01*
X120134286Y-109185771D02*
X120086667Y-109233390D01*
X120086667Y-109233390D02*
X119991429Y-109281009D01*
X119991429Y-109281009D02*
X119658096Y-109281009D01*
X121800953Y-109042914D02*
X121800953Y-109804819D01*
X121991429Y-109614342D02*
X121800953Y-109804819D01*
X121800953Y-109804819D02*
X121610477Y-109614342D01*
X130670014Y-109544817D02*
X130670014Y-108782912D01*
X130479538Y-108973388D02*
X130670014Y-108782912D01*
X130670014Y-108782912D02*
X130860490Y-108973388D01*
X130860490Y-109354340D02*
X130670014Y-109544817D01*
X130670014Y-109544817D02*
X130479538Y-109354340D01*
X132812871Y-109544817D02*
X132241443Y-109544817D01*
X132527157Y-109544817D02*
X132527157Y-108544817D01*
X132527157Y-108544817D02*
X132431919Y-108687674D01*
X132431919Y-108687674D02*
X132336681Y-108782912D01*
X132336681Y-108782912D02*
X132241443Y-108830531D01*
X133431919Y-108544817D02*
X133527157Y-108544817D01*
X133527157Y-108544817D02*
X133622395Y-108592436D01*
X133622395Y-108592436D02*
X133670014Y-108640055D01*
X133670014Y-108640055D02*
X133717633Y-108735293D01*
X133717633Y-108735293D02*
X133765252Y-108925769D01*
X133765252Y-108925769D02*
X133765252Y-109163864D01*
X133765252Y-109163864D02*
X133717633Y-109354340D01*
X133717633Y-109354340D02*
X133670014Y-109449578D01*
X133670014Y-109449578D02*
X133622395Y-109497198D01*
X133622395Y-109497198D02*
X133527157Y-109544817D01*
X133527157Y-109544817D02*
X133431919Y-109544817D01*
X133431919Y-109544817D02*
X133336681Y-109497198D01*
X133336681Y-109497198D02*
X133289062Y-109449578D01*
X133289062Y-109449578D02*
X133241443Y-109354340D01*
X133241443Y-109354340D02*
X133193824Y-109163864D01*
X133193824Y-109163864D02*
X133193824Y-108925769D01*
X133193824Y-108925769D02*
X133241443Y-108735293D01*
X133241443Y-108735293D02*
X133289062Y-108640055D01*
X133289062Y-108640055D02*
X133336681Y-108592436D01*
X133336681Y-108592436D02*
X133431919Y-108544817D01*
X156170014Y-109544817D02*
X156170014Y-108782912D01*
X155979538Y-108973388D02*
X156170014Y-108782912D01*
X156170014Y-108782912D02*
X156360490Y-108973388D01*
X156360490Y-109354340D02*
X156170014Y-109544817D01*
X156170014Y-109544817D02*
X155979538Y-109354340D01*
X157741443Y-108640055D02*
X157789062Y-108592436D01*
X157789062Y-108592436D02*
X157884300Y-108544817D01*
X157884300Y-108544817D02*
X158122395Y-108544817D01*
X158122395Y-108544817D02*
X158217633Y-108592436D01*
X158217633Y-108592436D02*
X158265252Y-108640055D01*
X158265252Y-108640055D02*
X158312871Y-108735293D01*
X158312871Y-108735293D02*
X158312871Y-108830531D01*
X158312871Y-108830531D02*
X158265252Y-108973388D01*
X158265252Y-108973388D02*
X157693824Y-109544817D01*
X157693824Y-109544817D02*
X158312871Y-109544817D01*
X158931919Y-108544817D02*
X159027157Y-108544817D01*
X159027157Y-108544817D02*
X159122395Y-108592436D01*
X159122395Y-108592436D02*
X159170014Y-108640055D01*
X159170014Y-108640055D02*
X159217633Y-108735293D01*
X159217633Y-108735293D02*
X159265252Y-108925769D01*
X159265252Y-108925769D02*
X159265252Y-109163864D01*
X159265252Y-109163864D02*
X159217633Y-109354340D01*
X159217633Y-109354340D02*
X159170014Y-109449578D01*
X159170014Y-109449578D02*
X159122395Y-109497198D01*
X159122395Y-109497198D02*
X159027157Y-109544817D01*
X159027157Y-109544817D02*
X158931919Y-109544817D01*
X158931919Y-109544817D02*
X158836681Y-109497198D01*
X158836681Y-109497198D02*
X158789062Y-109449578D01*
X158789062Y-109449578D02*
X158741443Y-109354340D01*
X158741443Y-109354340D02*
X158693824Y-109163864D01*
X158693824Y-109163864D02*
X158693824Y-108925769D01*
X158693824Y-108925769D02*
X158741443Y-108735293D01*
X158741443Y-108735293D02*
X158789062Y-108640055D01*
X158789062Y-108640055D02*
X158836681Y-108592436D01*
X158836681Y-108592436D02*
X158931919Y-108544817D01*
X194550966Y-109544817D02*
X194550966Y-108782912D01*
X194360490Y-108973388D02*
X194550966Y-108782912D01*
X194550966Y-108782912D02*
X194741442Y-108973388D01*
X195979537Y-109544817D02*
X195646204Y-109068626D01*
X195408109Y-109544817D02*
X195408109Y-108544817D01*
X195408109Y-108544817D02*
X195789061Y-108544817D01*
X195789061Y-108544817D02*
X195884299Y-108592436D01*
X195884299Y-108592436D02*
X195931918Y-108640055D01*
X195931918Y-108640055D02*
X195979537Y-108735293D01*
X195979537Y-108735293D02*
X195979537Y-108878150D01*
X195979537Y-108878150D02*
X195931918Y-108973388D01*
X195931918Y-108973388D02*
X195884299Y-109021007D01*
X195884299Y-109021007D02*
X195789061Y-109068626D01*
X195789061Y-109068626D02*
X195408109Y-109068626D01*
X196550966Y-109544817D02*
X196455728Y-109497198D01*
X196455728Y-109497198D02*
X196408109Y-109449578D01*
X196408109Y-109449578D02*
X196360490Y-109354340D01*
X196360490Y-109354340D02*
X196360490Y-109068626D01*
X196360490Y-109068626D02*
X196408109Y-108973388D01*
X196408109Y-108973388D02*
X196455728Y-108925769D01*
X196455728Y-108925769D02*
X196550966Y-108878150D01*
X196550966Y-108878150D02*
X196693823Y-108878150D01*
X196693823Y-108878150D02*
X196789061Y-108925769D01*
X196789061Y-108925769D02*
X196836680Y-108973388D01*
X196836680Y-108973388D02*
X196884299Y-109068626D01*
X196884299Y-109068626D02*
X196884299Y-109354340D01*
X196884299Y-109354340D02*
X196836680Y-109449578D01*
X196836680Y-109449578D02*
X196789061Y-109497198D01*
X196789061Y-109497198D02*
X196693823Y-109544817D01*
X196693823Y-109544817D02*
X196550966Y-109544817D01*
X197217633Y-108878150D02*
X197408109Y-109544817D01*
X197408109Y-109544817D02*
X197598585Y-109068626D01*
X197598585Y-109068626D02*
X197789061Y-109544817D01*
X197789061Y-109544817D02*
X197979537Y-108878150D01*
X199693823Y-109449578D02*
X199646204Y-109497198D01*
X199646204Y-109497198D02*
X199503347Y-109544817D01*
X199503347Y-109544817D02*
X199408109Y-109544817D01*
X199408109Y-109544817D02*
X199265252Y-109497198D01*
X199265252Y-109497198D02*
X199170014Y-109401959D01*
X199170014Y-109401959D02*
X199122395Y-109306721D01*
X199122395Y-109306721D02*
X199074776Y-109116245D01*
X199074776Y-109116245D02*
X199074776Y-108973388D01*
X199074776Y-108973388D02*
X199122395Y-108782912D01*
X199122395Y-108782912D02*
X199170014Y-108687674D01*
X199170014Y-108687674D02*
X199265252Y-108592436D01*
X199265252Y-108592436D02*
X199408109Y-108544817D01*
X199408109Y-108544817D02*
X199503347Y-108544817D01*
X199503347Y-108544817D02*
X199646204Y-108592436D01*
X199646204Y-108592436D02*
X199693823Y-108640055D01*
X201122395Y-109878150D02*
X201122395Y-108449578D01*
X203170014Y-109544817D02*
X202836681Y-109068626D01*
X202598586Y-109544817D02*
X202598586Y-108544817D01*
X202598586Y-108544817D02*
X202979538Y-108544817D01*
X202979538Y-108544817D02*
X203074776Y-108592436D01*
X203074776Y-108592436D02*
X203122395Y-108640055D01*
X203122395Y-108640055D02*
X203170014Y-108735293D01*
X203170014Y-108735293D02*
X203170014Y-108878150D01*
X203170014Y-108878150D02*
X203122395Y-108973388D01*
X203122395Y-108973388D02*
X203074776Y-109021007D01*
X203074776Y-109021007D02*
X202979538Y-109068626D01*
X202979538Y-109068626D02*
X202598586Y-109068626D01*
X203741443Y-109544817D02*
X203646205Y-109497198D01*
X203646205Y-109497198D02*
X203598586Y-109449578D01*
X203598586Y-109449578D02*
X203550967Y-109354340D01*
X203550967Y-109354340D02*
X203550967Y-109068626D01*
X203550967Y-109068626D02*
X203598586Y-108973388D01*
X203598586Y-108973388D02*
X203646205Y-108925769D01*
X203646205Y-108925769D02*
X203741443Y-108878150D01*
X203741443Y-108878150D02*
X203884300Y-108878150D01*
X203884300Y-108878150D02*
X203979538Y-108925769D01*
X203979538Y-108925769D02*
X204027157Y-108973388D01*
X204027157Y-108973388D02*
X204074776Y-109068626D01*
X204074776Y-109068626D02*
X204074776Y-109354340D01*
X204074776Y-109354340D02*
X204027157Y-109449578D01*
X204027157Y-109449578D02*
X203979538Y-109497198D01*
X203979538Y-109497198D02*
X203884300Y-109544817D01*
X203884300Y-109544817D02*
X203741443Y-109544817D01*
X204408110Y-108878150D02*
X204598586Y-109544817D01*
X204598586Y-109544817D02*
X204789062Y-109068626D01*
X204789062Y-109068626D02*
X204979538Y-109544817D01*
X204979538Y-109544817D02*
X205170014Y-108878150D01*
X206312872Y-109544817D02*
X206312872Y-108544817D01*
X206312872Y-108544817D02*
X206550967Y-108544817D01*
X206550967Y-108544817D02*
X206693824Y-108592436D01*
X206693824Y-108592436D02*
X206789062Y-108687674D01*
X206789062Y-108687674D02*
X206836681Y-108782912D01*
X206836681Y-108782912D02*
X206884300Y-108973388D01*
X206884300Y-108973388D02*
X206884300Y-109116245D01*
X206884300Y-109116245D02*
X206836681Y-109306721D01*
X206836681Y-109306721D02*
X206789062Y-109401959D01*
X206789062Y-109401959D02*
X206693824Y-109497198D01*
X206693824Y-109497198D02*
X206550967Y-109544817D01*
X206550967Y-109544817D02*
X206312872Y-109544817D01*
X208455729Y-108782912D02*
X208455729Y-109544817D01*
X208646205Y-109354340D02*
X208455729Y-109544817D01*
X208455729Y-109544817D02*
X208265253Y-109354340D01*
X217170014Y-109544817D02*
X217170014Y-108782912D01*
X216979538Y-108973388D02*
X217170014Y-108782912D01*
X217170014Y-108782912D02*
X217360490Y-108973388D01*
X217360490Y-109354340D02*
X217170014Y-109544817D01*
X217170014Y-109544817D02*
X216979538Y-109354340D01*
X219312871Y-109544817D02*
X218741443Y-109544817D01*
X219027157Y-109544817D02*
X219027157Y-108544817D01*
X219027157Y-108544817D02*
X218931919Y-108687674D01*
X218931919Y-108687674D02*
X218836681Y-108782912D01*
X218836681Y-108782912D02*
X218741443Y-108830531D01*
X219931919Y-108544817D02*
X220027157Y-108544817D01*
X220027157Y-108544817D02*
X220122395Y-108592436D01*
X220122395Y-108592436D02*
X220170014Y-108640055D01*
X220170014Y-108640055D02*
X220217633Y-108735293D01*
X220217633Y-108735293D02*
X220265252Y-108925769D01*
X220265252Y-108925769D02*
X220265252Y-109163864D01*
X220265252Y-109163864D02*
X220217633Y-109354340D01*
X220217633Y-109354340D02*
X220170014Y-109449578D01*
X220170014Y-109449578D02*
X220122395Y-109497198D01*
X220122395Y-109497198D02*
X220027157Y-109544817D01*
X220027157Y-109544817D02*
X219931919Y-109544817D01*
X219931919Y-109544817D02*
X219836681Y-109497198D01*
X219836681Y-109497198D02*
X219789062Y-109449578D01*
X219789062Y-109449578D02*
X219741443Y-109354340D01*
X219741443Y-109354340D02*
X219693824Y-109163864D01*
X219693824Y-109163864D02*
X219693824Y-108925769D01*
X219693824Y-108925769D02*
X219741443Y-108735293D01*
X219741443Y-108735293D02*
X219789062Y-108640055D01*
X219789062Y-108640055D02*
X219836681Y-108592436D01*
X219836681Y-108592436D02*
X219931919Y-108544817D01*
%TO.C,J1*%
D10*
X106500000Y-145100000D02*
X239500000Y-145100000D01*
X239500000Y-153600000D01*
X106500000Y-153600000D01*
X106500000Y-145100000D01*
%TO.C,P1*%
D13*
X94750000Y-156510000D02*
X95350000Y-156510000D01*
X95350000Y-156510000D02*
X95300000Y-164760000D01*
X158300000Y-156560000D02*
X159950000Y-156560000D01*
X158300000Y-164760000D02*
X158300000Y-156560000D01*
X159950000Y-156560000D02*
X160000000Y-164760000D01*
X174700000Y-156510000D02*
X175000000Y-156510000D01*
X174700000Y-164760000D02*
X174700000Y-156510000D01*
%TO.C,J2*%
D10*
X106506692Y-125099998D02*
X239506692Y-125099998D01*
X239506692Y-133599998D01*
X106506692Y-133599998D01*
X106506692Y-125099998D01*
%TO.C,J3*%
X106503348Y-105089998D02*
X239503348Y-105089998D01*
X239503348Y-113589998D01*
X106503348Y-113589998D01*
X106503348Y-105089998D01*
%TD*%
M02*
